G04 ================== begin FILE IDENTIFICATION RECORD ==================*
G04 Layout Name:  SENSOR_TEST_BOARD.brd*
G04 Film Name:    sensor-PROMASK*
G04 File Format:  Gerber RS274X*
G04 File Origin:  Cadence Allegro 16.6-2015-S057*
G04 Origin Date:  Tue Jan 12 10:18:14 2016*
G04 *
G04 Layer:  VIA CLASS/SOLDERMASK_TOP*
G04 Layer:  PIN/SOLDERMASK_TOP*
G04 Layer:  PACKAGE GEOMETRY/SOLDERMASK_TOP*
G04 *
G04 Offset:    (0.0000 0.0000)*
G04 Mirror:    No*
G04 Mode:      Positive*
G04 Rotation:  0*
G04 FullContactRelief:  No*
G04 UndefLineWidth:     0.2000*
G04 ================== end FILE IDENTIFICATION RECORD ====================*
%FSLAX25Y25*MOMM*%
%IR0*IPPOS*OFA0.00000B0.00000*MIA0B0*SFA1.00000B1.00000*%
%ADD11C,.95*%
%ADD14R,1.9X1.1*%
%ADD13R,.4X.3*%
%ADD12R,.3X.4*%
%ADD10C,1.1001*%
%LPD*%
G75*
G54D10*
X-1000000Y-127000D03*
Y-381000D03*
Y-635000D03*
Y635000D03*
Y381000D03*
Y127000D03*
G54D11*
X-200000Y-881620D03*
X-450000D03*
X-350000Y550000D03*
X250000Y-881620D03*
X500000D03*
X0D03*
X500000Y-430000D03*
X300000Y100000D03*
X59990Y299990D03*
X91180Y677200D03*
X770000Y-100000D03*
X900000Y250000D03*
X915000Y783320D03*
G54D12*
X-100000Y-137490D03*
Y137490D03*
X100000Y-137490D03*
X59990D03*
X19990D03*
X-19990D03*
X-59990D03*
Y137490D03*
X-19990D03*
X19990D03*
X59990D03*
X100000D03*
G54D13*
X-137490Y-100000D03*
Y-59990D03*
Y-19990D03*
Y19990D03*
Y59990D03*
Y100000D03*
X137490Y-100000D03*
Y100000D03*
Y59990D03*
Y19990D03*
Y-19990D03*
Y-59990D03*
G54D14*
X585000Y423000D03*
Y677000D03*
X915000D03*
Y423000D03*
M02*
