G04 ================== begin FILE IDENTIFICATION RECORD ==================*
G04 Layout Name:  SENSOR_TEST_BOARD.brd*
G04 Film Name:    sensor-SILK*
G04 File Format:  Gerber RS274X*
G04 File Origin:  Cadence Allegro 16.6-2015-S057*
G04 Origin Date:  Tue Jan 12 10:18:58 2016*
G04 *
G04 Layer:  MANUFACTURING/AUTOSILK_TOP*
G04 *
G04 Offset:    (0.0000 0.0000)*
G04 Mirror:    No*
G04 Mode:      Positive*
G04 Rotation:  0*
G04 FullContactRelief:  No*
G04 UndefLineWidth:     0.3000*
G04 ================== end FILE IDENTIFICATION RECORD ====================*
%FSLAX25Y25*MOMM*%
%IR0*IPPOS*OFA0.00000B0.00000*MIA0B0*SFA1.00000B1.00000*%
%ADD10C,.3*%
G75*
%LPD*%
G75*
G54D10*
G01X-267080Y-773630D02*
X-260730Y-763980D01*
X-256500Y-752730D01*
Y-739860D01*
X-262850Y-725380D01*
X-273430Y-714130D01*
X-286130Y-706080D01*
X-307300Y-699650D01*
X-326350Y-698040D01*
X-345400Y-701260D01*
X-358100Y-706080D01*
X-370800Y-715730D01*
X-379270Y-726990D01*
X-383500Y-738250D01*
Y-749510D01*
X-379270Y-760770D01*
X-372920Y-770420D01*
X-364450Y-778460D01*
G01X-358100Y-832370D02*
X-372920Y-842010D01*
X-381380Y-854880D01*
X-383500Y-869360D01*
X-381380Y-882230D01*
X-370800Y-895090D01*
X-358100Y-903130D01*
X-345400Y-904740D01*
X-330590Y-901530D01*
X-320000Y-890270D01*
X-315770Y-879010D01*
Y-864530D01*
G01Y-879010D02*
X-309420Y-888660D01*
X-298840Y-896700D01*
X-286130Y-899920D01*
X-273430Y-896700D01*
X-262850Y-888660D01*
X-256500Y-874180D01*
X-258620Y-859710D01*
X-267080Y-845230D01*
G01X-266500Y-693920D02*
X-393500D01*
Y-653710D01*
X-387150Y-640840D01*
X-378680Y-632800D01*
X-361750Y-629580D01*
X-344820Y-632800D01*
X-334230Y-642450D01*
X-327880Y-653710D01*
Y-693920D01*
G01Y-653710D02*
X-266500Y-629580D01*
G01Y-532250D02*
X-393500D01*
X-368100Y-551550D01*
G01X-266500D02*
Y-512950D01*
G01X-152500Y-725000D02*
Y-675000D01*
X-247500D01*
Y-725000D01*
X-152500D01*
G01X-497500Y-675000D02*
Y-725000D01*
X-402500D01*
Y-675000D01*
X-497500D01*
G01X-182920Y-626370D02*
X-189270Y-636020D01*
X-193500Y-647270D01*
Y-660140D01*
X-187150Y-674620D01*
X-176570Y-685870D01*
X-163870Y-693920D01*
X-142700Y-700350D01*
X-123650Y-701960D01*
X-104600Y-698740D01*
X-91900Y-693920D01*
X-79200Y-684270D01*
X-70730Y-673010D01*
X-66500Y-661750D01*
Y-650490D01*
X-70730Y-639230D01*
X-77080Y-629580D01*
X-85550Y-621540D01*
G01X-66500Y-532250D02*
X-193500D01*
X-168100Y-551550D01*
G01X-66500D02*
Y-512950D01*
G01X-805760Y810660D02*
Y937660D01*
X-765550D01*
X-752680Y931310D01*
X-744640Y922840D01*
X-741420Y905910D01*
X-744640Y888980D01*
X-754290Y878390D01*
X-765550Y872040D01*
X-805760D01*
G01X-765550D02*
X-741420Y810660D01*
G01X-647310D02*
X-644090Y838170D01*
X-639260Y861460D01*
X-632830Y882630D01*
X-624790Y905910D01*
X-611920Y937660D01*
X-676260D01*
G01X-552500Y725000D02*
Y775000D01*
X-647500D01*
Y725000D01*
X-552500D01*
G01X-555760Y810660D02*
Y937660D01*
X-515550D01*
X-502680Y931310D01*
X-494640Y922840D01*
X-491420Y905910D01*
X-494640Y888980D01*
X-504290Y878390D01*
X-515550Y872040D01*
X-555760D01*
G01X-515550D02*
X-491420Y810660D01*
G01X-394090D02*
X-382830Y812780D01*
X-369970Y819120D01*
X-361920Y829710D01*
X-358710Y844530D01*
X-361920Y859340D01*
X-371570Y872040D01*
X-386050Y878390D01*
X-402130D01*
X-411780Y882630D01*
X-419830Y893210D01*
X-423040Y908030D01*
X-418210Y922840D01*
X-406960Y933430D01*
X-394090Y937660D01*
X-381220Y933430D01*
X-369970Y922840D01*
X-365140Y908030D01*
X-368360Y893210D01*
X-376400Y882630D01*
X-386050Y878390D01*
X-402130D01*
X-416610Y872040D01*
X-426260Y859340D01*
X-429470Y844530D01*
X-426260Y829710D01*
X-418210Y819120D01*
X-405350Y812780D01*
X-394090Y810660D01*
G01X-302500Y725000D02*
Y775000D01*
X-397500D01*
Y725000D01*
X-302500D01*
G01X183500Y-693920D02*
X56500D01*
Y-653710D01*
X62850Y-640840D01*
X71320Y-632800D01*
X88250Y-629580D01*
X105180Y-632800D01*
X115770Y-642450D01*
X122120Y-653710D01*
Y-693920D01*
G01Y-653710D02*
X183500Y-629580D01*
G01X164450Y-567630D02*
X175040Y-557990D01*
X181380Y-546730D01*
X183500Y-532250D01*
X179270Y-517770D01*
X170800Y-506520D01*
X155990Y-498470D01*
X139050Y-496870D01*
X122120Y-500080D01*
X111530Y-508130D01*
X103070Y-519380D01*
X100950Y-530640D01*
X103070Y-541900D01*
X111530Y-556370D01*
X56500Y-551550D01*
Y-508130D01*
G01X297500Y-725000D02*
Y-675000D01*
X202500D01*
Y-725000D01*
X297500D01*
G01X433500Y-693920D02*
X306500D01*
Y-653710D01*
X312850Y-640840D01*
X321320Y-632800D01*
X338250Y-629580D01*
X355180Y-632800D01*
X365770Y-642450D01*
X372120Y-653710D01*
Y-693920D01*
G01Y-653710D02*
X433500Y-629580D01*
G01X327670Y-562810D02*
X314970Y-553160D01*
X308620Y-541900D01*
X306500Y-529030D01*
X310730Y-512950D01*
X321320Y-501690D01*
X334010Y-498470D01*
X346720Y-500080D01*
X357300Y-506520D01*
X378470Y-538680D01*
X393280Y-553160D01*
X414450Y-562810D01*
X433500Y-566030D01*
Y-498470D01*
G01X547500Y-725000D02*
Y-675000D01*
X452500D01*
Y-725000D01*
X547500D01*
G01X476370Y-282920D02*
X486020Y-289270D01*
X497270Y-293500D01*
X510140D01*
X524620Y-287150D01*
X535870Y-276570D01*
X543920Y-263870D01*
X550350Y-242700D01*
X551960Y-223650D01*
X548740Y-204600D01*
X543920Y-191900D01*
X534270Y-179200D01*
X523010Y-170730D01*
X511750Y-166500D01*
X500490D01*
X489230Y-170730D01*
X479580Y-177080D01*
X471540Y-185550D01*
G01X412810Y-272330D02*
X403160Y-285030D01*
X391900Y-291380D01*
X379030Y-293500D01*
X362950Y-289270D01*
X351690Y-278680D01*
X348470Y-265990D01*
X350080Y-253280D01*
X356520Y-242700D01*
X388680Y-221530D01*
X403160Y-206720D01*
X412810Y-185550D01*
X416030Y-166500D01*
X348470D01*
G01X575000Y-52500D02*
X525000D01*
Y-147500D01*
X575000D01*
Y-52500D01*
G01X47500Y-725000D02*
Y-675000D01*
X-47500D01*
Y-725000D01*
X47500D01*
G01X61790Y927080D02*
X52140Y933430D01*
X40890Y937660D01*
X28020D01*
X13540Y931310D01*
X2290Y920730D01*
X-5760Y908030D01*
X-12190Y886860D01*
X-13800Y867810D01*
X-10580Y848760D01*
X-5760Y836060D01*
X3890Y823360D01*
X15150Y814890D01*
X26410Y810660D01*
X37670D01*
X48930Y814890D01*
X58580Y821240D01*
X66620Y829710D01*
G01X175210Y810660D02*
Y937660D01*
X115700Y846640D01*
X196120D01*
G01X247500Y725000D02*
Y775000D01*
X152500D01*
Y725000D01*
X247500D01*
M02*
