G04 ================== begin FILE IDENTIFICATION RECORD ==================*
G04 Layout Name:  SENSOR_TEST_BOARD.brd*
G04 Film Name:    sensor-BOTTOM*
G04 File Format:  Gerber RS274X*
G04 File Origin:  Cadence Allegro 16.6-2015-S057*
G04 Origin Date:  Tue Jan 12 10:18:58 2016*
G04 *
G04 Layer:  VIA CLASS/BOTTOM*
G04 Layer:  PIN/BOTTOM*
G04 Layer:  ETCH/BOTTOM*
G04 *
G04 Offset:    (0.0000 0.0000)*
G04 Mirror:    No*
G04 Mode:      Positive*
G04 Rotation:  0*
G04 FullContactRelief:  No*
G04 UndefLineWidth:     0.2000*
G04 ================== end FILE IDENTIFICATION RECORD ====================*
%FSLAX25Y25*MOMM*%
%IR0*IPPOS*OFA0.00000B0.00000*MIA0B0*SFA1.00000B1.00000*%
%ADD11C,.82*%
%ADD10C,1.*%
%ADD12C,.2032*%
%ADD13C,1.4068*%
G75*
%LPD*%
G75*
G36*
G01X-1270000Y-940000D02*
Y930000D01*
X1280000D01*
Y-940000D01*
X-1270000D01*
G37*
%LPC*%
G75*
G36*
G01X-319500Y496780D02*
Y462630D01*
X-287370Y430500D01*
X762630D01*
X883880Y309250D01*
X886610Y309860D01*
G02X840140Y263390I13390J-59860D01*
G01X840750Y266120D01*
X737370Y369500D01*
X-312630D01*
X-350000Y406870D01*
X-406370Y350500D01*
X-936620D01*
G02Y411500I-63380J30500D01*
G01X-431630D01*
X-380500Y462630D01*
Y496780D01*
G02X-319500I30500J53220D01*
G37*
G36*
G01X-44370Y157500D02*
X483890Y-370750D01*
X486610Y-370140D01*
G02X440140Y-416610I13390J-59860D01*
G01X440750Y-413890D01*
X-69630Y96500D01*
X-936620D01*
G02Y157500I-63380J30500D01*
G01X-44370D01*
G37*
G54D13*
X-1000000Y-635000D03*
Y-381000D03*
Y-127000D03*
Y635000D03*
%LPD*%
G75*
G54D10*
X-1000000Y-127000D03*
Y-381000D03*
Y-635000D03*
Y635000D03*
Y381000D03*
Y127000D03*
G54D11*
X-200000Y-881620D03*
X-450000D03*
X-350000Y550000D03*
X250000Y-881620D03*
X500000D03*
X0D03*
X500000Y-430000D03*
X300000Y100000D03*
X59990Y299990D03*
X91180Y677200D03*
X770000Y-100000D03*
X900000Y250000D03*
X915000Y783320D03*
G54D12*
G01X-1000000Y-456420D02*
Y-381000D01*
G01D02*
Y-305580D01*
G01X-1075420Y-381000D02*
X-1000000D01*
G01D02*
X-924580D01*
G01X-1000000Y381000D02*
X-419000D01*
X-350000Y450000D01*
G01X-1000000Y127000D02*
X-57000D01*
X500000Y-430000D01*
G01X900000Y250000D02*
X750000Y400000D01*
X-300000D01*
X-350000Y450000D01*
G01Y550000D02*
Y450000D01*
M02*
