G04 ================== begin FILE IDENTIFICATION RECORD ==================*
G04 Layout Name:  QUADCOPTER1mthrbrd1_2.brd*
G04 Film Name:    BOTTOM*
G04 File Format:  Gerber RS274X*
G04 File Origin:  Cadence Allegro 16.6-P004*
G04 Origin Date:  Tue Sep 29 12:25:37 2015*
G04 *
G04 Layer:  VIA CLASS/BOTTOM*
G04 Layer:  PIN/BOTTOM*
G04 Layer:  ETCH/BOTTOM*
G04 *
G04 Offset:    (0.0000 0.0000)*
G04 Mirror:    No*
G04 Mode:      Positive*
G04 Rotation:  0*
G04 FullContactRelief:  No*
G04 UndefLineWidth:     0.0000*
G04 ================== end FILE IDENTIFICATION RECORD ====================*
%FSLAX25Y25*MOMM*%
%IR0*IPPOS*OFA0.00000B0.00000*MIA0B0*SFA1.00000B1.00000*%
%ADD13C,.9*%
%AMMACRO14*
21,1,2.2,1.7,0.0,0.0,45.*%
%ADD14MACRO14*%
%AMMACRO15*
21,1,5.08,10.16,0.0,0.0,135.*%
%ADD15MACRO15*%
%ADD11C,2.2*%
%ADD10C,4.*%
%ADD16C,2.032*%
%ADD12C,1.7*%
%ADD17C,.4*%
%ADD18C,.6*%
%ADD19C,.381*%
%ADD20C,1.*%
%ADD23C,2.31*%
%ADD24C,2.81*%
%ADD21C,3.2164*%
%ADD22C,2.7164*%
G75*
%LPD*%
G75*
G36*
G01X2058680Y-5074030D02*
X1407120Y-4422470D01*
Y-4347540D01*
X1767240D01*
X2021840Y-4092940D01*
Y-4083350D01*
X2032550Y-4072640D01*
Y-3508050D01*
X1094340Y-2569840D01*
Y-2474160D01*
X1628470Y-1940030D01*
X2017950Y-2329520D01*
X2736400Y-1611070D01*
X2129330Y-1004010D01*
X2150890Y-982450D01*
X2105990Y-937560D01*
Y-937550D01*
X1937000Y-768570D01*
Y206060D01*
G03X1940520Y209420I-74521J81593D01*
G01X2046720Y315630D01*
Y600210D01*
X2119320Y672810D01*
X2250160Y541960D01*
G03X2406440Y698240I78140J78140D01*
G01X2275590Y829080D01*
X2669500Y1222990D01*
G02X2686840Y1215800I7180J-7188D01*
G01Y1169990D01*
X2964530Y892300D01*
X2964880Y891650D01*
G03X3121450Y1048220I101560J55010D01*
G01X3120800Y1048570D01*
X2907840Y1261530D01*
Y1287650D01*
X3219880D01*
G02X3227490Y1270750I6J-10161D01*
G03X3400370I86440J-76600D01*
G02X3407980Y1287650I7604J6739D01*
G01X4050280D01*
X4332640Y1570010D01*
Y1787110D01*
X3967730Y2152020D01*
X2355810D01*
G03X2177890I-88960J-95480D01*
G01X909610D01*
X882050Y2124460D01*
X233080D01*
X121800Y2013190D01*
G03X103690Y1880780I78141J-78131D01*
G02X94840Y1865630I-8852J-4989D01*
G01X53170D01*
G03Y1644630I0J-110500D01*
G01X390690D01*
G02X397880Y1627290I2J-10160D01*
G01X279760Y1509170D01*
X-30320D01*
G03X-200420I-85050J-44130D01*
G01X-215410D01*
X-1596790Y2890550D01*
Y3129490D01*
X-1396980Y3329300D01*
Y3811470D01*
X-1661920Y4076410D01*
X-1679500D01*
X-1681790Y4078700D01*
X-1932990D01*
X-1935280Y4076410D01*
X-1974700D01*
X-2339480Y3711630D01*
Y2184710D01*
G02X-2354630Y2175860I-10161J2D01*
G03X-2487040Y2157750I-54279J-96251D01*
G01X-2687880Y1956900D01*
Y1954690D01*
X-2708560Y1934020D01*
G03X-2652960Y1747700I78136J-78139D01*
G02X-2645470Y1734350I-2079J-9942D01*
G03X-2463230Y1619140I104097J-37077D01*
G01X-2356820Y1725560D01*
G02X-2339480Y1718370I7180J-7188D01*
G01Y1509040D01*
X-1742260Y911820D01*
Y-397800D01*
X-2535000Y-1190540D01*
X-2835910D01*
G03X-3020330I-92210J-69550D01*
G01X-3916380D01*
X-4285580Y-1559740D01*
Y-1807390D01*
X-3951090Y-2141880D01*
X-2009410D01*
X-1679210Y-1811680D01*
X-50310D01*
X227760Y-2089750D01*
Y-2564480D01*
G03X171120Y-2629050I52282J-102988D01*
G02X151950I-9585J3376D01*
G03X-55190Y-2606700I-108921J-38421D01*
G02X-72890Y-2605960I-8642J5344D01*
G03Y-2728980I-121090J-61510D01*
G02X-55190Y-2728240I9058J-4604D01*
G03X151950Y-2705890I98219J60771D01*
G02X171120I9585J-3376D01*
G03X227760Y-2770460I108922J38418D01*
G01Y-2962830D01*
X206050Y-2984540D01*
X-4140110D01*
X-4874220Y-2250430D01*
X-5334810D01*
X-5573620Y-2011620D01*
X-3905460Y-343460D01*
X-3366870D01*
X-3132350Y-108940D01*
Y255970D01*
X-3610100Y733720D01*
X-4140110D01*
X-5165290Y1758900D01*
Y1837030D01*
X-2302560Y4699760D01*
Y5221060D01*
X-2198430Y5325190D01*
X-1955070D01*
X-512980Y3883100D01*
Y3361930D01*
X-269620Y3118570D01*
X164840D01*
X772980Y3726710D01*
X3222830D01*
X4326140Y2623400D01*
X4708340D01*
X5455580Y1876160D01*
Y1815450D01*
X4221880Y581750D01*
X3631160D01*
X3066440Y17030D01*
Y-269750D01*
X4656340Y-1859650D01*
Y-2233140D01*
X4621500D01*
X2771080Y-4083560D01*
Y-4361630D01*
X2058680Y-5074030D01*
G37*
G36*
G01X1867450Y-521600D02*
G02X1850110Y-528790I-10160J-2D01*
G01X1778140Y-456820D01*
X1628380D01*
X852930Y-1232270D01*
Y-1301820D01*
X1521840Y-1970740D01*
X994370Y-2498210D01*
Y-2559960D01*
X1991340Y-3556930D01*
Y-4080310D01*
X1754610Y-4317040D01*
X1423370D01*
X1370200Y-4263870D01*
Y-3955510D01*
X308100Y-2893410D01*
Y-2779580D01*
X311780Y-2778520D01*
G03Y-2556420I-31740J111050D01*
G01X308100Y-2555360D01*
Y-2076880D01*
X-13520Y-1755260D01*
X-1694420D01*
X-2024620Y-2085460D01*
X-3944590D01*
X-4213950Y-1816100D01*
Y-1572870D01*
X-3883750Y-1242670D01*
X-3053570D01*
G02X-3043430Y-1253420I-2J-10159D01*
G03X-2812810I115310J-6670D01*
G02X-2802670Y-1242670I10142J591D01*
G01X-2502370D01*
X-1694420Y-434720D01*
Y929240D01*
X-2293980Y1528800D01*
Y1788400D01*
X-2288900Y1793480D01*
X-2287860D01*
X-2202450Y1878880D01*
G03X-2283550Y2067480I-78136J78138D01*
G02X-2293980Y2077630I-270J10156D01*
G01Y3674580D01*
X-1920360Y4048200D01*
X-1694420D01*
X-1433900Y3787680D01*
Y3344380D01*
X-1642420Y3135860D01*
Y2857920D01*
X-252330Y1467830D01*
X-225950D01*
X-225850Y1462850D01*
G03X-4890I110480J2190D01*
G01X-4790Y1467830D01*
X321100D01*
X497900Y1644630D01*
X748160D01*
X889470Y1785930D01*
G03X918540Y1890840I-78140J78135D01*
G02X928390Y1903460I9857J2461D01*
G01X967590D01*
G03X1044450Y2093350I0J110500D01*
G02X1051510Y2110810I7066J7300D01*
G01X3952520D01*
X4300140Y1763190D01*
Y1606930D01*
X4022070Y1328860D01*
X2907840D01*
Y1346540D01*
G03X2686840I-110500J0D01*
G01Y1328860D01*
X2614560D01*
X2195970Y910270D01*
X2142930Y963310D01*
G03X1986650Y807030I-78140J-78140D01*
G01X2007330Y786360D01*
Y784800D01*
X2038910Y753210D01*
X2016230Y730530D01*
X2012640Y733970D01*
G03X1825720Y654160I-76422J-79810D01*
G01Y407170D01*
X1784240Y365700D01*
G03X1862370Y177060I78136J-78138D01*
G01X1867450D01*
Y-521600D01*
G37*
%LPC*%
G75*
G36*
G01X1924770Y-2741110D02*
X1726070Y-2939810D01*
X1562730Y-2776470D01*
X1761430Y-2577770D01*
X1924770Y-2741110D01*
G37*
G36*
G01X1592430Y-2408770D02*
X1393730Y-2607470D01*
X1230390Y-2444130D01*
X1429090Y-2245430D01*
X1592430Y-2408770D01*
G37*
G36*
G01X2515470Y-2275370D02*
G03X2502640Y-2288200I-3179J-9651D01*
G02X2418450Y-2204010I-125480J-41290D01*
G03X2431280Y-2191180I3179J9651D01*
G02X2576990Y-2019350I125481J41289D01*
G03X2588410Y-2006870I1556J10041D01*
G02X2699780Y-2118240I147960J36590D01*
G03X2687300Y-2129660I-2439J-9864D01*
G02X2515470Y-2275370I-130541J-20229D01*
G37*
G36*
G01X81080Y2872890D02*
G02Y2749870I121090J-61510D01*
G03X63380Y2750610I-9058J-4604D01*
G02X-143760Y2772960I-98219J60771D01*
G03X-162930I-9585J-3376D01*
G02Y2849800I-108920J38420D01*
G03X-143760I9585J3376D01*
G02X63380Y2872150I108921J-38421D01*
G03X81080Y2872890I8642J5344D01*
G37*
G36*
G01X-2727640Y-159730D02*
G02X-2850660I-61510J-121090D01*
G03X-2849920Y-142030I-4604J9058D01*
G02X-2827570Y65110I60771J98219D01*
G03Y84280I-3376J9585D01*
G02X-2750730I38420J108920D01*
G03Y65110I3376J-9585D01*
G02X-2728380Y-142030I-38421J-108921D01*
G03X-2727640Y-159730I5344J-8642D01*
G37*
G36*
G01X2693490Y-177150D02*
G02X2570470I-61510J-121090D01*
G03X2571210Y-159450I-4604J9058D01*
G02X2593560Y47690I60771J98219D01*
G03Y66860I-3376J9585D01*
G02X2670400I38420J108920D01*
G03Y47690I3376J-9585D01*
G02X2692750Y-159450I-38421J-108921D01*
G03X2693490Y-177150I5344J-8642D01*
G37*
G36*
G01X67470Y-761150D02*
X-53300D01*
X-53690Y-760760D01*
X-883110D01*
X-884020Y-759850D01*
X-913780D01*
G02X-991920Y-727490I-8J110503D01*
G01X-1077320Y-642080D01*
Y-641550D01*
X-1097720Y-621150D01*
Y-592800D01*
X-1102820D01*
G02X-1110010Y-575460I-2J10160D01*
G01X-1097720Y-563170D01*
Y-278320D01*
X-1012320Y-192910D01*
G02X-874960Y-177760I78134J-78139D01*
G01X-871530Y-179940D01*
X-517530Y174060D01*
X-517680Y176350D01*
G02X-485230Y262020I110263J7215D01*
G03X-489820Y279060I-7159J7210D01*
G02X-572390Y385970I27927J106910D01*
G01Y506740D01*
X-259660Y819470D01*
G03X-266850Y836810I-7188J7180D01*
G01X-406770D01*
G02X-517060Y954200I0J110505D01*
G03X-527200Y964990I-10138J632D01*
G01X-527940D01*
G02Y1185990I0J110500D01*
G01X-407170D01*
X-406160Y1184980D01*
X81370D01*
X82570Y1183780D01*
X111800D01*
G02X202890Y1010720I0J-110503D01*
G02X219840Y970920I-91224J-62360D01*
G03X238380Y967580I9945J2075D01*
G02X331890Y1019200I93510J-58887D01*
G01X806120D01*
X858770Y1071860D01*
G02X883710Y1090570I78120J-78155D01*
G01X886340Y1092020D01*
Y1098400D01*
G02X902660Y1106480I10159J1D01*
G01X906190Y1103790D01*
X1010540Y1208130D01*
X1067740D01*
X1083880Y1224270D01*
G02X1151790Y1253400I70396J-70388D01*
G03X1156740Y1258480I-130J5078D01*
G01Y1377600D01*
G02X1377740I110500J0D01*
G01Y228920D01*
X971760Y-177070D01*
G02X812920Y-174410I-78134J78139D01*
G03X795340Y-181350I-7420J-6942D01*
G01Y-453190D01*
X587350Y-661180D01*
X177560D01*
X176960Y-665570D01*
G02X67470Y-761150I-109490J14922D01*
G37*
G36*
G01X1833770Y1468860D02*
X1616410Y1686230D01*
X1563250D01*
G02Y1907230I0J110500D01*
G01X1707950D01*
X1990050Y1625140D01*
G02X1833770Y1468860I-78140J-78140D01*
G37*
G36*
G01X1288830Y-2076430D02*
X1061390Y-2303870D01*
X869310Y-2111790D01*
X1096750Y-1884350D01*
X1288830Y-2076430D01*
G37*
G36*
G01X-1316420Y1632360D02*
G03X-1310010Y1615040I7180J-7189D01*
G02X-1433890Y1491160I-8710J-115170D01*
G03X-1451210Y1497570I-10131J-770D01*
G01X-1508250Y1440520D01*
X-1508590Y1439150D01*
G02X-1703960Y1450160I-96650J23863D01*
G02X-1683380Y1577950I98719J49654D01*
G01X-1428060Y1833270D01*
G02X-1271780Y1676990I78140J-78140D01*
G01X-1316420Y1632360D01*
G37*
G54D23*
X-1451030Y3031570D03*
X-1203540Y2784080D03*
X-3175610Y-1507580D03*
X-1318720Y475870D03*
Y731870D03*
Y987870D03*
Y1243870D03*
X1367830Y-3356830D03*
X1120340Y-3109340D03*
G54D24*
X2849210Y-3270020D03*
G54D21*
X-4283370Y-2192840D03*
X-2283570Y4210560D03*
X2106390Y-4433260D03*
X3298220Y-2821010D03*
X4418950Y2125360D03*
X-3834360Y-1743830D03*
X-1834560Y3761550D03*
X1657380Y-3984250D03*
X3969940Y1676350D03*
G54D22*
X-2278070Y1075850D03*
X-799410Y-1990540D03*
X2266850Y2415640D03*
X-1924520Y1429410D03*
X-799410Y-1490540D03*
X2266850Y1915640D03*
%LPD*%
G75*
G36*
G01X1658740Y-533440D02*
X2107750Y-982450D01*
X1389330Y-1700870D01*
X940320Y-1251860D01*
X1658740Y-533440D01*
G37*
G36*
G01D02*
X2107750Y-982450D01*
X1389330Y-1700870D01*
X940320Y-1251860D01*
X1658740Y-533440D01*
G37*
G54D10*
X-6362500Y-1512490D03*
Y1512490D03*
X-3425010Y0D03*
X-1512490Y-6362500D03*
Y6362500D03*
X0Y-3425010D03*
Y3425010D03*
X1512490Y-6362500D03*
Y6362500D03*
X3425010Y0D03*
X6362500Y-1512490D03*
Y1512490D03*
G54D20*
G01X-4283370Y-2358740D02*
Y-2192840D01*
G01D02*
Y-2026940D01*
G01X-4449270Y-2192840D02*
X-4283370D01*
G01D02*
X-4117470D01*
G01X-4000260Y-1743830D02*
X-3834360D01*
G01Y-1909730D02*
Y-1743830D01*
G01D02*
Y-1577930D01*
G01Y-1743830D02*
X-3668460D01*
G01X-2418970Y1075850D02*
X-2278070D01*
G01X-2449470Y4210560D02*
X-2283570D01*
G01X-2278070Y934950D02*
Y1075850D01*
G01D02*
Y1216750D01*
G01Y1075850D02*
X-2137170D01*
G01X-1924520Y1288510D02*
Y1429410D01*
G01D02*
Y1570310D01*
G01X-2065420Y1429410D02*
X-1924520D01*
G01D02*
X-1783620D01*
G01X-1834560Y3595650D02*
Y3761550D01*
G01D02*
Y3927450D01*
G01X-2000460Y3761550D02*
X-1834560D01*
G01D02*
X-1668660D01*
G01X-2283570Y4044660D02*
Y4210560D01*
G01D02*
Y4376460D01*
G01Y4210560D02*
X-2117670D01*
G01X-940310Y-1990540D02*
X-799410D01*
G01X-940310Y-1490540D02*
X-799410D01*
G01Y-2131440D02*
Y-1990540D01*
G01D02*
Y-1849640D01*
G01Y-1990540D02*
X-658510D01*
G01X-799410Y-1631440D02*
Y-1490540D01*
G01D02*
Y-1349640D01*
G01Y-1490540D02*
X-658510D01*
G01X2106390Y-4599160D02*
Y-4433260D01*
G01D02*
Y-4267360D01*
G01X1940490Y-4433260D02*
X2106390D01*
G01D02*
X2272290D01*
G01X1657380Y-4150150D02*
Y-3984250D01*
G01D02*
Y-3818350D01*
G01X1491480Y-3984250D02*
X1657380D01*
G01D02*
X1823280D01*
G01X2125950Y1915640D02*
X2266850D01*
G01X2125950Y2415640D02*
X2266850D01*
G01Y1774740D02*
Y1915640D01*
G01D02*
Y2056540D01*
G01Y1915640D02*
X2407750D01*
G01X2266850Y2274740D02*
Y2415640D01*
G01D02*
Y2556540D01*
G01Y2415640D02*
X2407750D01*
G01X3298220Y-2986910D02*
Y-2821010D01*
G01D02*
Y-2655110D01*
G01X3132320Y-2821010D02*
X3298220D01*
G01D02*
X3464120D01*
G01X4418950Y1959460D02*
Y2125360D01*
G01D02*
Y2291260D01*
G01X4253050Y2125360D02*
X4418950D01*
G01D02*
X4584850D01*
G01X3969940Y1510450D02*
Y1676350D01*
G01D02*
Y1842250D01*
G01X3804040Y1676350D02*
X3969940D01*
G01D02*
X4135840D01*
G54D11*
X-3834360Y-1743830D03*
X-4283370Y-2192840D03*
X-2283570Y4210560D03*
X-1834560Y3761550D03*
X1657380Y-3984250D03*
X2106390Y-4433260D03*
X2849210Y-3270020D03*
X3298220Y-2821010D03*
X4418950Y2125360D03*
X3969940Y1676350D03*
G54D12*
X-3175610Y-1507580D03*
X-2928120Y-1260090D03*
X-2789150Y-280820D03*
Y-43810D03*
Y193200D03*
X-2278070Y1075850D03*
X-1924520Y1429410D03*
X-799410Y-1990540D03*
Y-1490540D03*
X-1318720Y475870D03*
Y731870D03*
Y987870D03*
Y1243870D03*
Y1499870D03*
X-1451030Y3031570D03*
X-1203540Y2784080D03*
X-193980Y-2667470D03*
X-271850Y2811380D03*
X-34840D03*
X280040Y-2667470D03*
X43030D03*
X202170Y2811380D03*
X1367830Y-3356830D03*
X1120340Y-3109340D03*
X2266850Y1915640D03*
Y2415640D03*
X2631980Y-298240D03*
Y-61230D03*
Y175780D03*
X3066440Y946660D03*
X3313930Y1194150D03*
G54D13*
X-2408900Y2079610D03*
X-2630420Y1855880D03*
X-2541370Y1697280D03*
X-1801470Y475870D03*
X-1605240Y1463020D03*
X-2280590Y1957020D03*
X-913780Y-649350D03*
X-934180Y-271050D03*
X-1349920Y1755130D03*
X-630240Y-650260D03*
X-337870Y-202020D03*
X-275730Y327210D03*
X-461890Y385970D03*
X-407420Y183560D03*
X-115370Y1465040D03*
X-527940Y1075490D03*
X-406770Y947310D03*
X67470Y-650650D03*
X429260Y-293930D03*
X34820Y-440440D03*
X246290Y-273560D03*
X461240Y231010D03*
X552500Y102960D03*
X331890Y908700D03*
X111800Y1073280D03*
X111670Y948350D03*
X53170Y1755130D03*
X199940Y1935050D03*
X893620Y-98930D03*
X920660Y143130D03*
X936910Y993720D03*
X1154270Y1153880D03*
X1267240Y1377600D03*
X811330Y1864070D03*
X967590Y2013960D03*
X1862380Y287560D03*
X1936220Y654160D03*
X2064790Y885170D03*
X1911910Y1547000D03*
X1563250Y1796730D03*
X2510690Y-2833740D03*
X2328300Y620100D03*
X2797340Y1346540D03*
G54D14*
X1411410Y-2426450D03*
X1079070Y-2094110D03*
X1743750Y-2758790D03*
G54D15*
X1524040Y-1117160D03*
G54D16*
X2377160Y-2329490D03*
X2736370Y-1970280D03*
X2556760Y-2149890D03*
G54D17*
G01X-2789150Y-421720D02*
Y-280820D01*
G01X-2930050D02*
X-2789150D01*
G01D02*
X-2648250D01*
G01X-193980Y-2808370D02*
Y-2667470D01*
G01D02*
Y-2526570D01*
G01X-334880Y-2667470D02*
X-193980D01*
G01X202170Y2670480D02*
Y2811380D01*
G01D02*
Y2952280D01*
G01Y2811380D02*
X343070D01*
G01X2631980Y-439140D02*
Y-298240D01*
G01X2491080D02*
X2631980D01*
G01D02*
X2772880D01*
G54D18*
G01X-2408900Y2079610D02*
X-2577380Y1911130D01*
Y1908920D01*
X-2630420Y1855880D01*
G01X-2541370Y1697280D02*
X-2334670Y1903980D01*
X-2333630D01*
X-2280590Y1957020D01*
G01X-1349920Y1755130D02*
X-1605240Y1499810D01*
G01X-630240Y-650260D02*
X-837340D01*
X-838250Y-649350D01*
X-913780D01*
G01D02*
X-966820Y-596310D01*
Y-595780D01*
X-987220Y-575380D01*
Y-324090D01*
X-934180Y-271050D01*
G01X-630240Y-650260D02*
X-7920D01*
X-7530Y-650650D01*
X67470D01*
G01X-337870Y-202020D02*
X-37950D01*
X207620Y-447590D01*
X477340D01*
X585520Y-339410D01*
Y-83850D01*
X410670Y91000D01*
Y180440D01*
X461240Y231010D01*
G01X429260Y-293930D02*
X-191880Y327210D01*
X-275730D01*
G01X-461890Y385970D02*
Y460970D01*
X-192780Y730080D01*
X333710D01*
X920660Y143130D01*
G01X246290Y-273560D02*
X-210830Y183560D01*
X-407420D01*
G01X111800Y1073280D02*
X36800D01*
X35600Y1074480D01*
X-451930D01*
X-452940Y1075490D01*
X-527940D01*
G01X-406770Y947310D02*
X35630D01*
X36670Y948350D01*
X111670D01*
G01X-115370Y1465040D02*
Y1569680D01*
G01X552500Y102960D02*
X684840Y-29380D01*
Y-407420D01*
X541580Y-550680D01*
X145060D01*
X34820Y-440440D01*
G01X331890Y908700D02*
X851890D01*
X936910Y993720D01*
G01X53170Y1755130D02*
X702390D01*
X811330Y1864070D01*
G01X967590Y2013960D02*
X278850D01*
X199940Y1935050D01*
G01X893620Y-98930D02*
X1267240Y274690D01*
Y1377600D01*
G01X1936220Y654160D02*
Y361400D01*
X1862380Y287560D01*
G01X2064790Y885170D02*
X2117830Y832130D01*
Y830570D01*
X2328300Y620100D01*
G01X1563250Y1796730D02*
X1662180D01*
X1911910Y1547000D01*
G01X2797340Y1346540D02*
Y1215760D01*
X3066440Y946660D01*
G54D19*
G01X-1605240Y1499810D02*
Y1463020D01*
G01X979440Y-1994480D02*
X1079070Y-2094110D01*
G01D02*
X1178700Y-2193740D01*
G01X961760Y-2211420D02*
X1079070Y-2094110D01*
G01D02*
X1196380Y-1976800D01*
G01X1154270Y1153880D02*
X1108970Y1108580D01*
X1051770D01*
X936910Y993720D01*
G01X2736370Y-2127780D02*
Y-1970280D01*
G01D02*
Y-1812780D01*
G01X2578870Y-1970280D02*
X2736370D01*
G01D02*
X2893870D01*
M02*
