G04 ================== begin FILE IDENTIFICATION RECORD ==================*
G04 Layout Name:  C:/USERS/KEVIN/SRDEV/ORCADQUADCOPTER1/allegro/QUADCOPTER1brd3_4.brd*
G04 Film Name:    motor-PROMASK_BOTTOM*
G04 File Format:  Gerber RS274X*
G04 File Origin:  Cadence Allegro 16.6-P004*
G04 Origin Date:  Mon Jun 22 12:27:35 2015*
G04 *
G04 Layer:  VIA CLASS/SOLDERMASK_BOTTOM*
G04 Layer:  PIN/SOLDERMASK_BOTTOM*
G04 Layer:  PACKAGE GEOMETRY/SOLDERMASK_BOTTOM*
G04 *
G04 Offset:    (0.0000 0.0000)*
G04 Mirror:    No*
G04 Mode:      Positive*
G04 Rotation:  0*
G04 FullContactRelief:  No*
G04 UndefLineWidth:     0.2000*
G04 ================== end FILE IDENTIFICATION RECORD ====================*
%FSLAX25Y25*MOMM*%
%IR0*IPPOS*OFA0.00000B0.00000*MIA0B0*SFA1.00000B1.00000*%
%ADD18C,.62*%
%AMMACRO14*
21,1,1.3,1.9,0.0,0.0,45.*%
%ADD14MACRO14*%
%ADD13C,1.*%
%ADD10C,2.*%
%ADD17C,1.2*%
%ADD16C,1.7*%
%ADD11C,4.3002*%
%ADD20C,3.7*%
%ADD19C,2.413*%
%ADD12C,1.905*%
%AMMACRO15*
21,1,1.905,1.905,0.0,0.0,45.*%
%ADD15MACRO15*%
%LPD*%
G75*
G54D10*
X6509610Y12580000D03*
X6689210Y12759610D03*
X6868820Y12939210D03*
X7048420Y13118820D03*
X7228030Y13298420D03*
G54D20*
X17770000Y11440000D03*
Y11940000D03*
Y12440000D03*
G54D11*
X7649010Y10750990D03*
X7200000Y11200000D03*
G54D12*
X7772800Y12329570D03*
X8509180Y11952400D03*
X7952400Y12509180D03*
X8132010Y12688780D03*
X8311610Y12868390D03*
X8491220Y13047990D03*
X8868390Y12311610D03*
X8688780Y12132010D03*
X9227600Y12670820D03*
X9047990Y12491220D03*
X8826000Y13810000D03*
X9080000D03*
X8670820Y13227600D03*
X8850430Y13407200D03*
X8826000Y14070000D03*
X9080000D03*
X9407200Y12850430D03*
G54D13*
X7630000Y12980000D03*
X7700000Y12010000D03*
X8800000Y10210000D03*
X8829260Y10762680D03*
X8560000Y11600000D03*
X9520000Y12150000D03*
X9200000Y11640000D03*
X9240000Y11900000D03*
X9640000Y12630000D03*
X9590000Y12390000D03*
X10470000Y10030000D03*
X10520000Y10160000D03*
X10050000Y10760000D03*
X10200000Y10820000D03*
X11270000Y10530000D03*
X11340000Y13830000D03*
X11680000Y10260000D03*
X12070000Y10970000D03*
X11560000Y12080000D03*
X11570000Y13590000D03*
G54D14*
X8263930Y12233930D03*
X8476070Y12446070D03*
G54D15*
X8329570Y11772800D03*
G54D16*
X7762510Y13412510D03*
X8010000Y13660000D03*
G54D17*
X10260000Y9780000D03*
X10510000Y11250000D03*
X10610000Y12490000D03*
X10760000Y9780000D03*
X11010000Y11250000D03*
X11110000Y12490000D03*
X10740000Y13510000D03*
X11240000D03*
G54D18*
X10310000Y13070000D03*
X11100000Y12740000D03*
X11050000Y13090000D03*
X14310000Y12650000D03*
G54D19*
X12000000Y10012000D03*
Y10520000D03*
Y10266000D03*
Y12200000D03*
Y11946000D03*
Y11692000D03*
Y13820000D03*
Y13566000D03*
Y13312000D03*
X14680000Y10012000D03*
Y10520000D03*
Y10266000D03*
X14670000Y12200000D03*
Y11946000D03*
Y11692000D03*
Y13830000D03*
Y13576000D03*
Y13322000D03*
M02*
