G04 ================== begin FILE IDENTIFICATION RECORD ==================*
G04 Layout Name:  C:/USERS/KEVIN/SRDEV/ORCADQUADCOPTER1/allegro/QUADCOPTER1brd3_4.brd*
G04 Film Name:    motor-BOTTOM*
G04 File Format:  Gerber RS274X*
G04 File Origin:  Cadence Allegro 16.6-P004*
G04 Origin Date:  Mon Jun 22 12:27:35 2015*
G04 *
G04 Layer:  VIA CLASS/BOTTOM*
G04 Layer:  PIN/BOTTOM*
G04 Layer:  ETCH/BOTTOM*
G04 *
G04 Offset:    (0.0000 0.0000)*
G04 Mirror:    No*
G04 Mode:      Positive*
G04 Rotation:  0*
G04 FullContactRelief:  No*
G04 UndefLineWidth:     0.0000*
G04 ================== end FILE IDENTIFICATION RECORD ====================*
%FSLAX25Y25*MOMM*%
%IR0*IPPOS*OFA0.00000B0.00000*MIA0B0*SFA1.00000B1.00000*%
%ADD18C,.6*%
%ADD21C,.7*%
%AMMACRO15*
21,1,1.2,1.8,0.0,0.0,45.*%
%ADD15MACRO15*%
%ADD20R,1.2X1.9*%
%ADD14C,1.*%
%ADD11C,2.*%
%ADD17C,1.5*%
%ADD19C,2.032*%
%ADD22C,3.6*%
%ADD12C,4.0005*%
%ADD13C,1.524*%
%ADD10C,6.9*%
%AMMACRO16*
21,1,1.524,1.524,0.0,0.0,45.*%
%ADD16MACRO16*%
%ADD23C,.781*%
%ADD24C,1.2*%
%ADD27C,2.01*%
%ADD28R,2.21X2.91*%
%ADD26C,2.4164*%
%ADD25C,5.417*%
G75*
%LPD*%
G75*
G36*
G01X8240000Y9400000D02*
X7040000Y10600000D01*
X7660000Y11220000D01*
Y11310000D01*
X7400000Y11570000D01*
Y12923210D01*
G02X7417340Y12930390I10158J-4D01*
G01X7826270Y12521460D01*
X7826090Y12519130D01*
G03X7828630Y12482070I126310J-9960D01*
G02X7815740Y12470180I-9923J-2175D01*
G03X7818930Y12189970I-42937J-140612D01*
G02X7829300Y12173140I3186J-9647D01*
G01X7752150Y12096000D01*
X7748800Y12097860D01*
G03X7760170Y11929500I-48799J-87859D01*
G01X7813340D01*
X8112720Y12228870D01*
X8261680Y12079910D01*
X8253250Y11875660D01*
X8150390Y11772800D01*
X8329570Y11593620D01*
X8462160Y11726210D01*
G02X8479500Y11719020I7180J-7188D01*
G01Y11660170D01*
G03X8544020Y11500780I80499J-60168D01*
G01X8545640Y11500520D01*
X8748760Y11297400D01*
Y10822850D01*
G03X8909760I80500J-60170D01*
G01Y11364080D01*
X8659480Y11614360D01*
X8659220Y11615980D01*
G03X8640500Y11660170I-99223J-15973D01*
G01Y11716660D01*
X9527390Y12603550D01*
G02X9544260Y12599450I7187J-7184D01*
G03X9739220Y12614020I95741J30554D01*
G01X9739480Y12615640D01*
X10192190Y13068340D01*
G02X10209500Y13061970I7184J-7182D01*
G03X10318030Y13170500I100500J8030D01*
G02X10311660Y13187810I812J10126D01*
G01X10590480Y13466640D01*
Y13741200D01*
X10598780Y13749500D01*
X11279830D01*
G03X11304350Y13736030I60179J80494D01*
G02X11307930Y13719350I-3602J-9497D01*
G01X11258580Y13670000D01*
X11699080Y13229500D01*
X11872220D01*
G03X12127780I127780J82500D01*
G01X12578950D01*
G02X12588620Y13216220I1J-10160D01*
G03X12720000Y13120640I81381J-26222D01*
G03X12820000I50000J69360D01*
G03X12920000I50000J69360D01*
G03X13020000I50000J69360D01*
G03X13120000I50000J69360D01*
G03X13220000I50000J69360D01*
G03X13320000I50000J69360D01*
G03X13420000I50000J69360D01*
G03X13520000I50000J69360D01*
G03X13620000I50000J69360D01*
G03X13751380Y13216220I49999J69358D01*
G02X13761050Y13229500I9669J3120D01*
G01X14280920D01*
X14450920Y13399500D01*
X14500290D01*
G02X14509740Y13385590I5J-10161D01*
G03X14829920Y13257540I160263J-63591D01*
G02X14849500Y13253740I9421J-3801D01*
G01Y12690500D01*
X14379570D01*
G03X14240430I-69570J-40500D01*
G01X11969080D01*
X11358580Y12080000D01*
X11389500Y12049080D01*
Y12032640D01*
X11388790Y12031440D01*
G03X11389500Y11939190I77110J-45534D01*
G01Y11769500D01*
X11439080D01*
X11769500Y11439080D01*
Y11359500D01*
X14170500D01*
Y11409080D01*
X14481430Y11720010D01*
G02X14498710Y11711670I7185J-7184D01*
G03X14820950Y11608670I171294J-19670D01*
G02X14840000Y11603760I8891J-4913D01*
G01Y11410500D01*
X14809500D01*
Y10910500D01*
X12169050D01*
G02X12159960Y10925190I2J10159D01*
G03X12009830Y11050500I-89958J44812D01*
G01X11906660D01*
X11387510Y10531360D01*
G02X11370200Y10537760I-7182J7184D01*
G03X11170780Y10545980I-100199J-7762D01*
G01X11170520Y10544360D01*
X10866660Y10240500D01*
X10580170D01*
G03X10427370Y10121010I-60171J-80498D01*
G03X10530170Y9949500I42633J-91010D01*
G01X11033340D01*
X11161210Y10077370D01*
X11169080Y10069500D01*
X11489080D01*
X11659080Y9899500D01*
X11897640D01*
G03X12102360I102360J112500D01*
G01X12584370D01*
X12584660Y9894730D01*
G03X12720000Y9830640I85340J5268D01*
G03X12820000I50000J69360D01*
G03X12920000I50000J69360D01*
G03X13020000I50000J69360D01*
G03X13120000I50000J69360D01*
G03X13220000I50000J69360D01*
G03X13320000I50000J69360D01*
G03X13420000I50000J69360D01*
G03X13520000I50000J69360D01*
G03X13620000I50000J69360D01*
G03X13755340Y9894730I50000J69358D01*
G01X13755630Y9899500D01*
X14330920D01*
X14495960Y10064540D01*
G02X14512990Y10054830I7189J-7181D01*
G03X14825710Y9919830I167015J-42819D01*
G02X14844460Y9914390I8588J-5431D01*
G01Y9414120D01*
X14849910Y9408670D01*
G02X14846320Y9400000I-3593J-3591D01*
G01X8240000D01*
G37*
G36*
G01X14894960Y10015040D02*
X14790650Y10119350D01*
G02X14791280Y10134300I7183J7186D01*
G03X14789770Y10398960I-111281J131699D01*
G02X14788960Y10413880I6472J7833D01*
G03X14571040I-108960J106120D01*
G02X14570230Y10398960I-7282J-7087D01*
G03X14546730Y10156610I109772J-132959D01*
G02X14538870Y10140000I-7853J-6449D01*
G01X14500000D01*
X14310000Y9950000D01*
X13756970D01*
G02X13747730Y9964390I-2J10160D01*
G03X13739360Y10050000I-77730J35615D01*
G03X13755410Y10103880I-69362J49992D01*
G02X13765560Y10114500I10150J460D01*
G01X13940500D01*
Y10405500D01*
X13755440D01*
X13754910Y10409990D01*
G03X13739360Y10450000I-84915J-9976D01*
G03Y10550000I-69360J50000D01*
G03Y10650000I-69360J50000D01*
G03X13620000Y10769360I-69360J50000D01*
G03X13520000I-50000J-69360D01*
G03X13420000I-50000J-69360D01*
G03X13320000I-50000J-69360D01*
G03X13220000I-50000J-69360D01*
G03X13120000I-50000J-69360D01*
G03X13020000I-50000J-69360D01*
G03X12920000I-50000J-69360D01*
G03X12820000I-50000J-69360D01*
G03X12720000I-50000J-69360D01*
G03X12600640Y10650000I-50000J-69360D01*
G03Y10550000I69360J-50000D01*
G03Y10450000I69360J-50000D01*
G03Y10350000I69360J-50000D01*
G03Y10250000I69360J-50000D01*
G03Y10150000I69360J-50000D01*
G03Y10050000I69360J-50000D01*
G03X12592270Y9964390I69360J-49995D01*
G02X12583030Y9950000I-9238J-4230D01*
G01X12153760D01*
G02X12144130Y9963410I-4J10160D01*
G03X12108960Y10118120I-144130J48588D01*
G02X12109770Y10133040I7282J7087D01*
G03Y10398960I-109770J132960D01*
G02X12108960Y10413880I6472J7833D01*
G03X11891040I-108960J106120D01*
G02X11890230Y10398960I-7282J-7087D01*
G03Y10133040I109770J-132960D01*
G02X11891040Y10118120I-6472J-7833D01*
G03X11855870Y9963410I108960J-106122D01*
G02X11846240Y9950000I-9626J-3250D01*
G01X11680000D01*
X11510000Y10120000D01*
X11228370D01*
G02X11221190Y10137340I4J10158D01*
G01X11943840Y10860000D01*
X16730000D01*
X17550000Y11680000D01*
X17646370D01*
G02X17651180Y11660890I2J-10160D01*
G03X17888820I118820J-220890D01*
G02X17893630Y11680000I4808J8950D01*
G01X18110000D01*
X18200000Y11590000D01*
Y10870000D01*
X16750000Y9420000D01*
X14910000D01*
X14894960Y9435040D01*
Y10015040D01*
G37*
G36*
G01X17911420Y12220000D02*
X17904510Y12226910D01*
X17908460Y12230860D01*
X17908880Y12231140D01*
G03X17597380Y12258030I-138881J208860D01*
G02X17590390Y12240500I-6993J-7370D01*
G01X17510920D01*
X17060920Y12690500D01*
X17029500D01*
X17020000Y12700000D01*
X17010500Y12690500D01*
X14900000D01*
Y13420000D01*
X14921330Y13441330D01*
G03X14917740Y13450000I-3594J3590D01*
G01X14811130D01*
G02X14803270Y13466610I-7J10161D01*
G03X14779770Y13708960I-133272J109391D01*
G02X14778960Y13723880I6472J7833D01*
G03X14561040I-108960J106120D01*
G02X14560230Y13708960I-7282J-7087D01*
G03X14536730Y13466610I109772J-132959D01*
G02X14528870Y13450000I-7853J-6449D01*
G01X14430000D01*
X14260000Y13280000D01*
X13765660D01*
G02X13755500Y13290140I0J10160D01*
G03X13739360Y13340000I-85501J-135D01*
G03X13752690Y13411760I-69358J50002D01*
G02X13762510Y13424500I9824J2582D01*
G01X13940500D01*
Y13715500D01*
X13751610D01*
G03X13739360Y13740000I-81612J-25494D01*
G03Y13840000I-69360J50000D01*
G03Y13940000I-69360J50000D01*
G03X13620000Y14059360I-69360J50000D01*
G03X13520000I-50000J-69360D01*
G03X13420000I-50000J-69360D01*
G03X13320000I-50000J-69360D01*
G03X13220000I-50000J-69360D01*
G03X13120000I-50000J-69360D01*
G03X13020000I-50000J-69360D01*
G03X12920000I-50000J-69360D01*
G03X12820000I-50000J-69360D01*
G03X12720000I-50000J-69360D01*
G03X12600640Y13940000I-50000J-69360D01*
G03Y13840000I69360J-50000D01*
G03Y13740000I69360J-50000D01*
G03Y13640000I69360J-50000D01*
G03Y13540000I69360J-50000D01*
G03Y13440000I69360J-50000D01*
G03Y13340000I69360J-50000D01*
G03X12584500Y13290140I69361J-49995D01*
G02X12574340Y13280000I-10160J20D01*
G01X12160780D01*
G02X12150720Y13291530I5J10158D01*
G03X12108960Y13418120I-150718J20464D01*
G02X12109770Y13433040I7282J7087D01*
G03Y13698960I-109770J132960D01*
G02X12108960Y13713880I6472J7833D01*
G03X11891040I-108960J106120D01*
G02X11890230Y13698960I-7282J-7087D01*
G03Y13433040I109770J-132960D01*
G02X11891040Y13418120I-6472J-7833D01*
G03X11849280Y13291530I108958J-106126D01*
G02X11839220Y13280000I-10065J-1372D01*
G01X11720000D01*
X11547230Y13452770D01*
G02X11555630Y13470040I7187J7182D01*
G03X11450040Y13575630I14370J119960D01*
G02X11432770Y13567230I-10088J-1213D01*
G01X11330000Y13670000D01*
X11990000Y14330000D01*
X16790000D01*
X18150000Y12970000D01*
Y12240000D01*
X18130000Y12220000D01*
X17911420D01*
G37*
G36*
G01X11458680Y12014180D02*
G03X11573410Y12200070I101319J65817D01*
G02X11567350Y12217350I1128J10098D01*
G01X11990000Y12640000D01*
X14229500D01*
Y12526660D01*
X14521800Y12234350D01*
X14521230Y12231650D01*
G03X14561040Y12093880I148770J-31648D01*
G02X14560230Y12078960I-7282J-7087D01*
G03X14536730Y11836610I109772J-132959D01*
G02X14528870Y11820000I-7853J-6449D01*
G01X14510000D01*
X14120000Y11430000D01*
Y11410000D01*
X11820000D01*
Y11460000D01*
X11460000Y11820000D01*
X11440000D01*
Y12008650D01*
G02X11458680Y12014180I10159J-1D01*
G37*
G36*
G01X14778960Y11798120D02*
G02X14779770Y11813040I7282J7087D01*
G03Y12078960I-109770J132960D01*
G02X14778960Y12093880I6472J7833D01*
G03X14638350Y12348770I-108962J106120D01*
G01X14635650Y12348200D01*
X14390500Y12593340D01*
Y12640000D01*
X17040000D01*
X17448870Y12231130D01*
G03X17580580Y12117000I135099J22844D01*
G02X17584220Y12108500I-123J-5082D01*
G03X17602050Y11753710I185782J-168507D01*
G02X17594300Y11736050I-6800J-7546D01*
G03X17548740Y11730770I-10336J-110019D01*
G01X17547960Y11730500D01*
X17529080D01*
X16728580Y10930000D01*
X15630000D01*
X15620000Y10920000D01*
X14860000D01*
Y11360000D01*
X14900000D01*
X14910000Y11370000D01*
X14900000Y11380000D01*
Y11660000D01*
X14811030Y11748970D01*
G03X14778960Y11798120I-141024J-56979D01*
G37*
%LPC*%
G75*
G36*
G01X9773340Y12069500D02*
X9580170D01*
G02Y12230500I-60170J80500D01*
G01X9706660D01*
X9768310Y12292160D01*
G03X9761130Y12309500I-7184J7182D01*
G01X9650170D01*
G02Y12470500I-60170J80500D01*
G01X9786660D01*
X10266660Y12950500D01*
X10796660D01*
X10993080Y13146920D01*
G02X11106920Y13033080I56920J-56920D01*
G01X10911690Y12837840D01*
G03X10918870Y12820500I7184J-7182D01*
G01X11100000D01*
G02Y12659500I0J-80500D01*
G01X10363340D01*
X9773340Y12069500D01*
G37*
G36*
G01X9950520Y10745740D02*
X9950280Y10747360D01*
X9183920Y11540780D01*
X9182300Y11541070D01*
G02X9156460Y11730580I17699J98930D01*
G03X9159500Y11746650I-4405J9156D01*
G01Y11839830D01*
G02X9321460Y11841140I80499J60169D01*
G01X9320500Y11839810D01*
Y11813340D01*
X10214360Y10919480D01*
X10215980Y10919220D01*
G02X10157400Y10728980I-15973J-99221D01*
G03X10143630Y10723470I-4305J-9203D01*
G02X10021120Y10663740I-93627J36531D01*
G03X10009730Y10648400I-2918J-9732D01*
G02X9934540Y10732710I-329740J-218388D01*
G03X9951080Y10742270I6539J7776D01*
G02X9950520Y10745740I98919J17744D01*
G37*
G36*
G01X15400000Y9790640D02*
G02X15300000I-50000J69360D01*
G02X15180640Y9910000I-50000J69360D01*
G02Y10010000I69360J50000D01*
G02Y10110000I69360J50000D01*
G02Y10210000I69360J50000D01*
G02Y10310000I69360J50000D01*
G02Y10410000I69360J50000D01*
G02Y10510000I69360J50000D01*
G02Y10610000I69360J50000D01*
G02X15300000Y10729360I69360J50000D01*
G02X15400000I50000J-69360D01*
G02X15500000I50000J-69360D01*
G02X15600000I50000J-69360D01*
G02X15700000I50000J-69360D01*
G02X15800000I50000J-69360D01*
G02X15900000I50000J-69360D01*
G02X16000000I50000J-69360D01*
G02X16100000I50000J-69360D01*
G02X16200000I50000J-69360D01*
G02X16319360Y10610000I50000J-69360D01*
G02Y10510000I-69360J-50000D01*
G02Y10410000I-69360J-50000D01*
G02Y10310000I-69360J-50000D01*
G02Y10210000I-69360J-50000D01*
G02Y10110000I-69360J-50000D01*
G02Y10010000I-69360J-50000D01*
G02Y9910000I-69360J-50000D01*
G02X16200000Y9790640I-69360J-50000D01*
G02X16100000I-50000J69360D01*
G02X16000000I-50000J69360D01*
G02X15900000I-50000J69360D01*
G02X15800000I-50000J69360D01*
G02X15700000I-50000J69360D01*
G02X15600000I-50000J69360D01*
G02X15500000I-50000J69360D01*
G02X15400000I-50000J69360D01*
G37*
G36*
G01X15430000Y13110640D02*
G02X15330000I-50000J69360D01*
G02X15210640Y13230000I-50000J69360D01*
G02Y13330000I69360J50000D01*
G02Y13430000I69360J50000D01*
G02Y13530000I69360J50000D01*
G02Y13630000I69360J50000D01*
G02Y13730000I69360J50000D01*
G02Y13830000I69360J50000D01*
G02Y13930000I69360J50000D01*
G02X15330000Y14049360I69360J50000D01*
G02X15430000I50000J-69360D01*
G02X15530000I50000J-69360D01*
G02X15630000I50000J-69360D01*
G02X15730000I50000J-69360D01*
G02X15830000I50000J-69360D01*
G02X15930000I50000J-69360D01*
G02X16030000I50000J-69360D01*
G02X16130000I50000J-69360D01*
G02X16230000I50000J-69360D01*
G02X16349360Y13930000I50000J-69360D01*
G02Y13830000I-69360J-50000D01*
G02Y13730000I-69360J-50000D01*
G02Y13630000I-69360J-50000D01*
G02Y13530000I-69360J-50000D01*
G02Y13430000I-69360J-50000D01*
G02Y13330000I-69360J-50000D01*
G02Y13230000I-69360J-50000D01*
G02X16230000Y13110640I-69360J-50000D01*
G02X16130000I-50000J69360D01*
G02X16030000I-50000J69360D01*
G02X15930000I-50000J69360D01*
G02X15830000I-50000J69360D01*
G02X15730000I-50000J69360D01*
G02X15630000I-50000J69360D01*
G02X15530000I-50000J69360D01*
G02X15430000I-50000J69360D01*
G37*
G36*
G01X12109770Y11813040D02*
G03X12108960Y11798120I6472J-7833D01*
G02X11891040I-108960J-106120D01*
G03X11890230Y11813040I-7282J7087D01*
G02Y12078960I109770J132960D01*
G03X11891040Y12093880I-6472J7833D01*
G02X12108960I108960J106120D01*
G03X12109770Y12078960I7282J-7087D01*
G02Y11813040I-109770J-132960D01*
G37*
G36*
G01X12740000Y11490640D02*
G02X12640000I-50000J69360D01*
G02X12520640Y11610000I-50000J69360D01*
G02Y11710000I69360J50000D01*
G02Y11810000I69360J50000D01*
G02Y11910000I69360J50000D01*
G02Y12010000I69360J50000D01*
G02Y12110000I69360J50000D01*
G02Y12210000I69360J50000D01*
G02Y12310000I69360J50000D01*
G02X12640000Y12429360I69360J50000D01*
G02X12740000I50000J-69360D01*
G02X12840000I50000J-69360D01*
G02X12940000I50000J-69360D01*
G02X13040000I50000J-69360D01*
G02X13140000I50000J-69360D01*
G02X13240000I50000J-69360D01*
G02X13340000I50000J-69360D01*
G02X13440000I50000J-69360D01*
G02X13540000I50000J-69360D01*
G02X13659360Y12310000I50000J-69360D01*
G02Y12210000I-69360J-50000D01*
G02Y12110000I-69360J-50000D01*
G02Y12010000I-69360J-50000D01*
G02Y11910000I-69360J-50000D01*
G02Y11810000I-69360J-50000D01*
G02Y11710000I-69360J-50000D01*
G02Y11610000I-69360J-50000D01*
G02X13540000Y11490640I-69360J-50000D01*
G02X13440000I-50000J69360D01*
G02X13340000I-50000J69360D01*
G02X13240000I-50000J69360D01*
G02X13140000I-50000J69360D01*
G02X13040000I-50000J69360D01*
G02X12940000I-50000J69360D01*
G02X12840000I-50000J69360D01*
G02X12740000I-50000J69360D01*
G37*
G36*
G01X15350000Y11480640D02*
G02X15250000I-50000J69360D01*
G02X15130640Y11600000I-50000J69360D01*
G02Y11700000I69360J50000D01*
G02Y11800000I69360J50000D01*
G02Y11900000I69360J50000D01*
G02Y12000000I69360J50000D01*
G02Y12100000I69360J50000D01*
G02Y12200000I69360J50000D01*
G02Y12300000I69360J50000D01*
G02X15250000Y12419360I69360J50000D01*
G02X15350000I50000J-69360D01*
G02X15450000I50000J-69360D01*
G02X15550000I50000J-69360D01*
G02X15650000I50000J-69360D01*
G02X15750000I50000J-69360D01*
G02X15850000I50000J-69360D01*
G02X15950000I50000J-69360D01*
G02X16050000I50000J-69360D01*
G02X16150000I50000J-69360D01*
G02X16269360Y12300000I50000J-69360D01*
G02Y12200000I-69360J-50000D01*
G02Y12100000I-69360J-50000D01*
G02Y12000000I-69360J-50000D01*
G02Y11900000I-69360J-50000D01*
G02Y11800000I-69360J-50000D01*
G02Y11700000I-69360J-50000D01*
G02Y11600000I-69360J-50000D01*
G02X16150000Y11480640I-69360J-50000D01*
G02X16050000I-50000J69360D01*
G02X15950000I-50000J69360D01*
G02X15850000I-50000J69360D01*
G02X15750000I-50000J69360D01*
G02X15650000I-50000J69360D01*
G02X15550000I-50000J69360D01*
G02X15450000I-50000J69360D01*
G02X15350000I-50000J69360D01*
G37*
G54D27*
X10760000Y9780000D03*
X11010000Y11250000D03*
X11110000Y12490000D03*
X11240000Y13510000D03*
G54D28*
X16500000Y10260000D03*
X16490000Y13570000D03*
X13830000Y11940000D03*
X16490000D03*
G54D26*
X8800000Y10210000D03*
X10260000Y9780000D03*
X10510000Y11250000D03*
X10610000Y12490000D03*
X10740000Y13510000D03*
X11680000Y10260000D03*
G54D25*
X7649010Y10750990D03*
%LPD*%
G75*
G54D10*
X6680000Y11930000D03*
X9680000Y10430000D03*
Y13430000D03*
G54D11*
G01X7448820Y10550800D02*
X7649010Y10750990D01*
G01D02*
X7849200Y10951180D01*
G01X7448820D02*
X7649010Y10750990D01*
G01D02*
X7849200Y10550800D01*
X6509610Y12580000D03*
X6689210Y12759610D03*
X6868820Y12939210D03*
X7048420Y13118820D03*
X7228030Y13298420D03*
G54D20*
X13830000Y10260000D03*
Y11940000D03*
Y13570000D03*
X16500000Y10260000D03*
X16490000Y11940000D03*
Y13570000D03*
G54D12*
X7649010Y10750990D03*
X7200000Y11200000D03*
G54D21*
X12970000Y9900000D03*
X12870000D03*
X12770000D03*
X12670000D03*
X12970000Y10200000D03*
Y10100000D03*
Y10000000D03*
X12870000Y10200000D03*
Y10100000D03*
Y10000000D03*
X12770000Y10200000D03*
Y10100000D03*
Y10000000D03*
X12670000Y10200000D03*
Y10100000D03*
Y10000000D03*
X12970000Y10700000D03*
X12870000D03*
X12770000D03*
X12670000D03*
X12770000Y10600000D03*
X12870000D03*
X12670000Y10500000D03*
X12970000D03*
X12670000Y10400000D03*
X12970000D03*
X12770000Y10300000D03*
X12870000D03*
X12770000Y10500000D03*
X12870000D03*
X12770000Y10400000D03*
X12870000D03*
X12670000Y10600000D03*
X12970000D03*
X12670000Y10300000D03*
X12970000D03*
X12990000Y12160000D03*
Y12060000D03*
Y11960000D03*
Y11860000D03*
Y11760000D03*
Y11660000D03*
Y11560000D03*
X12890000Y11860000D03*
Y11760000D03*
Y11660000D03*
Y11560000D03*
X12790000Y11860000D03*
Y11760000D03*
Y11660000D03*
Y11560000D03*
X12690000Y11860000D03*
Y11760000D03*
Y11660000D03*
Y11560000D03*
X12590000Y11860000D03*
Y11760000D03*
Y11660000D03*
Y11560000D03*
Y12160000D03*
X12890000D03*
X12590000Y12060000D03*
X12890000D03*
X12690000Y11960000D03*
X12790000D03*
X12690000Y12160000D03*
X12790000D03*
X12690000Y12060000D03*
X12790000D03*
X12590000Y11960000D03*
X12890000D03*
X12990000Y12360000D03*
Y12260000D03*
X12890000Y12360000D03*
X12790000D03*
X12690000D03*
X12590000D03*
X12690000Y12260000D03*
X12790000D03*
X12590000D03*
X12890000D03*
X12970000Y13490000D03*
Y13390000D03*
Y13290000D03*
Y13190000D03*
X12870000Y13490000D03*
Y13390000D03*
Y13290000D03*
Y13190000D03*
X12770000Y13490000D03*
Y13390000D03*
Y13290000D03*
Y13190000D03*
X12670000Y13490000D03*
Y13390000D03*
Y13290000D03*
Y13190000D03*
Y13690000D03*
X12970000D03*
X12770000Y13590000D03*
X12870000D03*
X12770000Y13690000D03*
X12870000D03*
X12670000Y13590000D03*
X12970000D03*
Y13990000D03*
X12870000D03*
X12770000D03*
X12670000D03*
X12770000Y13890000D03*
X12870000D03*
X12670000Y13790000D03*
X12970000D03*
X12770000D03*
X12870000D03*
X12670000Y13890000D03*
X12970000D03*
X13670000Y9900000D03*
X13570000D03*
X13470000D03*
X13370000D03*
X13270000D03*
X13170000D03*
X13070000D03*
X13670000Y10700000D03*
Y10600000D03*
Y10500000D03*
Y10400000D03*
Y10300000D03*
Y10200000D03*
Y10100000D03*
Y10000000D03*
X13570000Y10700000D03*
Y10600000D03*
Y10500000D03*
Y10400000D03*
Y10300000D03*
Y10200000D03*
Y10100000D03*
Y10000000D03*
X13470000Y10700000D03*
Y10600000D03*
Y10500000D03*
Y10400000D03*
Y10300000D03*
Y10200000D03*
Y10100000D03*
Y10000000D03*
X13370000Y10700000D03*
Y10600000D03*
Y10500000D03*
Y10400000D03*
Y10300000D03*
Y10200000D03*
Y10100000D03*
Y10000000D03*
X13270000Y10700000D03*
Y10600000D03*
Y10500000D03*
Y10400000D03*
Y10300000D03*
Y10200000D03*
Y10100000D03*
Y10000000D03*
X13170000Y10700000D03*
Y10600000D03*
Y10500000D03*
Y10400000D03*
Y10300000D03*
Y10200000D03*
Y10100000D03*
Y10000000D03*
X13070000Y10700000D03*
Y10600000D03*
Y10500000D03*
Y10400000D03*
Y10300000D03*
Y10200000D03*
Y10100000D03*
Y10000000D03*
X13590000Y12160000D03*
Y12060000D03*
Y11960000D03*
Y11860000D03*
Y11760000D03*
Y11660000D03*
Y11560000D03*
X13490000Y12160000D03*
Y12060000D03*
Y11960000D03*
Y11860000D03*
Y11760000D03*
Y11660000D03*
Y11560000D03*
X13390000Y12160000D03*
Y12060000D03*
Y11960000D03*
Y11860000D03*
Y11760000D03*
Y11660000D03*
Y11560000D03*
X13290000Y12160000D03*
Y12060000D03*
Y11960000D03*
Y11860000D03*
Y11760000D03*
Y11660000D03*
Y11560000D03*
X13190000Y12160000D03*
Y12060000D03*
Y11960000D03*
Y11860000D03*
Y11760000D03*
Y11660000D03*
Y11560000D03*
X13090000Y12160000D03*
Y12060000D03*
Y11960000D03*
Y11860000D03*
Y11760000D03*
Y11660000D03*
Y11560000D03*
X13590000Y12360000D03*
Y12260000D03*
X13490000Y12360000D03*
Y12260000D03*
X13390000Y12360000D03*
Y12260000D03*
X13290000Y12360000D03*
Y12260000D03*
X13190000Y12360000D03*
Y12260000D03*
X13090000Y12360000D03*
Y12260000D03*
X13670000Y13690000D03*
Y13590000D03*
Y13490000D03*
Y13390000D03*
Y13290000D03*
Y13190000D03*
X13570000Y13690000D03*
Y13590000D03*
Y13490000D03*
Y13390000D03*
Y13290000D03*
Y13190000D03*
X13470000Y13690000D03*
Y13590000D03*
Y13490000D03*
Y13390000D03*
Y13290000D03*
Y13190000D03*
X13370000Y13690000D03*
Y13590000D03*
Y13490000D03*
Y13390000D03*
Y13290000D03*
Y13190000D03*
X13270000Y13690000D03*
Y13590000D03*
Y13490000D03*
Y13390000D03*
Y13290000D03*
Y13190000D03*
X13170000Y13690000D03*
Y13590000D03*
Y13490000D03*
Y13390000D03*
Y13290000D03*
Y13190000D03*
X13070000Y13690000D03*
Y13590000D03*
Y13490000D03*
Y13390000D03*
Y13290000D03*
Y13190000D03*
X13670000Y13990000D03*
Y13890000D03*
Y13790000D03*
X13570000Y13990000D03*
Y13890000D03*
Y13790000D03*
X13470000Y13990000D03*
Y13890000D03*
Y13790000D03*
X13370000Y13990000D03*
Y13890000D03*
Y13790000D03*
X13270000Y13990000D03*
Y13890000D03*
Y13790000D03*
X13170000Y13990000D03*
Y13890000D03*
Y13790000D03*
X13070000Y13990000D03*
Y13890000D03*
Y13790000D03*
X15250000Y9860000D03*
Y10160000D03*
Y10060000D03*
Y9960000D03*
Y10660000D03*
Y10460000D03*
Y10360000D03*
Y10560000D03*
Y10260000D03*
X15200000Y11850000D03*
Y11750000D03*
Y11650000D03*
Y11550000D03*
Y12150000D03*
Y12050000D03*
Y11950000D03*
Y12350000D03*
Y12250000D03*
X15950000Y9860000D03*
X15850000D03*
X15750000D03*
X15650000D03*
X15550000D03*
X15450000D03*
X15350000D03*
X15950000Y10660000D03*
Y10560000D03*
Y10460000D03*
Y10360000D03*
Y10260000D03*
Y10160000D03*
Y10060000D03*
Y9960000D03*
X15850000Y10660000D03*
Y10560000D03*
Y10460000D03*
Y10360000D03*
Y10260000D03*
Y10160000D03*
Y10060000D03*
Y9960000D03*
X15750000Y10660000D03*
Y10560000D03*
Y10460000D03*
Y10360000D03*
Y10260000D03*
Y10160000D03*
Y10060000D03*
Y9960000D03*
X15650000Y10660000D03*
Y10560000D03*
Y10460000D03*
Y10360000D03*
Y10260000D03*
Y10160000D03*
Y10060000D03*
Y9960000D03*
X15550000Y10160000D03*
Y10060000D03*
Y9960000D03*
X15450000Y10160000D03*
Y10060000D03*
Y9960000D03*
X15350000Y10160000D03*
Y10060000D03*
Y9960000D03*
X15550000Y10660000D03*
X15450000D03*
X15350000D03*
Y10560000D03*
X15450000D03*
X15550000Y10460000D03*
Y10360000D03*
X15350000Y10260000D03*
X15450000D03*
X15350000Y10460000D03*
X15450000D03*
X15350000Y10360000D03*
X15450000D03*
X15550000Y10560000D03*
Y10260000D03*
X16000000Y12150000D03*
Y12050000D03*
Y11950000D03*
Y11850000D03*
Y11750000D03*
Y11650000D03*
Y11550000D03*
X15900000Y12150000D03*
Y12050000D03*
Y11950000D03*
Y11850000D03*
Y11750000D03*
Y11650000D03*
Y11550000D03*
X15800000Y12150000D03*
Y12050000D03*
Y11950000D03*
Y11850000D03*
Y11750000D03*
Y11650000D03*
Y11550000D03*
X15700000Y12150000D03*
Y12050000D03*
Y11950000D03*
Y11850000D03*
Y11750000D03*
Y11650000D03*
Y11550000D03*
X15600000Y12150000D03*
Y12050000D03*
Y11950000D03*
Y11850000D03*
Y11750000D03*
Y11650000D03*
Y11550000D03*
X15500000Y11850000D03*
Y11750000D03*
Y11650000D03*
Y11550000D03*
X15400000Y11850000D03*
Y11750000D03*
Y11650000D03*
Y11550000D03*
X15300000Y11850000D03*
Y11750000D03*
Y11650000D03*
Y11550000D03*
X15500000Y12150000D03*
Y12050000D03*
X15300000Y11950000D03*
X15400000D03*
X15300000Y12150000D03*
X15400000D03*
X15300000Y12050000D03*
X15400000D03*
X15500000Y11950000D03*
X16000000Y12350000D03*
Y12250000D03*
X15900000Y12350000D03*
Y12250000D03*
X15800000Y12350000D03*
Y12250000D03*
X15700000Y12350000D03*
Y12250000D03*
X15600000Y12350000D03*
Y12250000D03*
X15500000Y12350000D03*
X15400000D03*
X15300000D03*
Y12250000D03*
X15400000D03*
X15500000D03*
X15980000Y13680000D03*
Y13580000D03*
Y13480000D03*
Y13380000D03*
Y13280000D03*
Y13180000D03*
X15880000Y13680000D03*
Y13580000D03*
Y13480000D03*
Y13380000D03*
Y13280000D03*
Y13180000D03*
X15780000Y13680000D03*
Y13580000D03*
Y13480000D03*
Y13380000D03*
Y13280000D03*
Y13180000D03*
X15680000Y13680000D03*
Y13580000D03*
Y13480000D03*
Y13380000D03*
Y13280000D03*
Y13180000D03*
X15580000Y13480000D03*
Y13380000D03*
Y13280000D03*
Y13180000D03*
X15480000Y13480000D03*
Y13380000D03*
Y13280000D03*
Y13180000D03*
X15380000Y13480000D03*
Y13380000D03*
Y13280000D03*
Y13180000D03*
X15280000Y13480000D03*
Y13380000D03*
Y13280000D03*
Y13180000D03*
Y13680000D03*
X15580000D03*
X15380000Y13580000D03*
X15480000D03*
X15380000Y13680000D03*
X15480000D03*
X15280000Y13580000D03*
X15580000D03*
X15980000Y13980000D03*
Y13880000D03*
Y13780000D03*
X15880000Y13980000D03*
Y13880000D03*
Y13780000D03*
X15780000Y13980000D03*
Y13880000D03*
Y13780000D03*
X15680000Y13980000D03*
Y13880000D03*
Y13780000D03*
X15580000Y13980000D03*
X15480000D03*
X15380000D03*
X15280000D03*
X15380000Y13880000D03*
X15480000D03*
X15280000Y13780000D03*
X15580000D03*
X15380000D03*
X15480000D03*
X15280000Y13880000D03*
X15580000D03*
X16250000Y9860000D03*
X16150000D03*
X16050000D03*
X16250000Y10660000D03*
Y10560000D03*
Y10460000D03*
Y10360000D03*
Y10260000D03*
Y10160000D03*
Y10060000D03*
Y9960000D03*
X16150000Y10660000D03*
Y10560000D03*
Y10460000D03*
Y10360000D03*
Y10260000D03*
Y10160000D03*
Y10060000D03*
Y9960000D03*
X16050000Y10660000D03*
Y10560000D03*
Y10460000D03*
Y10360000D03*
Y10260000D03*
Y10160000D03*
Y10060000D03*
Y9960000D03*
X16200000Y12150000D03*
Y12050000D03*
Y11950000D03*
Y11850000D03*
Y11750000D03*
Y11650000D03*
Y11550000D03*
X16100000Y12150000D03*
Y12050000D03*
Y11950000D03*
Y11850000D03*
Y11750000D03*
Y11650000D03*
Y11550000D03*
X16200000Y12350000D03*
Y12250000D03*
X16100000Y12350000D03*
Y12250000D03*
X16280000Y13680000D03*
Y13580000D03*
Y13480000D03*
Y13380000D03*
Y13280000D03*
Y13180000D03*
X16180000Y13680000D03*
Y13580000D03*
Y13480000D03*
Y13380000D03*
Y13280000D03*
Y13180000D03*
X16080000Y13680000D03*
Y13580000D03*
Y13480000D03*
Y13380000D03*
Y13280000D03*
Y13180000D03*
X16280000Y13980000D03*
Y13880000D03*
Y13780000D03*
X16180000Y13980000D03*
Y13880000D03*
Y13780000D03*
X16080000Y13980000D03*
Y13880000D03*
Y13780000D03*
G54D13*
X7772800Y12329570D03*
X8509180Y11952400D03*
X7952400Y12509180D03*
X8132010Y12688780D03*
X8311610Y12868390D03*
X8491220Y13047990D03*
X8868390Y12311610D03*
X8688780Y12132010D03*
X9227600Y12670820D03*
X9047990Y12491220D03*
X8826000Y13810000D03*
X9080000D03*
X8670820Y13227600D03*
X8850430Y13407200D03*
X8826000Y14070000D03*
X9080000D03*
X9407200Y12850430D03*
G54D22*
X17770000Y11440000D03*
Y11940000D03*
Y12440000D03*
G54D23*
G01X7660170Y12216940D02*
X7772800Y12329570D01*
G01X7660170Y12442200D02*
X7772800Y12329570D01*
G01X8705900Y10115900D02*
X8800000Y10210000D01*
G01D02*
X8894100Y10304100D01*
G01X8705900D02*
X8800000Y10210000D01*
G01D02*
X8894100Y10115900D01*
G01X10165900Y9685900D02*
X10260000Y9780000D01*
G01D02*
X10354100Y9874100D01*
G01X10165900D02*
X10260000Y9780000D01*
G01D02*
X10354100Y9685900D01*
G01X10415900Y11155900D02*
X10510000Y11250000D01*
G01D02*
X10604100Y11344100D01*
G01X10415900D02*
X10510000Y11250000D01*
G01D02*
X10604100Y11155900D01*
G01X10230040Y12990040D02*
X10310000Y13070000D01*
G01D02*
X10389960Y12990040D01*
G01X10515900Y12395900D02*
X10610000Y12490000D01*
G01D02*
X10704100Y12584100D01*
G01X10515900D02*
X10610000Y12490000D01*
G01D02*
X10704100Y12395900D01*
G01X10645900Y13415900D02*
X10740000Y13510000D01*
G01X10645900Y13604100D02*
X10740000Y13510000D01*
G01X10310000Y13070000D02*
X10389960Y13149960D01*
G01X11465900Y11985900D02*
X11560000Y12080000D01*
G01X10740000Y13510000D02*
X10834100Y13604100D01*
G01X10740000Y13510000D02*
X10834100Y13415900D01*
G01X11475900Y13684100D02*
X11570000Y13590000D01*
G01X11585900Y10165900D02*
X11680000Y10260000D01*
G01D02*
X11774100Y10354100D01*
G01X11585900D02*
X11680000Y10260000D01*
G01D02*
X11774100Y10165900D01*
G01X11560000Y12080000D02*
X11654100Y12174100D01*
G01X11560000Y12080000D02*
X11654100Y11985900D01*
G01X11570000Y13590000D02*
X11664100Y13684100D01*
G01X11570000Y13590000D02*
X11664100Y13495900D01*
G54D14*
X7630000Y12980000D03*
X7700000Y12010000D03*
X8800000Y10210000D03*
X8829260Y10762680D03*
X8560000Y11600000D03*
X9520000Y12150000D03*
X9200000Y11640000D03*
X9240000Y11900000D03*
X9640000Y12630000D03*
X9590000Y12390000D03*
X10260000Y9780000D03*
X10470000Y10030000D03*
X10520000Y10160000D03*
X10510000Y11250000D03*
X10050000Y10760000D03*
X10200000Y10820000D03*
X10610000Y12490000D03*
X10760000Y9780000D03*
X11270000Y10530000D03*
X11010000Y11250000D03*
X11110000Y12490000D03*
X10740000Y13510000D03*
X11240000D03*
X11340000Y13830000D03*
X11680000Y10260000D03*
X12070000Y10970000D03*
X11560000Y12080000D03*
X11570000Y13590000D03*
G54D24*
G01X11822500Y10266000D02*
X12000000D01*
G01D02*
X12177500D01*
G01X11829960Y10193930D02*
X12000000Y10266000D01*
G01D02*
X12170040Y10338070D01*
G01X11822500Y11946000D02*
X12000000D01*
G01D02*
X12177500D01*
G01X11829960Y11873930D02*
X12000000Y11946000D01*
G01D02*
X12170040Y12018070D01*
G01X11822500Y13566000D02*
X12000000D01*
G01D02*
X12177500D01*
G01X11829960Y13493930D02*
X12000000Y13566000D01*
G01D02*
X12170040Y13638070D01*
G01X14549410Y9881410D02*
X14680000Y10012000D01*
G01X14502500D02*
X14680000D01*
G01X14502500Y10266000D02*
X14680000D01*
G01X14509960Y10193930D02*
X14680000Y10266000D01*
G01X14539410Y11561410D02*
X14670000Y11692000D01*
G01X14492500Y11946000D02*
X14670000D01*
G01X14499960Y11873930D02*
X14670000Y11946000D01*
G01X14539410Y13191410D02*
X14670000Y13322000D01*
G01X14492500D02*
X14670000D01*
G01X14492500Y13576000D02*
X14670000D01*
G01X14499960Y13503930D02*
X14670000Y13576000D01*
G01X14680000Y9834500D02*
Y10012000D01*
G01X14607930Y9841960D02*
X14680000Y10012000D01*
G01Y10266000D02*
X14857500D01*
G01X14680000D02*
X14850040Y10338070D01*
G01X14670000Y11692000D02*
X14800590Y11561410D01*
G01X14670000Y11514500D02*
Y11692000D01*
G01X14597930Y11521960D02*
X14670000Y11692000D01*
G01Y11946000D02*
X14847500D01*
G01X14670000D02*
X14840040Y12018070D01*
G01X14670000Y13322000D02*
X14800590Y13191410D01*
G01X14670000Y13144500D02*
Y13322000D01*
G01Y13576000D02*
X14847500D01*
G01X14670000D02*
X14840040Y13648070D01*
G01X17583970Y11253970D02*
X17770000Y11440000D01*
G01X17583970Y11626030D02*
X17770000Y11440000D01*
G01X17514100Y11940000D02*
X17770000D01*
G01X17527520Y11837930D02*
X17770000Y11940000D01*
G01X17527520Y12042070D02*
X17770000Y11940000D01*
G01X17583970Y12253970D02*
X17770000Y12440000D01*
G01X17583970Y12626030D02*
X17770000Y12440000D01*
G01Y11440000D02*
X17956030Y11626030D01*
G01X17770000Y11440000D02*
X17956030Y11253970D01*
G01X17770000Y12440000D02*
X17956030Y12253970D01*
G01X17770000Y12440000D02*
X17956030Y12626030D01*
G54D15*
X8263930Y12233930D03*
X8476070Y12446070D03*
G54D16*
X8329570Y11772800D03*
G54D17*
X7762510Y13412510D03*
X8010000Y13660000D03*
G54D18*
G01X7952400Y12509180D02*
X7555790Y12905790D01*
G01D02*
X7630000Y12980000D01*
G01X7048420Y13118820D02*
X7342760D01*
X7555790Y12905790D01*
G01X7228030Y13298420D02*
X7522370D01*
X8132010Y12688780D01*
G01X8263930Y12233930D02*
X8345250Y12152610D01*
X8329570Y11772800D01*
G01X7700000Y12010000D02*
X7780000D01*
X8300920Y12530920D01*
X8391220D01*
X8476070Y12446070D01*
G01X7762510Y13412510D02*
X8126700D01*
X8491220Y13047990D01*
G01X8010000Y13660000D02*
X8238420D01*
X8670820Y13227600D01*
G01X8829260Y10762680D02*
Y11330740D01*
X8560000Y11600000D01*
G01D02*
Y11750000D01*
X9559520Y12749520D01*
Y12960480D01*
X9080000Y13440000D01*
Y13810000D01*
G01X8868390Y12311610D02*
X8610530D01*
X8476070Y12446070D01*
G01X9080000Y14070000D02*
Y13810000D01*
G01X9200000Y11640000D02*
X10050000Y10760000D01*
G01X9240000Y11900000D02*
Y11780000D01*
X10200000Y10820000D01*
G01X11100000Y12740000D02*
X10330000D01*
X9740000Y12150000D01*
X9520000D01*
G01X9640000Y12630000D02*
X10509980Y13499980D01*
Y13774540D01*
X10565440Y13830000D01*
X11340000D01*
G01X11050000Y13090000D02*
X10830000Y12870000D01*
X10300000D01*
X9820000Y12390000D01*
X9590000D01*
G01X12070000Y10970000D02*
X11940000D01*
X11000000Y10030000D01*
X10470000D01*
G01X11270000Y10530000D02*
X10900000Y10160000D01*
X10520000D01*
G01X14310000Y12650000D02*
Y12560000D01*
X14670000Y12200000D01*
X10310000Y13070000D03*
X11100000Y12740000D03*
X11050000Y13090000D03*
X14310000Y12650000D03*
G54D19*
X12000000Y10012000D03*
Y10520000D03*
Y10266000D03*
Y12200000D03*
Y11946000D03*
Y11692000D03*
Y13820000D03*
Y13566000D03*
Y13312000D03*
X14680000Y10012000D03*
Y10520000D03*
Y10266000D03*
X14670000Y12200000D03*
Y11946000D03*
Y11692000D03*
Y13830000D03*
Y13576000D03*
Y13322000D03*
M02*
