G04 ================== begin FILE IDENTIFICATION RECORD ==================*
G04 Layout Name:  C:/USERS/KEVIN/SRDEV/ORCADQUADCOPTER1/allegro/QUADCOPTER1brd3_4.brd*
G04 Film Name:    motor-TOP*
G04 File Format:  Gerber RS274X*
G04 File Origin:  Cadence Allegro 16.6-P004*
G04 Origin Date:  Mon Jun 22 12:27:35 2015*
G04 *
G04 Layer:  VIA CLASS/TOP*
G04 Layer:  PIN/TOP*
G04 Layer:  ETCH/TOP*
G04 *
G04 Offset:    (0.0000 0.0000)*
G04 Mirror:    No*
G04 Mode:      Positive*
G04 Rotation:  0*
G04 FullContactRelief:  No*
G04 UndefLineWidth:     0.2000*
G04 ================== end FILE IDENTIFICATION RECORD ====================*
%FSLAX25Y25*MOMM*%
%IR0*IPPOS*OFA0.00000B0.00000*MIA0B0*SFA1.00000B1.00000*%
%AMMACRO16*
21,1,1.2,1.8,0.0,0.0,135.*%
%ADD16MACRO16*%
%ADD22C,.6*%
%ADD26C,.7*%
%ADD23R,1.X1.*%
%ADD20R,1.X1.*%
%ADD19R,1.8X1.2*%
%AMMACRO14*
21,1,1.2,1.8,0.0,0.0,45.*%
%ADD14MACRO14*%
%ADD25R,1.2X1.9*%
%ADD21R,1.2X1.8*%
%ADD15C,1.*%
%ADD11C,2.*%
%ADD18C,1.5*%
%ADD24C,2.032*%
%ADD27C,3.6*%
%ADD12C,4.0005*%
%ADD13C,1.524*%
%ADD10C,6.9*%
%AMMACRO17*
21,1,1.524,1.524,0.0,0.0,45.*%
%ADD17MACRO17*%
%ADD28C,.781*%
%ADD29C,1.2*%
%ADD31C,2.01*%
%ADD33R,2.21X2.91*%
%ADD32C,2.4164*%
%ADD30C,5.417*%
G75*
%LPD*%
G75*
G36*
G01X10669180Y13909180D02*
X10930820D01*
Y13959980D01*
X10989500D01*
Y13929500D01*
X11110000D01*
Y13840000D01*
X11520000Y13430000D01*
X11598210D01*
G03X11729990I65890J65900D01*
G01X11852670D01*
G02X11860870Y13413840I1J-10160D01*
G03X12113170Y13181920I139131J-101838D01*
G02X12130000Y13174260I6670J-7664D01*
G01Y12760500D01*
X11933340D01*
X11801000Y12892840D01*
Y13018380D01*
X11648880Y13170500D01*
X11050000D01*
G03Y13009500I0J-80500D01*
G01X11149180D01*
Y12820500D01*
X11100000D01*
G03Y12659500I0J-80500D01*
G01X11161120D01*
X11161600Y12659020D01*
X11286660D01*
X11299500Y12646180D01*
Y12525070D01*
G03X11301530Y12484160I413635J20D01*
G01X11301770Y12481770D01*
X11030000Y12210000D01*
X11430000Y11810000D01*
X11852670D01*
G02X11860870Y11793840I1J-10160D01*
G03X12172080Y11702770I139128J-101841D01*
G02X12189410Y11710590I10141J640D01*
G01X12210000Y11690000D01*
Y11100000D01*
X12160490Y11050490D01*
X12130200D01*
X12128870Y11051460D01*
G03X11989380Y11030000I-58864J-81458D01*
G01X11710500D01*
Y11070500D01*
X11690020D01*
Y11129180D01*
X11730820D01*
Y11390820D01*
X11409180D01*
Y11129180D01*
X11459980D01*
Y11070500D01*
X11429500D01*
Y11030000D01*
X11410000D01*
X11160000Y10780000D01*
Y10450000D01*
X11470000Y10140000D01*
X11860540D01*
G02X11868300Y10123280I1J-10160D01*
G03X12169350Y10044400I131702J-111280D01*
G02X12186510Y10053490I9979J1903D01*
G01X12250000Y9990000D01*
X11760000Y9500000D01*
X10520000D01*
Y9942820D01*
G03X10562630Y10068990I-49999J87181D01*
G03X10535980Y10259220I-42631J91009D01*
G01X10534360Y10259480D01*
X10520000Y10273840D01*
Y10510000D01*
X10330500Y10699500D01*
Y10710500D01*
X10297100Y10794010D01*
X10297490Y10795610D01*
G03X10119380Y10880000I-97494J24384D01*
G01X8020000D01*
X7890000Y11010000D01*
X7490000D01*
X7090000Y10610000D01*
X7060000D01*
X6490000Y11180000D01*
Y11190000D01*
X6840000Y11540000D01*
X8479380D01*
G03X8640620I80620J60000D01*
G01X9189980D01*
X9190230Y11539980D01*
G03X9209770I9770J100020D01*
G01X9210020Y11540000D01*
X9749500D01*
Y11499500D01*
X9970500D01*
Y11529980D01*
X10049500D01*
Y11499500D01*
X10270500D01*
Y12916660D01*
X10366920Y13013080D01*
G03X10274620Y13142310I-56923J56921D01*
G02X10260000Y13151430I-4461J9127D01*
G01Y13720000D01*
X10651840Y14111840D01*
G02X10669180Y14104650I7180J-7188D01*
G01Y13909180D01*
G37*
G36*
G01X11432000Y13589420D02*
X11370000Y13651420D01*
Y13690000D01*
X11474690D01*
G02X11482080Y13672870I-2J-10160D01*
G03X11449330Y13596090I87917J-82875D01*
G02X11432000Y13589420I-10145J511D01*
G37*
G36*
G01X11780000Y9420000D02*
X11770000Y9430000D01*
Y9449500D01*
X11780920D01*
X12321420Y9990000D01*
X12142490Y10168920D01*
G03X12130000Y10379260I-142491J97080D01*
G01Y10441030D01*
X12130710Y10442230D01*
G03X12130000Y10598960I-130711J77774D01*
G01Y10889490D01*
X14193960Y10889280D01*
X14531690Y10553850D01*
X14531120Y10551150D01*
G03X14571040Y10413880I148878J-31144D01*
G02X14570230Y10398960I-7282J-7087D01*
G03Y10133040I109770J-132960D01*
G02X14571040Y10118120I-6472J-7833D01*
G03X14788960I108960J-106120D01*
G02X14789770Y10133040I7282J7087D01*
G03Y10398960I-109770J132960D01*
G02X14788960Y10413880I6472J7833D01*
G03X14822980Y10571890I-108958J106126D01*
G03X14829500Y10581370I-3641J9486D01*
G01Y10890000D01*
X16770000D01*
X16910000Y11030000D01*
Y11040000D01*
X17550000Y11680000D01*
X17646370D01*
G02X17651180Y11660890I2J-10160D01*
G03X17888820I118820J-220890D01*
G02X17893630Y11680000I4808J8950D01*
G01X18110000D01*
X18200000Y11590000D01*
Y10870000D01*
X16750000Y9420000D01*
X11780000D01*
G37*
G36*
G01X11796770Y10190500D02*
G02X11787710Y10205260I-2J10159D01*
G03X11728760Y10370540I-107709J54736D01*
G02X11732860Y10390000I4095J9299D01*
G01X11857260D01*
G02X11865200Y10373510I-5J-10159D01*
G03X11839000Y10204300I134801J-107506D01*
G02X11829510Y10190500I-9486J-3640D01*
G01X11796770D01*
G37*
G36*
G01X11490920D02*
X11470000Y10211420D01*
Y10390000D01*
X11627140D01*
G02X11631240Y10370540I5J-10161D01*
G03X11572290Y10205260I48759J-110544D01*
G02X11563230Y10190500I-9058J-4601D01*
G01X11490920D01*
G37*
G36*
G01X12170000Y12080000D02*
X12180000Y12090000D01*
Y12550000D01*
X12229500Y12599500D01*
X14186660D01*
X14216660Y12569500D01*
X14310000D01*
G03X14390360Y12645220I0J80502D01*
G01X14390640Y12650000D01*
X17030000D01*
X17448870Y12231130D01*
G03X17580570Y12117000I135099J22844D01*
G02X17584210Y12108510I-126J-5079D01*
G03X17602050Y11753710I185788J-168507D01*
G02X17594300Y11736050I-6800J-7546D01*
G03X17548740Y11730770I-10336J-110019D01*
G01X17547960Y11730500D01*
X17529080D01*
X16859500Y11060920D01*
Y11050920D01*
X16749080Y10940500D01*
X14370860D01*
X14260140Y11050480D01*
X12240000D01*
Y11058580D01*
X12260500Y11079080D01*
Y11710920D01*
X12133960Y11837450D01*
G03X12126690Y12062950I-133961J108548D01*
G02X12134160Y12080000I7468J6889D01*
G01X12170000D01*
G37*
G36*
G01X11450920Y11860500D02*
X11440000Y11871420D01*
Y12008650D01*
G02X11458680Y12014180I10159J-1D01*
G03X11680720Y12075130I101318J65819D01*
G01X11680920Y12080000D01*
X11865840D01*
G02X11873310Y12062950I2J-10161D01*
G03X11842940Y11874850I126689J-116956D01*
G02X11833690Y11860500I-9253J-4192D01*
G01X11450920D01*
G37*
G36*
G01X12180500Y13400920D02*
X12129430Y13451990D01*
X12132400Y13455550D01*
G03X12123460Y13686360I-132400J110450D01*
G01X12119950Y13689950D01*
X12165000Y13735000D01*
X12150000Y13750000D01*
Y13794810D01*
X12150070Y13795220D01*
G03Y13844780I-150070J24780D01*
G01X12150000Y13845190D01*
Y14130000D01*
X12239500Y14219500D01*
X14166660D01*
X14521800Y13864350D01*
X14521230Y13861650D01*
G03X14561040Y13723880I148770J-31648D01*
G02X14560230Y13708960I-7282J-7087D01*
G03Y13443040I109770J-132960D01*
G02X14561040Y13428120I-6472J-7833D01*
G03X14778960I108960J-106120D01*
G02X14779770Y13443040I7282J7087D01*
G03Y13708960I-109770J132960D01*
G02X14778960Y13723880I6472J7833D01*
G03X14638350Y13978770I-108962J106120D01*
G01X14635650Y13978200D01*
X14311190Y14302660D01*
G02X14318370Y14320000I7184J7182D01*
G01X16810000D01*
X18160000Y12970000D01*
Y12190000D01*
X17901420D01*
X17887740Y12203680D01*
G02X17890060Y12219780I7185J7182D01*
G03X17597380Y12258030I-120059J220220D01*
G02X17590390Y12240500I-6993J-7370D01*
G01X17510920D01*
X17050920Y12700500D01*
X14372690D01*
G03X14310000Y12730500I-62690J-50501D01*
G01X14283340D01*
X14253340Y12760500D01*
X12269500D01*
X12180500Y12849500D01*
Y13400920D01*
G37*
G36*
G01X11648740Y13498370D02*
G03X11657920Y13672870I-78741J91634D01*
G02X11665310Y13690000I7392J6970D01*
G01X11857260D01*
G02X11865200Y13673510I-5J-10159D01*
G03X11842940Y13494850I134798J-107512D01*
G02X11833690Y13480500I-9253J-4192D01*
G01X11655360D01*
G02X11648740Y13498370I1J10162D01*
G37*
%LPC*%
G75*
G36*
G01X12820000Y9830640D02*
G02X12720000I-50000J69360D01*
G02X12600640Y9950000I-50000J69360D01*
G02Y10050000I69360J50000D01*
G02Y10150000I69360J50000D01*
G02Y10250000I69360J50000D01*
G02Y10350000I69360J50000D01*
G02Y10450000I69360J50000D01*
G02Y10550000I69360J50000D01*
G02Y10650000I69360J50000D01*
G02X12720000Y10769360I69360J50000D01*
G02X12820000I50000J-69360D01*
G02X12920000I50000J-69360D01*
G02X13020000I50000J-69360D01*
G02X13120000I50000J-69360D01*
G02X13220000I50000J-69360D01*
G02X13320000I50000J-69360D01*
G02X13420000I50000J-69360D01*
G02X13520000I50000J-69360D01*
G02X13620000I50000J-69360D01*
G02X13739360Y10650000I50000J-69360D01*
G02Y10550000I-69360J-50000D01*
G02Y10450000I-69360J-50000D01*
G02X13754910Y10409990I-69365J-49986D01*
G01X13755440Y10405500D01*
X13940500D01*
Y10114500D01*
X13765560D01*
G03X13755410Y10103880I0J-10160D01*
G02X13739360Y10050000I-85412J-3888D01*
G02Y9950000I-69360J-50000D01*
G02X13620000Y9830640I-69360J-50000D01*
G02X13520000I-50000J69360D01*
G02X13420000I-50000J69360D01*
G02X13320000I-50000J69360D01*
G02X13220000I-50000J69360D01*
G02X13120000I-50000J69360D01*
G02X13020000I-50000J69360D01*
G02X12920000I-50000J69360D01*
G02X12820000I-50000J69360D01*
G37*
G36*
G01X15400000Y9790640D02*
G02X15300000I-50000J69360D01*
G02X15180640Y9910000I-50000J69360D01*
G02Y10010000I69360J50000D01*
G02Y10110000I69360J50000D01*
G02Y10210000I69360J50000D01*
G02Y10310000I69360J50000D01*
G02Y10410000I69360J50000D01*
G02Y10510000I69360J50000D01*
G02Y10610000I69360J50000D01*
G02X15300000Y10729360I69360J50000D01*
G02X15400000I50000J-69360D01*
G02X15500000I50000J-69360D01*
G02X15600000I50000J-69360D01*
G02X15700000I50000J-69360D01*
G02X15800000I50000J-69360D01*
G02X15900000I50000J-69360D01*
G02X16000000I50000J-69360D01*
G02X16100000I50000J-69360D01*
G02X16200000I50000J-69360D01*
G02X16319360Y10610000I50000J-69360D01*
G02Y10510000I-69360J-50000D01*
G02Y10410000I-69360J-50000D01*
G02Y10310000I-69360J-50000D01*
G02Y10210000I-69360J-50000D01*
G02Y10110000I-69360J-50000D01*
G02Y10010000I-69360J-50000D01*
G02Y9910000I-69360J-50000D01*
G02X16200000Y9790640I-69360J-50000D01*
G02X16100000I-50000J69360D01*
G02X16000000I-50000J69360D01*
G02X15900000I-50000J69360D01*
G02X15800000I-50000J69360D01*
G02X15700000I-50000J69360D01*
G02X15600000I-50000J69360D01*
G02X15500000I-50000J69360D01*
G02X15400000I-50000J69360D01*
G37*
G36*
G01X14779770Y11813040D02*
G03X14778960Y11798120I6472J-7833D01*
G02X14561040I-108960J-106120D01*
G03X14560230Y11813040I-7282J7087D01*
G02Y12078960I109770J132960D01*
G03X14561040Y12093880I-6472J7833D01*
G02X14778960I108960J106120D01*
G03X14779770Y12078960I7282J-7087D01*
G02Y11813040I-109770J-132960D01*
G37*
G36*
G01X12740000Y11490640D02*
G02X12640000I-50000J69360D01*
G02X12520640Y11610000I-50000J69360D01*
G02Y11710000I69360J50000D01*
G02Y11810000I69360J50000D01*
G02Y11910000I69360J50000D01*
G02Y12010000I69360J50000D01*
G02Y12110000I69360J50000D01*
G02Y12210000I69360J50000D01*
G02Y12310000I69360J50000D01*
G02X12640000Y12429360I69360J50000D01*
G02X12740000I50000J-69360D01*
G02X12840000I50000J-69360D01*
G02X12940000I50000J-69360D01*
G02X13040000I50000J-69360D01*
G02X13140000I50000J-69360D01*
G02X13240000I50000J-69360D01*
G02X13340000I50000J-69360D01*
G02X13440000I50000J-69360D01*
G02X13540000I50000J-69360D01*
G02X13659360Y12310000I50000J-69360D01*
G02Y12210000I-69360J-50000D01*
G02Y12110000I-69360J-50000D01*
G02Y12010000I-69360J-50000D01*
G02Y11910000I-69360J-50000D01*
G02Y11810000I-69360J-50000D01*
G02Y11710000I-69360J-50000D01*
G02Y11610000I-69360J-50000D01*
G02X13540000Y11490640I-69360J-50000D01*
G02X13440000I-50000J69360D01*
G02X13340000I-50000J69360D01*
G02X13240000I-50000J69360D01*
G02X13140000I-50000J69360D01*
G02X13040000I-50000J69360D01*
G02X12940000I-50000J69360D01*
G02X12840000I-50000J69360D01*
G02X12740000I-50000J69360D01*
G37*
G36*
G01X15350000Y11480640D02*
G02X15250000I-50000J69360D01*
G02X15130640Y11600000I-50000J69360D01*
G02Y11700000I69360J50000D01*
G02Y11800000I69360J50000D01*
G02Y11900000I69360J50000D01*
G02Y12000000I69360J50000D01*
G02Y12100000I69360J50000D01*
G02Y12200000I69360J50000D01*
G02Y12300000I69360J50000D01*
G02X15250000Y12419360I69360J50000D01*
G02X15350000I50000J-69360D01*
G02X15450000I50000J-69360D01*
G02X15550000I50000J-69360D01*
G02X15650000I50000J-69360D01*
G02X15750000I50000J-69360D01*
G02X15850000I50000J-69360D01*
G02X15950000I50000J-69360D01*
G02X16050000I50000J-69360D01*
G02X16150000I50000J-69360D01*
G02X16269360Y12300000I50000J-69360D01*
G02Y12200000I-69360J-50000D01*
G02Y12100000I-69360J-50000D01*
G02Y12000000I-69360J-50000D01*
G02Y11900000I-69360J-50000D01*
G02Y11800000I-69360J-50000D01*
G02Y11700000I-69360J-50000D01*
G02Y11600000I-69360J-50000D01*
G02X16150000Y11480640I-69360J-50000D01*
G02X16050000I-50000J69360D01*
G02X15950000I-50000J69360D01*
G02X15850000I-50000J69360D01*
G02X15750000I-50000J69360D01*
G02X15650000I-50000J69360D01*
G02X15550000I-50000J69360D01*
G02X15450000I-50000J69360D01*
G02X15350000I-50000J69360D01*
G37*
G36*
G01X12820000Y13120640D02*
G02X12720000I-50000J69360D01*
G02X12600640Y13240000I-50000J69360D01*
G02Y13340000I69360J50000D01*
G02Y13440000I69360J50000D01*
G02Y13540000I69360J50000D01*
G02Y13640000I69360J50000D01*
G02Y13740000I69360J50000D01*
G02Y13840000I69360J50000D01*
G02Y13940000I69360J50000D01*
G02X12720000Y14059360I69360J50000D01*
G02X12820000I50000J-69360D01*
G02X12920000I50000J-69360D01*
G02X13020000I50000J-69360D01*
G02X13120000I50000J-69360D01*
G02X13220000I50000J-69360D01*
G02X13320000I50000J-69360D01*
G02X13420000I50000J-69360D01*
G02X13520000I50000J-69360D01*
G02X13620000I50000J-69360D01*
G02X13739360Y13940000I50000J-69360D01*
G02Y13840000I-69360J-50000D01*
G02Y13740000I-69360J-50000D01*
G02X13751610Y13715500I-69362J-49994D01*
G01X13940500D01*
Y13424500D01*
X13762510D01*
G03X13752690Y13411760I4J-10158D01*
G02X13739360Y13340000I-82688J-21758D01*
G02Y13240000I-69360J-50000D01*
G02X13620000Y13120640I-69360J-50000D01*
G02X13520000I-50000J69360D01*
G02X13420000I-50000J69360D01*
G02X13320000I-50000J69360D01*
G02X13220000I-50000J69360D01*
G02X13120000I-50000J69360D01*
G02X13020000I-50000J69360D01*
G02X12920000I-50000J69360D01*
G02X12820000I-50000J69360D01*
G37*
G36*
G01X15430000Y13110640D02*
G02X15330000I-50000J69360D01*
G02X15210640Y13230000I-50000J69360D01*
G02Y13330000I69360J50000D01*
G02Y13430000I69360J50000D01*
G02Y13530000I69360J50000D01*
G02Y13630000I69360J50000D01*
G02Y13730000I69360J50000D01*
G02Y13830000I69360J50000D01*
G02Y13930000I69360J50000D01*
G02X15330000Y14049360I69360J50000D01*
G02X15430000I50000J-69360D01*
G02X15530000I50000J-69360D01*
G02X15630000I50000J-69360D01*
G02X15730000I50000J-69360D01*
G02X15830000I50000J-69360D01*
G02X15930000I50000J-69360D01*
G02X16030000I50000J-69360D01*
G02X16130000I50000J-69360D01*
G02X16230000I50000J-69360D01*
G02X16349360Y13930000I50000J-69360D01*
G02Y13830000I-69360J-50000D01*
G02Y13730000I-69360J-50000D01*
G02Y13630000I-69360J-50000D01*
G02Y13530000I-69360J-50000D01*
G02Y13430000I-69360J-50000D01*
G02Y13330000I-69360J-50000D01*
G02Y13230000I-69360J-50000D01*
G02X16230000Y13110640I-69360J-50000D01*
G02X16130000I-50000J69360D01*
G02X16030000I-50000J69360D01*
G02X15930000I-50000J69360D01*
G02X15830000I-50000J69360D01*
G02X15730000I-50000J69360D01*
G02X15630000I-50000J69360D01*
G02X15530000I-50000J69360D01*
G02X15430000I-50000J69360D01*
G37*
G54D31*
X10510000Y11250000D03*
X10610000Y12490000D03*
X10740000Y13510000D03*
G54D33*
X16500000Y10260000D03*
X13830000Y11940000D03*
X16490000D03*
Y13570000D03*
G54D32*
X10760000Y9780000D03*
X11010000Y11250000D03*
X11110000Y12490000D03*
X11240000Y13510000D03*
G54D30*
X7200000Y11200000D03*
%LPD*%
G75*
G54D10*
X6680000Y11930000D03*
X9680000Y10430000D03*
Y13430000D03*
G54D11*
G01X6924070Y11200000D02*
X7200000D01*
G01Y10924070D02*
Y11200000D01*
G01D02*
Y11475930D01*
G01Y11200000D02*
X7475930D01*
X6509610Y12580000D03*
X6689210Y12759610D03*
X6868820Y12939210D03*
X7048420Y13118820D03*
X7228030Y13298420D03*
G54D20*
X8698900Y10646520D03*
Y10456020D03*
X8521100Y10550000D03*
G54D12*
X7649010Y10750990D03*
X7200000Y11200000D03*
G54D21*
X9860000Y12150000D03*
Y11640000D03*
Y11900000D03*
Y12890000D03*
Y12630000D03*
Y12390000D03*
X10160000Y12150000D03*
Y11640000D03*
Y11900000D03*
Y12890000D03*
Y12630000D03*
Y12390000D03*
X11280000Y12890000D03*
X10800000Y14070000D03*
X11100000D03*
X11580000Y12890000D03*
G54D13*
X7772800Y12329570D03*
X8509180Y11952400D03*
X7952400Y12509180D03*
X8132010Y12688780D03*
X8311610Y12868390D03*
X8491220Y13047990D03*
X8868390Y12311610D03*
X8688780Y12132010D03*
X9227600Y12670820D03*
X9047990Y12491220D03*
X8826000Y13810000D03*
X9080000D03*
X8670820Y13227600D03*
X8850430Y13407200D03*
X8826000Y14070000D03*
X9080000D03*
X9407200Y12850430D03*
G54D22*
G01X7213930Y12633930D02*
X6997040Y12850820D01*
X6957210D01*
X6868820Y12939210D01*
G01X8329570Y11772800D02*
X8262210Y11705440D01*
X7584570D01*
X6710010Y12580000D01*
X6509610D01*
G01X7700000Y12010000D02*
X7438820D01*
X6689210Y12759610D01*
G01X7393930Y12443930D02*
X7508290Y12329570D01*
X7772800D01*
G01X7393930Y12443930D02*
X7291050Y12546810D01*
Y12556810D01*
X7213930Y12633930D01*
G01X7918020Y12902020D02*
X7840860Y12824860D01*
X7447280D01*
X7426070Y12846070D01*
G01X8826000Y14070000D02*
X8720000D01*
X7630000Y12980000D01*
G01X7952400Y12509180D02*
X7749610Y12711970D01*
X7661970D01*
X7606070Y12656070D01*
G01X8521100Y10550000D02*
X8517290D01*
X8335140Y10367850D01*
Y10187280D01*
X8313930Y10166070D01*
G01X8560000Y11600000D02*
X8454560Y11705440D01*
X8396930D01*
X8329570Y11772800D01*
G01X8132010Y12688780D02*
X7918020Y12902020D01*
G01D02*
X8826000Y13810000D01*
G01X8800000Y10210000D02*
X8970000Y10380000D01*
X8970940D01*
G01X8800000Y10210000D02*
X8621050Y10031050D01*
X8603190D01*
X8526070Y9953930D01*
G01X8698900Y10456020D02*
X8894920D01*
X8970940Y10380000D01*
G01D02*
X9080000D01*
G01X8520000Y10880000D02*
X8521100Y10878900D01*
Y10550000D01*
G01X8829260Y10762680D02*
X8713100Y10646520D01*
G01X8698900D02*
X8713100D01*
G01D02*
X8937460D01*
X8970940Y10680000D01*
X9080000D01*
G01X9200000Y11640000D02*
X8821580D01*
X8509180Y11952400D01*
G01X9240000Y11900000D02*
X8920790D01*
X8688780Y12132010D01*
G01X9520000Y12150000D02*
X9389210D01*
X9047990Y12491220D01*
G01X14670000Y13830000D02*
X14200000Y14300000D01*
X9900000D01*
X9007200Y13407200D01*
G01X9860000Y12890000D02*
X9633830D01*
X9116630Y13407200D01*
X9007200D01*
G01X8850430D02*
X9007200D01*
G01X9520000Y12150000D02*
X9860000D01*
G01Y11640000D02*
X9200000D01*
G01X9860000Y11900000D02*
X9240000D01*
G01X9640000Y12630000D02*
X9860000D01*
G01X9407200Y12850430D02*
X9640000Y12630000D01*
G01X9227600Y12670820D02*
X9508420Y12390000D01*
X9590000D01*
G01D02*
X9860000D01*
G01X10050000Y10760000D02*
X10150000Y10660000D01*
Y10350000D01*
X10470000Y10030000D01*
G01X10200000Y10820000D02*
X10250000Y10695000D01*
Y10430000D01*
X10520000Y10160000D01*
G01X10160000Y12390000D02*
Y12150000D01*
G01D02*
Y11900000D01*
G01D02*
Y11640000D01*
G01Y12890000D02*
Y12630000D01*
G01D02*
Y12390000D01*
G01Y12890000D02*
Y12920000D01*
X10310000Y13070000D01*
G01X11270000Y10530000D02*
X11387120D01*
X11396020Y10521100D01*
X11476020D01*
G01X11280000Y12890000D02*
X11100000D01*
G01Y12740000D02*
X11194460D01*
X11194940Y12739520D01*
X11320000D01*
X11380000Y12679520D01*
Y12525110D01*
G03X11477580Y12289540I333134J-1D01*
G01X11506020Y12261100D01*
G01X14310000Y12650000D02*
X14250000D01*
X14220000Y12680000D01*
X11900000D01*
X11720500Y12859500D01*
Y12985040D01*
X11615540Y13090000D01*
X11050000D01*
G01X11516020Y13991100D02*
X11340000Y13830000D01*
G01X11610000Y14168900D02*
X11100000Y14070000D01*
G01X12000000Y10520000D02*
X11666520Y10521100D01*
G01X14680000Y10520000D02*
X14227150Y10969780D01*
X12070000Y10970000D01*
G01X11570000Y10698900D02*
Y10960000D01*
G01X12000000Y12200000D02*
X11778270D01*
X11777170Y12201100D01*
X11696520Y12261100D01*
G01X11580000Y12890000D02*
Y12538900D01*
X11600000Y12518900D01*
Y12438900D01*
G01X11706520Y13991100D02*
X12000000Y13820000D01*
X10310000Y13070000D03*
X11100000Y12740000D03*
X11050000Y13090000D03*
X14310000Y12650000D03*
G54D14*
X7606070Y12656070D03*
X7393930Y12443930D03*
X7426070Y12846070D03*
X7213930Y12633930D03*
G54D23*
X11476020Y10521100D03*
X11666520D03*
X11570000Y10698900D03*
X11696520Y12261100D03*
X11506020D03*
X11600000Y12438900D03*
X11706520Y13991100D03*
X11516020D03*
X11610000Y14168900D03*
G54D24*
X12000000Y10012000D03*
Y10520000D03*
Y10266000D03*
Y12200000D03*
Y11946000D03*
Y11692000D03*
Y13820000D03*
Y13566000D03*
Y13312000D03*
X14680000Y10012000D03*
Y10520000D03*
Y10266000D03*
X14670000Y12200000D03*
Y11946000D03*
Y11692000D03*
Y13830000D03*
Y13576000D03*
Y13322000D03*
G54D15*
X7630000Y12980000D03*
X7700000Y12010000D03*
X8800000Y10210000D03*
X8829260Y10762680D03*
X8560000Y11600000D03*
X9520000Y12150000D03*
X9200000Y11640000D03*
X9240000Y11900000D03*
X9640000Y12630000D03*
X9590000Y12390000D03*
X10260000Y9780000D03*
X10470000Y10030000D03*
X10520000Y10160000D03*
X10510000Y11250000D03*
X10050000Y10760000D03*
X10200000Y10820000D03*
X10610000Y12490000D03*
X10760000Y9780000D03*
X11270000Y10530000D03*
X11010000Y11250000D03*
X11110000Y12490000D03*
X10740000Y13510000D03*
X11240000D03*
X11340000Y13830000D03*
X11680000Y10260000D03*
X12070000Y10970000D03*
X11560000Y12080000D03*
X11570000Y13590000D03*
G54D25*
X13830000Y10260000D03*
Y11940000D03*
Y13570000D03*
X16500000Y10260000D03*
X16490000Y11940000D03*
Y13570000D03*
G54D16*
X8313930Y10166070D03*
X8526070Y9953930D03*
G54D17*
X8329570Y11772800D03*
G54D26*
X12970000Y9900000D03*
X12870000D03*
X12770000D03*
X12670000D03*
X12970000Y10200000D03*
Y10100000D03*
Y10000000D03*
X12870000Y10200000D03*
Y10100000D03*
Y10000000D03*
X12770000Y10200000D03*
Y10100000D03*
Y10000000D03*
X12670000Y10200000D03*
Y10100000D03*
Y10000000D03*
X12970000Y10700000D03*
X12870000D03*
X12770000D03*
X12670000D03*
X12770000Y10600000D03*
X12870000D03*
X12670000Y10500000D03*
X12970000D03*
X12670000Y10400000D03*
X12970000D03*
X12770000Y10300000D03*
X12870000D03*
X12770000Y10500000D03*
X12870000D03*
X12770000Y10400000D03*
X12870000D03*
X12670000Y10600000D03*
X12970000D03*
X12670000Y10300000D03*
X12970000D03*
X12990000Y12160000D03*
Y12060000D03*
Y11960000D03*
Y11860000D03*
Y11760000D03*
Y11660000D03*
Y11560000D03*
X12890000Y11860000D03*
Y11760000D03*
Y11660000D03*
Y11560000D03*
X12790000Y11860000D03*
Y11760000D03*
Y11660000D03*
Y11560000D03*
X12690000Y11860000D03*
Y11760000D03*
Y11660000D03*
Y11560000D03*
X12590000Y11860000D03*
Y11760000D03*
Y11660000D03*
Y11560000D03*
Y12160000D03*
X12890000D03*
X12590000Y12060000D03*
X12890000D03*
X12690000Y11960000D03*
X12790000D03*
X12690000Y12160000D03*
X12790000D03*
X12690000Y12060000D03*
X12790000D03*
X12590000Y11960000D03*
X12890000D03*
X12990000Y12360000D03*
Y12260000D03*
X12890000Y12360000D03*
X12790000D03*
X12690000D03*
X12590000D03*
X12690000Y12260000D03*
X12790000D03*
X12590000D03*
X12890000D03*
X12970000Y13490000D03*
Y13390000D03*
Y13290000D03*
Y13190000D03*
X12870000Y13490000D03*
Y13390000D03*
Y13290000D03*
Y13190000D03*
X12770000Y13490000D03*
Y13390000D03*
Y13290000D03*
Y13190000D03*
X12670000Y13490000D03*
Y13390000D03*
Y13290000D03*
Y13190000D03*
Y13690000D03*
X12970000D03*
X12770000Y13590000D03*
X12870000D03*
X12770000Y13690000D03*
X12870000D03*
X12670000Y13590000D03*
X12970000D03*
Y13990000D03*
X12870000D03*
X12770000D03*
X12670000D03*
X12770000Y13890000D03*
X12870000D03*
X12670000Y13790000D03*
X12970000D03*
X12770000D03*
X12870000D03*
X12670000Y13890000D03*
X12970000D03*
X13670000Y9900000D03*
X13570000D03*
X13470000D03*
X13370000D03*
X13270000D03*
X13170000D03*
X13070000D03*
X13670000Y10700000D03*
Y10600000D03*
Y10500000D03*
Y10400000D03*
Y10300000D03*
Y10200000D03*
Y10100000D03*
Y10000000D03*
X13570000Y10700000D03*
Y10600000D03*
Y10500000D03*
Y10400000D03*
Y10300000D03*
Y10200000D03*
Y10100000D03*
Y10000000D03*
X13470000Y10700000D03*
Y10600000D03*
Y10500000D03*
Y10400000D03*
Y10300000D03*
Y10200000D03*
Y10100000D03*
Y10000000D03*
X13370000Y10700000D03*
Y10600000D03*
Y10500000D03*
Y10400000D03*
Y10300000D03*
Y10200000D03*
Y10100000D03*
Y10000000D03*
X13270000Y10700000D03*
Y10600000D03*
Y10500000D03*
Y10400000D03*
Y10300000D03*
Y10200000D03*
Y10100000D03*
Y10000000D03*
X13170000Y10700000D03*
Y10600000D03*
Y10500000D03*
Y10400000D03*
Y10300000D03*
Y10200000D03*
Y10100000D03*
Y10000000D03*
X13070000Y10700000D03*
Y10600000D03*
Y10500000D03*
Y10400000D03*
Y10300000D03*
Y10200000D03*
Y10100000D03*
Y10000000D03*
X13590000Y12160000D03*
Y12060000D03*
Y11960000D03*
Y11860000D03*
Y11760000D03*
Y11660000D03*
Y11560000D03*
X13490000Y12160000D03*
Y12060000D03*
Y11960000D03*
Y11860000D03*
Y11760000D03*
Y11660000D03*
Y11560000D03*
X13390000Y12160000D03*
Y12060000D03*
Y11960000D03*
Y11860000D03*
Y11760000D03*
Y11660000D03*
Y11560000D03*
X13290000Y12160000D03*
Y12060000D03*
Y11960000D03*
Y11860000D03*
Y11760000D03*
Y11660000D03*
Y11560000D03*
X13190000Y12160000D03*
Y12060000D03*
Y11960000D03*
Y11860000D03*
Y11760000D03*
Y11660000D03*
Y11560000D03*
X13090000Y12160000D03*
Y12060000D03*
Y11960000D03*
Y11860000D03*
Y11760000D03*
Y11660000D03*
Y11560000D03*
X13590000Y12360000D03*
Y12260000D03*
X13490000Y12360000D03*
Y12260000D03*
X13390000Y12360000D03*
Y12260000D03*
X13290000Y12360000D03*
Y12260000D03*
X13190000Y12360000D03*
Y12260000D03*
X13090000Y12360000D03*
Y12260000D03*
X13670000Y13690000D03*
Y13590000D03*
Y13490000D03*
Y13390000D03*
Y13290000D03*
Y13190000D03*
X13570000Y13690000D03*
Y13590000D03*
Y13490000D03*
Y13390000D03*
Y13290000D03*
Y13190000D03*
X13470000Y13690000D03*
Y13590000D03*
Y13490000D03*
Y13390000D03*
Y13290000D03*
Y13190000D03*
X13370000Y13690000D03*
Y13590000D03*
Y13490000D03*
Y13390000D03*
Y13290000D03*
Y13190000D03*
X13270000Y13690000D03*
Y13590000D03*
Y13490000D03*
Y13390000D03*
Y13290000D03*
Y13190000D03*
X13170000Y13690000D03*
Y13590000D03*
Y13490000D03*
Y13390000D03*
Y13290000D03*
Y13190000D03*
X13070000Y13690000D03*
Y13590000D03*
Y13490000D03*
Y13390000D03*
Y13290000D03*
Y13190000D03*
X13670000Y13990000D03*
Y13890000D03*
Y13790000D03*
X13570000Y13990000D03*
Y13890000D03*
Y13790000D03*
X13470000Y13990000D03*
Y13890000D03*
Y13790000D03*
X13370000Y13990000D03*
Y13890000D03*
Y13790000D03*
X13270000Y13990000D03*
Y13890000D03*
Y13790000D03*
X13170000Y13990000D03*
Y13890000D03*
Y13790000D03*
X13070000Y13990000D03*
Y13890000D03*
Y13790000D03*
X15250000Y9860000D03*
Y10160000D03*
Y10060000D03*
Y9960000D03*
Y10660000D03*
Y10460000D03*
Y10360000D03*
Y10560000D03*
Y10260000D03*
X15200000Y11850000D03*
Y11750000D03*
Y11650000D03*
Y11550000D03*
Y12150000D03*
Y12050000D03*
Y11950000D03*
Y12350000D03*
Y12250000D03*
X15950000Y9860000D03*
X15850000D03*
X15750000D03*
X15650000D03*
X15550000D03*
X15450000D03*
X15350000D03*
X15950000Y10660000D03*
Y10560000D03*
Y10460000D03*
Y10360000D03*
Y10260000D03*
Y10160000D03*
Y10060000D03*
Y9960000D03*
X15850000Y10660000D03*
Y10560000D03*
Y10460000D03*
Y10360000D03*
Y10260000D03*
Y10160000D03*
Y10060000D03*
Y9960000D03*
X15750000Y10660000D03*
Y10560000D03*
Y10460000D03*
Y10360000D03*
Y10260000D03*
Y10160000D03*
Y10060000D03*
Y9960000D03*
X15650000Y10660000D03*
Y10560000D03*
Y10460000D03*
Y10360000D03*
Y10260000D03*
Y10160000D03*
Y10060000D03*
Y9960000D03*
X15550000Y10160000D03*
Y10060000D03*
Y9960000D03*
X15450000Y10160000D03*
Y10060000D03*
Y9960000D03*
X15350000Y10160000D03*
Y10060000D03*
Y9960000D03*
X15550000Y10660000D03*
X15450000D03*
X15350000D03*
Y10560000D03*
X15450000D03*
X15550000Y10460000D03*
Y10360000D03*
X15350000Y10260000D03*
X15450000D03*
X15350000Y10460000D03*
X15450000D03*
X15350000Y10360000D03*
X15450000D03*
X15550000Y10560000D03*
Y10260000D03*
X16000000Y12150000D03*
Y12050000D03*
Y11950000D03*
Y11850000D03*
Y11750000D03*
Y11650000D03*
Y11550000D03*
X15900000Y12150000D03*
Y12050000D03*
Y11950000D03*
Y11850000D03*
Y11750000D03*
Y11650000D03*
Y11550000D03*
X15800000Y12150000D03*
Y12050000D03*
Y11950000D03*
Y11850000D03*
Y11750000D03*
Y11650000D03*
Y11550000D03*
X15700000Y12150000D03*
Y12050000D03*
Y11950000D03*
Y11850000D03*
Y11750000D03*
Y11650000D03*
Y11550000D03*
X15600000Y12150000D03*
Y12050000D03*
Y11950000D03*
Y11850000D03*
Y11750000D03*
Y11650000D03*
Y11550000D03*
X15500000Y11850000D03*
Y11750000D03*
Y11650000D03*
Y11550000D03*
X15400000Y11850000D03*
Y11750000D03*
Y11650000D03*
Y11550000D03*
X15300000Y11850000D03*
Y11750000D03*
Y11650000D03*
Y11550000D03*
X15500000Y12150000D03*
Y12050000D03*
X15300000Y11950000D03*
X15400000D03*
X15300000Y12150000D03*
X15400000D03*
X15300000Y12050000D03*
X15400000D03*
X15500000Y11950000D03*
X16000000Y12350000D03*
Y12250000D03*
X15900000Y12350000D03*
Y12250000D03*
X15800000Y12350000D03*
Y12250000D03*
X15700000Y12350000D03*
Y12250000D03*
X15600000Y12350000D03*
Y12250000D03*
X15500000Y12350000D03*
X15400000D03*
X15300000D03*
Y12250000D03*
X15400000D03*
X15500000D03*
X15980000Y13680000D03*
Y13580000D03*
Y13480000D03*
Y13380000D03*
Y13280000D03*
Y13180000D03*
X15880000Y13680000D03*
Y13580000D03*
Y13480000D03*
Y13380000D03*
Y13280000D03*
Y13180000D03*
X15780000Y13680000D03*
Y13580000D03*
Y13480000D03*
Y13380000D03*
Y13280000D03*
Y13180000D03*
X15680000Y13680000D03*
Y13580000D03*
Y13480000D03*
Y13380000D03*
Y13280000D03*
Y13180000D03*
X15580000Y13480000D03*
Y13380000D03*
Y13280000D03*
Y13180000D03*
X15480000Y13480000D03*
Y13380000D03*
Y13280000D03*
Y13180000D03*
X15380000Y13480000D03*
Y13380000D03*
Y13280000D03*
Y13180000D03*
X15280000Y13480000D03*
Y13380000D03*
Y13280000D03*
Y13180000D03*
Y13680000D03*
X15580000D03*
X15380000Y13580000D03*
X15480000D03*
X15380000Y13680000D03*
X15480000D03*
X15280000Y13580000D03*
X15580000D03*
X15980000Y13980000D03*
Y13880000D03*
Y13780000D03*
X15880000Y13980000D03*
Y13880000D03*
Y13780000D03*
X15780000Y13980000D03*
Y13880000D03*
Y13780000D03*
X15680000Y13980000D03*
Y13880000D03*
Y13780000D03*
X15580000Y13980000D03*
X15480000D03*
X15380000D03*
X15280000D03*
X15380000Y13880000D03*
X15480000D03*
X15280000Y13780000D03*
X15580000D03*
X15380000D03*
X15480000D03*
X15280000Y13880000D03*
X15580000D03*
X16250000Y9860000D03*
X16150000D03*
X16050000D03*
X16250000Y10660000D03*
Y10560000D03*
Y10460000D03*
Y10360000D03*
Y10260000D03*
Y10160000D03*
Y10060000D03*
Y9960000D03*
X16150000Y10660000D03*
Y10560000D03*
Y10460000D03*
Y10360000D03*
Y10260000D03*
Y10160000D03*
Y10060000D03*
Y9960000D03*
X16050000Y10660000D03*
Y10560000D03*
Y10460000D03*
Y10360000D03*
Y10260000D03*
Y10160000D03*
Y10060000D03*
Y9960000D03*
X16200000Y12150000D03*
Y12050000D03*
Y11950000D03*
Y11850000D03*
Y11750000D03*
Y11650000D03*
Y11550000D03*
X16100000Y12150000D03*
Y12050000D03*
Y11950000D03*
Y11850000D03*
Y11750000D03*
Y11650000D03*
Y11550000D03*
X16200000Y12350000D03*
Y12250000D03*
X16100000Y12350000D03*
Y12250000D03*
X16280000Y13680000D03*
Y13580000D03*
Y13480000D03*
Y13380000D03*
Y13280000D03*
Y13180000D03*
X16180000Y13680000D03*
Y13580000D03*
Y13480000D03*
Y13380000D03*
Y13280000D03*
Y13180000D03*
X16080000Y13680000D03*
Y13580000D03*
Y13480000D03*
Y13380000D03*
Y13280000D03*
Y13180000D03*
X16280000Y13980000D03*
Y13880000D03*
Y13780000D03*
X16180000Y13980000D03*
Y13880000D03*
Y13780000D03*
X16080000Y13980000D03*
Y13880000D03*
Y13780000D03*
G54D27*
X17770000Y11440000D03*
Y11940000D03*
Y12440000D03*
G54D18*
X7762510Y13412510D03*
X8010000Y13660000D03*
G54D28*
G01X10665900Y9685900D02*
X10760000Y9780000D01*
G01X10665900Y9874100D02*
X10760000Y9780000D01*
G01X10689400Y13904100D02*
X10800000Y14070000D01*
G01X10760000Y9780000D02*
X10854100Y9874100D01*
G01X10760000Y9780000D02*
X10854100Y9685900D01*
G01X11404100Y11370600D02*
X11570000Y11260000D01*
G01X10915900Y11155900D02*
X11010000Y11250000D01*
G01D02*
X11104100Y11344100D01*
G01X10915900D02*
X11010000Y11250000D01*
G01D02*
X11104100Y11155900D01*
G01X11465900Y11985900D02*
X11560000Y12080000D01*
G01X11015900Y12395900D02*
X11110000Y12490000D01*
G01D02*
X11204100Y12584100D01*
G01X11015900D02*
X11110000Y12490000D01*
G01D02*
X11204100Y12395900D01*
G01X11145900Y13415900D02*
X11240000Y13510000D01*
G01X11145900Y13604100D02*
X11240000Y13510000D01*
G01D02*
X11334100Y13415900D01*
G01X11475900Y13684100D02*
X11570000Y13590000D01*
G01X10744700Y13904100D02*
X10800000Y14070000D01*
G01X11680000Y10260000D02*
X11774100Y10354100D01*
G01X11585900D02*
X11680000Y10260000D01*
G01X11570000Y11260000D02*
X11735900Y11370600D01*
G01X11560000Y12080000D02*
X11654100Y11985900D01*
G01X11570000Y13590000D02*
X11664100Y13684100D01*
G01X11570000Y13590000D02*
X11664100Y13495900D01*
G54D19*
X9080000Y10380000D03*
Y10680000D03*
X11570000Y11260000D03*
Y10960000D03*
G54D29*
G01X11869410Y9881410D02*
X12000000Y10012000D01*
G01Y9834500D02*
Y10012000D01*
G01X11927930Y9841960D02*
X12000000Y10012000D01*
G01X11822500D02*
X12000000D01*
G01X11822500Y10266000D02*
X12000000D01*
G01D02*
X12177500D01*
G01X12000000D02*
X12170040Y10338070D01*
G01X11829960D02*
X12000000Y10266000D01*
G01X11869410Y11561410D02*
X12000000Y11692000D01*
G01D02*
X12130590Y11561410D01*
G01X12000000Y11514500D02*
Y11692000D01*
G01X11822500D02*
X12000000D01*
G01X11822500Y11946000D02*
X12000000D01*
G01D02*
X12177500D01*
G01X12000000D02*
X12170040Y12018070D01*
G01X11829960D02*
X12000000Y11946000D01*
G01X11869410Y13181410D02*
X12000000Y13312000D01*
G01Y13134500D02*
Y13312000D01*
G01X11822500D02*
X12000000D01*
G01X11927930Y13141960D02*
X12000000Y13312000D01*
G01X11822500Y13566000D02*
X12000000D01*
G01D02*
X12177500D01*
G01X12000000D02*
X12170040Y13638070D01*
G01X11829960D02*
X12000000Y13566000D01*
G01X14502500Y10266000D02*
X14680000D01*
G01X14509960Y10193930D02*
X14680000Y10266000D01*
G01X14492500Y11946000D02*
X14670000D01*
G01X14499960Y11873930D02*
X14670000Y11946000D01*
G01X14492500Y13576000D02*
X14670000D01*
G01X14499960Y13503930D02*
X14670000Y13576000D01*
G01X14680000Y10266000D02*
X14857500D01*
G01X14680000D02*
X14850040Y10338070D01*
G01X14670000Y11946000D02*
X14847500D01*
G01X14670000D02*
X14840040Y12018070D01*
G01X14670000Y13576000D02*
X14847500D01*
G01X14670000D02*
X14840040Y13648070D01*
G01X17583970Y11253970D02*
X17770000Y11440000D01*
G01X17583970Y11626030D02*
X17770000Y11440000D01*
G01X17514100Y11940000D02*
X17770000D01*
G01X17527520Y11837930D02*
X17770000Y11940000D01*
G01X17527520Y12042070D02*
X17770000Y11940000D01*
G01X17583970Y12253970D02*
X17770000Y12440000D01*
G01X17583970Y12626030D02*
X17770000Y12440000D01*
G01Y11440000D02*
X17956030Y11626030D01*
G01X17770000Y11440000D02*
X17956030Y11253970D01*
G01X17770000Y12440000D02*
X17956030Y12253970D01*
G01X17770000Y12440000D02*
X17956030Y12626030D01*
M02*
