G04 ================== begin FILE IDENTIFICATION RECORD ==================*
G04 Layout Name:  QUADCOPTER1mthrbrd1_2.brd*
G04 Film Name:    PROMASK*
G04 File Format:  Gerber RS274X*
G04 File Origin:  Cadence Allegro 16.6-P004*
G04 Origin Date:  Tue Sep 29 12:25:37 2015*
G04 *
G04 Layer:  VIA CLASS/SOLDERMASK_TOP*
G04 Layer:  PIN/SOLDERMASK_TOP*
G04 Layer:  PACKAGE GEOMETRY/SOLDERMASK_TOP*
G04 *
G04 Offset:    (0.0000 0.0000)*
G04 Mirror:    No*
G04 Mode:      Positive*
G04 Rotation:  0*
G04 FullContactRelief:  No*
G04 UndefLineWidth:     0.0000*
G04 ================== end FILE IDENTIFICATION RECORD ====================*
%FSLAX25Y25*MOMM*%
%IR0*IPPOS*OFA0.00000B0.00000*MIA0B0*SFA1.00000B1.00000*%
%AMMACRO20*
4,1,5,.0424,.2191,
.2191,.0424,
-.0424,-.2191,
-.1873,-.0742,
-.1874,-.0106,
.0424,.2191,
0.0*
%
%ADD20MACRO20*%
%ADD14C,.92*%
%AMMACRO25*
21,1,1.3,1.8999,0.0,0.0,135.*%
%ADD25MACRO25*%
%AMMACRO19*
21,1,.2499,.3701,0.0,0.0,135.*%
%ADD19MACRO19*%
%AMMACRO22*
21,1,.35,1.5499,0.0,0.0,45.*%
%ADD22MACRO22*%
%AMMACRO28*
21,1,1.3,1.3,0.0,0.0,45.*%
%ADD28MACRO28*%
%AMMACRO26*
4,1,7,.4243,-.6718,
.5127,-.5834,
.5126,-.5126,
.601,-.4242,
.6718,-.4243,
-.4243,.6718,
-.6718,.4243,
.4243,-.6718,
0.0*
%
%ADD26MACRO26*%
%ADD10C,4.1001*%
%AMMACRO16*
21,1,1.,1.,0.0,0.0,45.*%
%ADD16MACRO16*%
%AMMACRO24*
21,1,2.25,1.75,0.0,0.0,45.*%
%ADD24MACRO24*%
%ADD11C,2.25*%
%ADD27C,2.413*%
%AMMACRO13*
21,1,.95,1.55,0.0,0.0,135.*%
%ADD13MACRO13*%
%ADD12C,1.75*%
%AMMACRO21*
21,1,.35,1.5499,0.0,0.0,135.*%
%ADD21MACRO21*%
%AMMACRO23*
21,1,1.3,1.8999,0.0,0.0,45.*%
%ADD23MACRO23*%
%AMMACRO18*
21,1,.2499,.3701,0.0,0.0,45.*%
%ADD18MACRO18*%
%ADD17R,1.8999X1.3*%
%ADD15R,1.3X1.8999*%
%LPD*%
G75*
G54D10*
X-6362500Y-1512490D03*
Y1512490D03*
X-3425010Y0D03*
X-1512490Y-6362500D03*
Y6362500D03*
X0Y-3425010D03*
Y3425010D03*
X1512490Y-6362500D03*
Y6362500D03*
X3425010Y0D03*
X6362500Y-1512490D03*
Y1512490D03*
G54D11*
X-3834360Y-1743830D03*
X-4283370Y-2192840D03*
X-2283570Y4210560D03*
X-1834560Y3761550D03*
X1657380Y-3984250D03*
X2106390Y-4433260D03*
X2849210Y-3270020D03*
X3298220Y-2821010D03*
X4418950Y2125360D03*
X3969940Y1676350D03*
G54D20*
X-21910Y195150D03*
G54D21*
X734300Y827090D03*
X698930Y862450D03*
X663590Y897800D03*
X628220Y933170D03*
X592880Y968510D03*
X557510Y1003880D03*
X1087860Y473530D03*
X1052490Y508900D03*
X1017150Y544240D03*
X981780Y579610D03*
X946430Y614950D03*
X911070Y650320D03*
X875720Y685660D03*
X840350Y721030D03*
X805010Y756370D03*
X769640Y791740D03*
X1335340Y1781710D03*
X1370710Y1746340D03*
X1406050Y1711000D03*
X1441420Y1675630D03*
X1476770Y1640290D03*
X1653560Y1463500D03*
X1688900Y1428150D03*
X1724270Y1392790D03*
X1759610Y1357440D03*
X1794980Y1322070D03*
X1830320Y1286730D03*
X1865690Y1251360D03*
X1512130Y1604920D03*
X1547480Y1569580D03*
X1582850Y1534210D03*
X1618190Y1498870D03*
G54D12*
X-3175610Y-1507580D03*
X-2928120Y-1260090D03*
X-2789150Y-280820D03*
Y-43810D03*
Y193200D03*
X-2278070Y1075850D03*
X-1924520Y1429410D03*
X-799410Y-1990540D03*
Y-1490540D03*
X-1318720Y475870D03*
Y731870D03*
Y987870D03*
Y1243870D03*
Y1499870D03*
X-1451030Y3031570D03*
X-1203540Y2784080D03*
X-193980Y-2667470D03*
X-271850Y2811380D03*
X-34840D03*
X280040Y-2667470D03*
X43030D03*
X202170Y2811380D03*
X1367830Y-3356830D03*
X1120340Y-3109340D03*
X2266850Y1915640D03*
Y2415640D03*
X2631980Y-298240D03*
Y-61230D03*
Y175780D03*
X3066440Y946660D03*
X3313930Y1194150D03*
G54D13*
X-3238100Y2788090D03*
X-3556300Y3106290D03*
X-2566700Y3459490D03*
X-2884900Y3777690D03*
G54D22*
X557510Y1251360D03*
X592880Y1286730D03*
X628220Y1322070D03*
X663590Y1357440D03*
X698930Y1392790D03*
X734300Y1428150D03*
X1476770Y614950D03*
X1441420Y579610D03*
X1406050Y544240D03*
X1370710Y508900D03*
X1335340Y473530D03*
X769640Y1463500D03*
X805010Y1498870D03*
X840350Y1534210D03*
X875720Y1569580D03*
X911070Y1604920D03*
X946430Y1640290D03*
X981780Y1675630D03*
X1017150Y1711000D03*
X1052490Y1746340D03*
X1582850Y721030D03*
X1547480Y685660D03*
X1512130Y650320D03*
X1865690Y1003880D03*
X1830320Y968510D03*
X1794980Y933170D03*
X1759610Y897800D03*
X1724270Y862450D03*
X1688900Y827090D03*
X1653560Y791740D03*
X1618190Y756370D03*
G54D23*
X260920Y1677790D03*
X473060Y1889930D03*
X799510Y-1832990D03*
X1011650Y-1620850D03*
X2287100Y-1926590D03*
X2929280Y-2298670D03*
X2717140Y-2510810D03*
X2841940Y-1672700D03*
X2499240Y-1714450D03*
X3054080Y-1460560D03*
G54D14*
X-2408900Y2079610D03*
X-2630420Y1855880D03*
X-2541370Y1697280D03*
X-1801470Y475870D03*
X-1605240Y1463020D03*
X-2280590Y1957020D03*
X-913780Y-649350D03*
X-934180Y-271050D03*
X-1349920Y1755130D03*
X-630240Y-650260D03*
X-337870Y-202020D03*
X-275730Y327210D03*
X-461890Y385970D03*
X-407420Y183560D03*
X-115370Y1465040D03*
X-527940Y1075490D03*
X-406770Y947310D03*
X67470Y-650650D03*
X429260Y-293930D03*
X34820Y-440440D03*
X246290Y-273560D03*
X461240Y231010D03*
X552500Y102960D03*
X331890Y908700D03*
X111800Y1073280D03*
X111670Y948350D03*
X53170Y1755130D03*
X199940Y1935050D03*
X893620Y-98930D03*
X920660Y143130D03*
X936910Y993720D03*
X1154270Y1153880D03*
X1267240Y1377600D03*
X811330Y1864070D03*
X967590Y2013960D03*
X1862380Y287560D03*
X1936220Y654160D03*
X2064790Y885170D03*
X1911910Y1547000D03*
X1563250Y1796730D03*
X2510690Y-2833740D03*
X2328300Y620100D03*
X2797340Y1346540D03*
G54D15*
X-1952740Y-280540D03*
X-2252760D03*
X-1954950Y190840D03*
X-2254970D03*
X2015400Y-296010D03*
X2014230Y176280D03*
X2315420Y-296010D03*
X2314250Y176280D03*
G54D24*
X1411410Y-2426450D03*
X1079070Y-2094110D03*
X1743750Y-2758790D03*
G54D16*
X-822770Y-179790D03*
X-388050Y-408720D03*
X-491010Y-511680D03*
X-150800Y-645970D03*
X-253760Y-748930D03*
X-230100Y-567320D03*
X-333060Y-670280D03*
X-307190Y-489060D03*
X-410150Y-592020D03*
X-466180Y-330460D03*
X-569140Y-433420D03*
X-648440Y-354120D03*
X-545480Y-251160D03*
X-732030Y-271700D03*
X-629070Y-168740D03*
X-719810Y-76830D03*
X-297700Y480350D03*
X-194740Y583310D03*
X642330Y-667030D03*
X539370Y-564070D03*
X722670Y-589290D03*
X619710Y-486330D03*
X272740Y642980D03*
X198900Y569140D03*
X95940Y672100D03*
X351130Y552630D03*
X454090Y449670D03*
X686400Y492960D03*
X583440Y595920D03*
X508950Y671190D03*
X169780Y745940D03*
X168740Y1410240D03*
X65780Y1307280D03*
X405990Y774150D03*
X670020Y2010710D03*
X582010Y2103010D03*
X684970Y2205970D03*
X1485900Y239200D03*
X772980Y2113670D03*
X1653340Y68770D03*
X1756300Y171730D03*
X1674010Y255580D03*
X1571050Y152620D03*
X1588860Y342160D03*
X1771640Y1861730D03*
X1874600Y1758770D03*
G54D25*
X1443640Y-1609390D03*
X1231500Y-1397250D03*
X2594790Y-1424790D03*
X2382650Y-1212650D03*
X2806040Y-1219000D03*
X2593900Y-1006860D03*
G54D17*
X-194480Y-1970420D03*
Y-2270440D03*
X-106600Y813420D03*
Y1113440D03*
X-272740Y2101070D03*
Y2401090D03*
X278980Y-1970420D03*
Y-2270440D03*
X200850Y2097820D03*
Y2397840D03*
G54D26*
X1087860Y1781710D03*
G54D18*
X-149900Y58700D03*
X-119490Y89100D03*
X-89100Y119490D03*
X119490Y-89100D03*
X89100Y-119490D03*
X58700Y-149900D03*
X149900Y-58700D03*
X-58700Y149900D03*
G54D27*
X2377160Y-2329490D03*
X2736370Y-1970280D03*
X2556760Y-2149890D03*
G54D28*
X2283550Y-1582960D03*
X2091370Y-1642230D03*
X2148840Y-1448260D03*
G54D19*
X-102120Y-71120D03*
X-133140Y-40100D03*
X-164150Y-9090D03*
X-195150Y21910D03*
X21930Y-195180D03*
X-9090Y-164150D03*
X-40090Y-133160D03*
X-71100Y-102140D03*
X9090Y164150D03*
X40090Y133160D03*
X71100Y102140D03*
X102120Y71120D03*
X133140Y40100D03*
X164150Y9090D03*
X195150Y-21910D03*
M02*
