M48
INCH
T01C.023622
T02C.043307
T03C.055
T04C.059055
T05C.11811
;LEADER: 12 
;HEADER: 
;CODE  : ASCII 
;FILE  : QUADCOPTER1mthrbrd1_2-1-2.drl for board #Taaaabb01536.tmp ... layers TOP and BOTTOM
;T01 Holesize 1. = 23.622047 Tolerance = +0.000000/-0.000000 PLATED MILS Quantity = 43
;T02 Holesize 2. = 43.307087 Tolerance = +0.000000/-0.000000 PLATED MILS Quantity = 31
;T03 Holesize 3. = 55.000000 Tolerance = +0.000000/-0.000000 PLATED MILS Quantity = 3
;T04 Holesize 4. = 59.055118 Tolerance = +0.000000/-0.000000 PLATED MILS Quantity = 10
%
G90
T01
X0098846Y-0111565
X0035182Y-0003895
X0016900Y-0011572
X0009696Y-0010770
X0002656Y-0025616
X0001371Y-0017340
X-0013302Y-0007954
X-0024813Y-0025601
X-0035976Y-0025565
X-0036779Y-0010671
X-0070924Y0018735
X-0020785Y0042342
X-0018185Y0015196
X-0016040Y0007227
X-0016015Y0037296
X-0010856Y0012882
X0004396Y0037337
X0004402Y0042255
X0013067Y0035776
X0018159Y0009095
X0021752Y0004054
X0036246Y0005635
X0036886Y0039123
X0045444Y0045428
X0073322Y0011321
X0076229Y0025754
X0081291Y0034849
X0091665Y0024413
X0110131Y0053013
X0075272Y0060906
X0061545Y0070737
X0049891Y0054236
X0038094Y0079290
X0031942Y0073389
X0007872Y0076183
X0002093Y0069100
X-0004542Y0057679
X-0053146Y0069100
X-0063198Y0057599
X-0089787Y0077048
X-0094839Y0081874
X-0100054Y0066822
X-0103560Y0073066
T02
X-0125024Y-0059354
X-0115280Y-0049610
X-0109809Y-0011056
X-0109809Y-0001725
X-0109809Y0007606
X-0089688Y0042356
X-0075769Y0056276
X-0057127Y0119353
X-0010703Y0110684
X-0001372Y0110684
X-0047383Y0109609
X-0051918Y0059050
X-0051918Y0048971
X-0051918Y0038893
X-0051918Y0028814
X-0051918Y0018735
X-0031473Y-0058683
X-0031473Y-0078368
X-0007637Y-0105019
X0053852Y-0132159
X0044108Y-0122415
X0011025Y-0105019
X0001694Y-0105019
X0007959Y0110684
X0089246Y0095104
X0089246Y0075419
X0130470Y0047014
X0120726Y0037270
X0103621Y0006920
R02Y-0009331
T03
X0093589Y-0091712
X0100660Y-0084641
X0107731Y-0077570
T04
X-0168637Y-0086332
X-0150959Y-0068655
X-0089904Y0165770
X-0072227Y0148093
X0065251Y-0156860
X0082929Y-0174538
X0112174Y-0128741
X0129851Y-0111063
X0156297Y0065998
X0173974Y0083676
M30
