M48
INCH
T01C.023618
T02C.043307
T03C.059055
T04C.11811
;LEADER: 12 
;HEADER: 
;CODE  : ASCII 
;FILE  : QUADCOPTER1mthrbrd1_1-1-2.drl for board #Taaaagm07312.tmp ... layers TOP and BOTTOM
;T01 Holesize 1. = 23.618110 Tolerance = +0.000000/-0.000000 PLATED MILS Quantity = 20
;T02 Holesize 2. = 43.307087 Tolerance = +0.000000/-0.000000 PLATED MILS Quantity = 31
;T03 Holesize 3. = 59.055118 Tolerance = +0.000000/-0.000000 PLATED MILS Quantity = 10
%
G90
T01
X-0050045Y-0062856
X-0058162Y-0044139
X-0056207Y0036661
X-0018666Y0045787
X-0022136Y0052369
X-0034870Y0057200
X-0021629Y0061673
X-0001994Y0061738
X-0018681Y0074898
X-0041912Y0084710
X-0001459Y0093928
X0010410Y0110290
X0001141Y0055332
X0005702Y0050577
X0045638Y0030130
X0029066Y0023119
X0016506Y0004335
X0051166Y-0045915
X0088477Y-0001663
X0126294Y0057036
T02
X-0149074Y-0067599
X-0139330Y-0057855
X-0107275Y0029567
X-0113873Y0036165
X-0120471Y0042763
X-0075558Y0155467
X-0065814Y0145723
X-0048817Y0131439
X-0042219Y0124841
X-0035621Y0118243
X-0064579Y0091516
X-0064579Y0071831
X-0051601Y-0024930
X-0045003Y-0031528
X-0038406Y-0038125
X-0031808Y-0044723
X-0025210Y-0051321
X0056667Y-0105263
X0063265Y-0111861
X0069863Y-0118459
X0083189Y-0147396
X0073445Y-0137652
X0076442Y-0084970
X0076442Y-0065285
X0125272Y-0038422
X0118674Y-0031824
X0112076Y-0025226
X0079611Y0039075
X0099296Y0039075
X0139792Y0062534
X0149536Y0072278
T03
X-0159296Y0082309
X-0141618Y0064631
X-0076883Y-0142463
X-0059206Y-0124785
X-0003235Y-0086859
X0021765Y-0086859
X0073445Y0128091
X0091122Y0145769
X0143957Y-0060527
X0161635Y-0078205
M30
