M48
INCH
T01C.019685
T02C.023622
T03C.035433
T04C.036
T05C.03937
T06C.051181
T07C.055
T08C.062992
T09C.174
;LEADER: 12 
;HEADER: 
;CODE  : ASCII 
;FILE  : QUADCOPTER1brd3_3-1-2.drl for  ... layers TOP and BOTTOM
;T01 Holesize 1. = 19.685039 Tolerance = +0.000000/-0.000000 PLATED MILS Quantity = 96
;T02 Holesize 2. = 23.622047 Tolerance = +0.000000/-0.000000 PLATED MILS Quantity = 23
;T03 Holesize 3. = 35.433071 Tolerance = +0.000000/-0.000000 PLATED MILS Quantity = 8
;T04 Holesize 4. = 36.000000 Tolerance = +0.000000/-0.000000 PLATED MILS Quantity = 18
;T05 Holesize 5. = 39.370079 Tolerance = +0.000000/-0.000000 PLATED MILS Quantity = 5
;T06 Holesize 6. = 51.181102 Tolerance = +0.000000/-0.000000 PLATED MILS Quantity = 5
;T07 Holesize 7. = 55.000000 Tolerance = +0.000000/-0.000000 PLATED MILS Quantity = 18
;T08 Holesize 8. = 62.992126 Tolerance = +0.000000/-0.000000 PLATED MILS Quantity = 2
;T09 Holesize 9. = 174.000000 Tolerance = +0.000000/-0.000000 PLATED MILS Quantity = 3
%
G90
T01
X0632283Y0398031
X0632283Y0409843
X0644094Y0398031
X0644094Y0409843
X0636220Y0401969
X0636220Y0405906
X0640157Y0401969
X0640157Y0405906
X0632283Y0401969
X0632283Y0405906
X0636220Y0398031
X0636220Y0409843
X0640157Y0398031
X0640157Y0409843
X0644094Y0401969
X0644094Y0405906
X0527559Y0398031
X0527559Y0409843
X0539370Y0398031
X0539370Y0409843
X0531496Y0401969
X0531496Y0405906
X0535433Y0401969
X0535433Y0405906
X0527559Y0401969
X0527559Y0405906
X0531496Y0398031
X0531496Y0409843
X0535433Y0398031
X0535433Y0409843
X0539370Y0401969
X0539370Y0405906
X0527559Y0528346
X0527559Y0540157
X0539370Y0528346
X0539370Y0540157
X0531496Y0532283
X0531496Y0536220
X0535433Y0532283
X0535433Y0536220
X0527559Y0532283
X0527559Y0536220
X0531496Y0528346
X0531496Y0540157
X0535433Y0528346
X0535433Y0540157
X0539370Y0532283
X0539370Y0536220
X0631835Y0528602
X0631835Y0540413
X0643646Y0528602
X0643646Y0540413
X0635772Y0532539
X0635772Y0536476
X0639709Y0532539
X0639709Y0536476
X0631835Y0532539
X0631835Y0536476
X0635772Y0528602
X0635772Y0540413
X0639709Y0528602
X0639709Y0540413
X0643646Y0532539
X0643646Y0536476
X0632283Y0464173
X0632283Y0475984
X0644094Y0464173
X0644094Y0475984
X0636220Y0468110
X0636220Y0472047
X0640157Y0468110
X0640157Y0472047
X0632283Y0468110
X0632283Y0472047
X0636220Y0464173
X0636220Y0475984
X0640157Y0464173
X0640157Y0475984
X0644094Y0468110
X0644094Y0472047
X0527559Y0463386
X0527559Y0475197
X0539370Y0463386
X0539370Y0475197
X0531496Y0467323
X0531496Y0471260
X0535433Y0467323
X0535433Y0471260
X0527559Y0467323
X0527559Y0471260
X0531496Y0463386
X0531496Y0475197
X0535433Y0463386
X0535433Y0475197
X0539370Y0467323
X0539370Y0471260
T02
X0455512Y0535039
X0455118Y0471260
X0459843Y0403937
X0302756Y0509055
X0377559Y0487795
X0448031Y0519685
X0559449Y0498425
X0379528Y0497244
X0446457Y0544488
X0363780Y0468504
X0414173Y0400000
X0401575Y0425984
X0448031Y0408661
X0362205Y0458268
X0412205Y0394882
X0395669Y0423622
X0476378Y0429921
X0292913Y0472835
X0374803Y0478346
X0433902Y0480358
X0347609Y0423728
X0337008Y0456693
X0346457Y0401969
T03
X0423622Y0385039
X0403937Y0385039
X0433465Y0442913
X0413780Y0442913
X0442520Y0531890
X0422835Y0531890
X0437402Y0491732
X0417717Y0491732
T04
X0357480Y0553937
X0347480Y0553937
X0357480Y0543701
X0347480Y0543701
X0327936Y0463496
X0335007Y0470567
X0342078Y0477638
X0349149Y0484709
X0356220Y0491780
X0363291Y0498851
X0370362Y0505922
X0348442Y0527843
X0341371Y0520772
X0334300Y0513700
X0327229Y0506630
X0320158Y0499558
X0313087Y0492487
X0306016Y0485416
T05
X0284568Y0523560
X0277497Y0516489
X0270426Y0509418
X0263355Y0502347
X0256284Y0495276
T06
X0315354Y0537795
X0305611Y0528052
X0699606Y0450394
R02Y0019685
T07
X0472441Y0414173
R02Y-0010000
X0577953Y0414173
R02Y-0010000
X0472441Y0480315
R02Y-0010000
X0577559Y0480315
R02Y-0010000
X0472441Y0544094
R02Y-0010000
X0577559Y0544488
R02Y-0010000
T08
X0283465Y0440945
X0301142Y0423267
T09
X0262992Y0469685
X0381102Y0528740
X0381102Y0410630
M30
