M48
INCH
T01C.019685
T02C.023622
T03C.035433
T04C.036
T05C.03937
T06C.051181
T07C.055
T08C.062992
T09C.174
;LEADER: 12 
;HEADER: 
;CODE  : ASCII 
;FILE  : QUADCOPTER1brd3_4-1-2.drl for  ... layers TOP and BOTTOM
;T01 Holesize 1. = 19.685039 Tolerance = +0.000000/-0.000000 PLATED MILS Quantity = 598
;T02 Holesize 2. = 23.622047 Tolerance = +0.000000/-0.000000 PLATED MILS Quantity = 20
;T03 Holesize 3. = 35.433071 Tolerance = +0.000000/-0.000000 PLATED MILS Quantity = 8
;T04 Holesize 4. = 36.000000 Tolerance = +0.000000/-0.000000 PLATED MILS Quantity = 18
;T05 Holesize 5. = 39.370079 Tolerance = +0.000000/-0.000000 PLATED MILS Quantity = 5
;T06 Holesize 6. = 51.181102 Tolerance = +0.000000/-0.000000 PLATED MILS Quantity = 5
;T07 Holesize 7. = 55.000000 Tolerance = +0.000000/-0.000000 PLATED MILS Quantity = 18
;T08 Holesize 8. = 62.992126 Tolerance = +0.000000/-0.000000 PLATED MILS Quantity = 2
;T09 Holesize 9. = 174.000000 Tolerance = +0.000000/-0.000000 PLATED MILS Quantity = 3
%
G90
T01
X0510630Y0405512
X0498819Y0405512
X0510630Y0417323
X0498819Y0417323
X0506693Y0409449
X0502756Y0409449
X0506693Y0413386
X0502756Y0413386
X0506693Y0405512
X0502756Y0405512
X0510630Y0409449
X0498819Y0409449
X0510630Y0413386
X0498819Y0413386
X0506693Y0417323
X0502756Y0417323
X0498819Y0421260
R03X0003937
X0498819Y0389764
R03Y0003937
X0502756Y0389764
R03Y0003937
X0506693Y0389764
R03Y0003937
X0510630Y0389764
R03Y0003937
X0514567Y0389764
R08Y0003937
X0518504Y0389764
R08Y0003937
X0522441Y0389764
R08Y0003937
X0526378Y0389764
R08Y0003937
X0530315Y0389764
R08Y0003937
X0534252Y0389764
R08Y0003937
X0538189Y0389764
R08Y0003937
X0612205Y0403937
X0600394Y0403937
X0612205Y0415748
X0600394Y0415748
X0608268Y0407874
X0604331Y0407874
X0608268Y0411811
X0604331Y0411811
X0608268Y0403937
X0604331Y0403937
X0612205Y0407874
X0600394Y0407874
X0612205Y0411811
X0600394Y0411811
X0608268Y0415748
X0604331Y0415748
X0600394Y0419685
R03X0003937
X0600394Y0388189
R03Y0003937
X0604331Y0388189
R03Y0003937
X0608268Y0388189
R03Y0003937
X0612205Y0388189
R03Y0003937
X0616142Y0388189
R08Y0003937
X0620079Y0388189
R08Y0003937
X0624016Y0388189
R08Y0003937
X0627953Y0388189
R08Y0003937
X0631890Y0388189
R08Y0003937
X0635827Y0388189
R08Y0003937
X0639764Y0388189
R08Y0003937
X0435039Y0515354
X0563386Y0498031
X0437008Y0501575
X0405906Y0514567
X0610236Y0470472
X0598425Y0470472
X0610236Y0482283
X0598425Y0482283
X0606299Y0474409
X0602362Y0474409
X0606299Y0478346
X0602362Y0478346
X0606299Y0470472
X0602362Y0470472
X0610236Y0474409
X0598425Y0474409
X0610236Y0478346
X0598425Y0478346
X0606299Y0482283
X0602362Y0482283
X0598425Y0486220
R03X0003937
X0598425Y0454724
R03Y0003937
X0602362Y0454724
R03Y0003937
X0606299Y0454724
R03Y0003937
X0610236Y0454724
R03Y0003937
X0614173Y0454724
R08Y0003937
X0618110Y0454724
R08Y0003937
X0622047Y0454724
R08Y0003937
X0625984Y0454724
R08Y0003937
X0629921Y0454724
R08Y0003937
X0633858Y0454724
R08Y0003937
X0637795Y0454724
R08Y0003937
X0507480Y0470866
X0495669Y0470866
X0507480Y0482677
X0495669Y0482677
X0503543Y0474803
X0499606Y0474803
X0503543Y0478740
X0499606Y0478740
X0503543Y0470866
X0499606Y0470866
X0507480Y0474803
X0495669Y0474803
X0507480Y0478740
X0495669Y0478740
X0503543Y0482677
X0499606Y0482677
X0495669Y0486614
R03X0003937
X0495669Y0455118
R03Y0003937
X0499606Y0455118
R03Y0003937
X0503543Y0455118
R03Y0003937
X0507480Y0455118
R03Y0003937
X0511417Y0455118
R08Y0003937
X0515354Y0455118
R08Y0003937
X0519291Y0455118
R08Y0003937
X0523228Y0455118
R08Y0003937
X0527165Y0455118
R08Y0003937
X0531102Y0455118
R08Y0003937
X0535039Y0455118
R08Y0003937
X0510630Y0535039
X0498819Y0535039
X0510630Y0546850
X0498819Y0546850
X0506693Y0538976
X0502756Y0538976
X0506693Y0542913
X0502756Y0542913
X0506693Y0535039
X0502756Y0535039
X0510630Y0538976
X0498819Y0538976
X0510630Y0542913
X0498819Y0542913
X0506693Y0546850
X0502756Y0546850
X0498819Y0550787
R03X0003937
X0498819Y0519291
R03Y0003937
X0502756Y0519291
R03Y0003937
X0506693Y0519291
R03Y0003937
X0510630Y0519291
R03Y0003937
X0514567Y0519291
R08Y0003937
X0518504Y0519291
R08Y0003937
X0522441Y0519291
R08Y0003937
X0526378Y0519291
R08Y0003937
X0530315Y0519291
R08Y0003937
X0534252Y0519291
R08Y0003937
X0538189Y0519291
R08Y0003937
X0613386Y0534646
X0601575Y0534646
X0613386Y0546457
X0601575Y0546457
X0609449Y0538583
X0605512Y0538583
X0609449Y0542520
X0605512Y0542520
X0609449Y0534646
X0605512Y0534646
X0613386Y0538583
X0601575Y0538583
X0613386Y0542520
X0601575Y0542520
X0609449Y0546457
X0605512Y0546457
X0601575Y0550394
R03X0003937
X0601575Y0518898
R03Y0003937
X0605512Y0518898
R03Y0003937
X0609449Y0518898
R03Y0003937
X0613386Y0518898
R03Y0003937
X0617323Y0518898
R08Y0003937
X0621260Y0518898
R08Y0003937
X0625197Y0518898
R08Y0003937
X0629134Y0518898
R08Y0003937
X0633071Y0518898
R08Y0003937
X0637008Y0518898
R08Y0003937
X0640945Y0518898
R08Y0003937
T02
X0455512Y0535039
X0455118Y0475591
X0459843Y0403937
X0300394Y0511024
X0377559Y0487795
X0379528Y0497244
X0446457Y0544488
X0363780Y0468504
X0414173Y0400000
X0401575Y0425984
X0443701Y0414567
X0362205Y0458268
X0412205Y0394882
X0395669Y0423622
X0475197Y0431890
X0303150Y0472835
X0374803Y0478346
X0347609Y0423728
X0337008Y0456693
X0346457Y0401969
T03
X0423622Y0385039
X0403937Y0385039
X0433465Y0442913
X0413780Y0442913
X0442520Y0531890
X0422835Y0531890
X0437402Y0491732
X0417717Y0491732
T04
X0357480Y0553937
X0347480Y0553937
X0357480Y0543701
X0347480Y0543701
X0327936Y0463496
X0335007Y0470567
X0342078Y0477638
X0349149Y0484709
X0356220Y0491780
X0363291Y0498851
X0370362Y0505922
X0348442Y0527843
X0341371Y0520772
X0334300Y0513700
X0327229Y0506630
X0320158Y0499558
X0313087Y0492487
X0306016Y0485416
T05
X0284568Y0523560
X0277497Y0516489
X0270426Y0509418
X0263355Y0502347
X0256284Y0495276
T06
X0315354Y0537795
X0305611Y0528052
X0699606Y0450394
R02Y0019685
T07
X0472441Y0414173
R02Y-0010000
X0577953Y0414173
R02Y-0010000
X0472441Y0480315
R02Y-0010000
X0577559Y0480315
R02Y-0010000
X0472441Y0544094
R02Y-0010000
X0577559Y0544488
R02Y-0010000
T08
X0283465Y0440945
X0301142Y0423267
T09
X0262992Y0469685
X0381102Y0528740
X0381102Y0410630
M30
