G04 ================== begin FILE IDENTIFICATION RECORD ==================*
G04 Layout Name:  QUADCOPTER1mthrbrd1_2.brd*
G04 Film Name:    SILK*
G04 File Format:  Gerber RS274X*
G04 File Origin:  Cadence Allegro 16.6-P004*
G04 Origin Date:  Tue Sep 29 12:25:37 2015*
G04 *
G04 Layer:  MANUFACTURING/AUTOSILK_TOP*
G04 *
G04 Offset:    (0.0000 0.0000)*
G04 Mirror:    No*
G04 Mode:      Positive*
G04 Rotation:  0*
G04 FullContactRelief:  No*
G04 UndefLineWidth:     0.1001*
G04 ================== end FILE IDENTIFICATION RECORD ====================*
%FSLAX25Y25*MOMM*%
%IR0*IPPOS*OFA0.00000B0.00000*MIA0B0*SFA1.00000B1.00000*%
%ADD10C,.1001*%
G75*
%LPD*%
G75*
G54D10*
G01X-2266680Y-383540D02*
Y-510540D01*
X-2202350D01*
G01X-2105040D02*
Y-383540D01*
X-2124330Y-408940D01*
G01Y-510540D02*
X-2085740D01*
G01X-2357790Y-128060D02*
Y-1060D01*
X-2317580D01*
X-2304720Y-7410D01*
X-2296680Y-15880D01*
X-2293460Y-32810D01*
X-2296680Y-49740D01*
X-2306330Y-60330D01*
X-2317580Y-66680D01*
X-2357790D01*
G01X-2317580D02*
X-2293460Y-128060D01*
G01X-2196150D02*
Y-1060D01*
X-2215440Y-26460D01*
G01Y-128060D02*
X-2176850D01*
G01X-2097220Y-22230D02*
X-2087570Y-9530D01*
X-2076310Y-3180D01*
X-2063450Y-1060D01*
X-2047370Y-5290D01*
X-2036110Y-15880D01*
X-2032890Y-28570D01*
X-2034500Y-41280D01*
X-2040940Y-51860D01*
X-2073100Y-73030D01*
X-2087570Y-87840D01*
X-2097220Y-109010D01*
X-2100440Y-128060D01*
X-2032890D01*
G01X-646950Y-734570D02*
Y-861570D01*
X-687160D01*
X-700030Y-855220D01*
X-708070Y-846750D01*
X-711290Y-829820D01*
X-708070Y-812890D01*
X-698420Y-802300D01*
X-687160Y-795950D01*
X-646950D01*
G01X-687160D02*
X-711290Y-734570D01*
G01X-808620D02*
Y-861570D01*
X-789320Y-836170D01*
G01Y-734570D02*
X-827920D01*
G01X-910780Y-749380D02*
X-922040Y-738800D01*
X-934900Y-734570D01*
X-947770Y-738800D01*
X-959030Y-751500D01*
X-967070Y-770550D01*
X-970290Y-789600D01*
Y-812890D01*
X-967070Y-831940D01*
X-959030Y-848870D01*
X-949380Y-857340D01*
X-938120Y-861570D01*
X-925250Y-857340D01*
X-915600Y-848870D01*
X-909170Y-836170D01*
X-905950Y-819230D01*
X-909170Y-804420D01*
X-917210Y-789600D01*
X-926860Y-781130D01*
X-938120Y-779020D01*
X-950990Y-783250D01*
X-960640Y-793840D01*
X-970290Y-812890D01*
G01X-730540Y-563250D02*
Y-690250D01*
X-770750D01*
X-783620Y-683900D01*
X-791660Y-675430D01*
X-794880Y-658500D01*
X-791660Y-641570D01*
X-782010Y-630980D01*
X-770750Y-624630D01*
X-730540D01*
G01X-770750D02*
X-794880Y-563250D01*
G01X-861650Y-669080D02*
X-871300Y-681780D01*
X-882560Y-688130D01*
X-895430Y-690250D01*
X-911510Y-686020D01*
X-922770Y-675430D01*
X-925990Y-662740D01*
X-924380Y-650030D01*
X-917940Y-639450D01*
X-885780Y-618280D01*
X-871300Y-603470D01*
X-861650Y-582300D01*
X-858430Y-563250D01*
X-925990D01*
G01X-1021710Y-690250D02*
X-1008840Y-686020D01*
X-999190Y-675430D01*
X-992760Y-662740D01*
X-987930Y-645800D01*
X-986330Y-626750D01*
X-987930Y-607700D01*
X-992760Y-590760D01*
X-999190Y-578060D01*
X-1008840Y-567480D01*
X-1021710Y-563250D01*
X-1034580Y-567480D01*
X-1044230Y-578060D01*
X-1050660Y-590760D01*
X-1055490Y-607700D01*
X-1057090Y-626750D01*
X-1055490Y-645800D01*
X-1050660Y-662740D01*
X-1044230Y-675430D01*
X-1034580Y-686020D01*
X-1021710Y-690250D01*
G01X-732380Y-382440D02*
Y-509440D01*
X-772590D01*
X-785460Y-503090D01*
X-793500Y-494620D01*
X-796720Y-477690D01*
X-793500Y-460760D01*
X-783850Y-450170D01*
X-772590Y-443820D01*
X-732380D01*
G01X-772590D02*
X-796720Y-382440D01*
G01X-863490Y-488270D02*
X-873140Y-500970D01*
X-884400Y-507320D01*
X-897270Y-509440D01*
X-913350Y-505210D01*
X-924610Y-494620D01*
X-927830Y-481930D01*
X-926220Y-469220D01*
X-919780Y-458640D01*
X-887620Y-437470D01*
X-873140Y-422660D01*
X-863490Y-401490D01*
X-860270Y-382440D01*
X-927830D01*
G01X-1023550D02*
Y-509440D01*
X-1004250Y-484040D01*
G01Y-382440D02*
X-1042850D01*
G01X-161520Y-272960D02*
X-34520D01*
Y-313170D01*
X-40870Y-326040D01*
X-49340Y-334080D01*
X-66270Y-337300D01*
X-83200Y-334080D01*
X-93790Y-324430D01*
X-100140Y-313170D01*
Y-272960D01*
G01Y-313170D02*
X-161520Y-337300D01*
G01Y-434630D02*
X-34520D01*
X-59920Y-415330D01*
G01X-161520D02*
Y-453930D01*
G01Y-560910D02*
X-134010Y-564130D01*
X-110720Y-568960D01*
X-89550Y-575390D01*
X-66270Y-583430D01*
X-34520Y-596300D01*
Y-531960D01*
G01X-423620Y-511470D02*
X-388260Y-476110D01*
X-455440Y-408930D01*
X-490800Y-444290D01*
X-423620Y-511470D01*
G01X-152290Y-621120D02*
Y-494120D01*
X-112080D01*
X-99210Y-500470D01*
X-91170Y-508940D01*
X-87950Y-525870D01*
X-91170Y-542800D01*
X-100820Y-553390D01*
X-112080Y-559740D01*
X-152290D01*
G01X-112080D02*
X-87950Y-621120D01*
G01X9380D02*
Y-494120D01*
X-9920Y-519520D01*
G01Y-621120D02*
X28680D01*
G01X158180D02*
Y-494120D01*
X98670Y-585140D01*
X179090D01*
G01X-186370Y-748720D02*
X-151010Y-713360D01*
X-218190Y-646180D01*
X-253550Y-681540D01*
X-186370Y-748720D01*
G01X-319590Y-578850D02*
Y-451850D01*
X-279380D01*
X-266510Y-458200D01*
X-258470Y-466670D01*
X-255250Y-483600D01*
X-258470Y-500530D01*
X-268120Y-511120D01*
X-279380Y-517470D01*
X-319590D01*
G01X-279380D02*
X-255250Y-578850D01*
G01X-157920D02*
Y-451850D01*
X-177220Y-477250D01*
G01Y-578850D02*
X-138620D01*
G01X-63800Y-559800D02*
X-54160Y-570390D01*
X-42900Y-576730D01*
X-28420Y-578850D01*
X-13940Y-574620D01*
X-2690Y-566150D01*
X5360Y-551340D01*
X6960Y-534400D01*
X3750Y-517470D01*
X-4300Y-506880D01*
X-15550Y-498420D01*
X-26810Y-496300D01*
X-38070Y-498420D01*
X-52540Y-506880D01*
X-47720Y-451850D01*
X-4300D01*
G01X-265670Y-670070D02*
X-230310Y-634710D01*
X-297490Y-567530D01*
X-332850Y-602890D01*
X-265670Y-670070D01*
G01X-396680Y-500590D02*
Y-373590D01*
X-356470D01*
X-343600Y-379940D01*
X-335560Y-388410D01*
X-332340Y-405340D01*
X-335560Y-422270D01*
X-345210Y-432860D01*
X-356470Y-439210D01*
X-396680D01*
G01X-356470D02*
X-332340Y-500590D01*
G01X-235010D02*
Y-373590D01*
X-254310Y-398990D01*
G01Y-500590D02*
X-215710D01*
G01X-136070Y-447680D02*
X-124810Y-432860D01*
X-115160Y-424390D01*
X-102290Y-420160D01*
X-91030Y-424390D01*
X-82990Y-432860D01*
X-76560Y-445560D01*
X-74950Y-460370D01*
X-76560Y-473080D01*
X-82990Y-485780D01*
X-92640Y-496360D01*
X-103900Y-500590D01*
X-116770Y-496360D01*
X-128030Y-483660D01*
X-134460Y-464610D01*
X-136070Y-443440D01*
X-132850Y-415930D01*
X-128030Y-401100D01*
X-119990Y-386290D01*
X-108730Y-375710D01*
X-97470Y-373590D01*
X-86210Y-377820D01*
X-78170Y-388410D01*
G01X-342760Y-591810D02*
X-307400Y-556450D01*
X-374580Y-489270D01*
X-409940Y-524630D01*
X-342760Y-591810D01*
G01X-556570Y-127810D02*
Y-810D01*
X-516360D01*
X-503490Y-7160D01*
X-495450Y-15630D01*
X-492230Y-32560D01*
X-495450Y-49490D01*
X-505100Y-60080D01*
X-516360Y-66430D01*
X-556570D01*
G01X-516360D02*
X-492230Y-127810D01*
G01X-394900D02*
Y-810D01*
X-414200Y-26210D01*
G01Y-127810D02*
X-375600D01*
G01X-265400D02*
X-254140Y-125690D01*
X-241280Y-119350D01*
X-233230Y-108760D01*
X-230020Y-93940D01*
X-233230Y-79130D01*
X-242880Y-66430D01*
X-257360Y-60080D01*
X-273440D01*
X-283090Y-55840D01*
X-291140Y-45260D01*
X-294350Y-30440D01*
X-289520Y-15630D01*
X-278270Y-5040D01*
X-265400Y-810D01*
X-252530Y-5040D01*
X-241280Y-15630D01*
X-236450Y-30440D01*
X-239670Y-45260D01*
X-247710Y-55840D01*
X-257360Y-60080D01*
X-273440D01*
X-287920Y-66430D01*
X-297570Y-79130D01*
X-300780Y-93940D01*
X-297570Y-108760D01*
X-289520Y-119350D01*
X-276660Y-125690D01*
X-265400Y-127810D01*
G01X-501750Y-433210D02*
X-466390Y-397850D01*
X-533570Y-330670D01*
X-568930Y-366030D01*
X-501750Y-433210D01*
G01X-612870Y-251370D02*
X-648230Y-286730D01*
X-581050Y-353910D01*
X-545690Y-318550D01*
X-612870Y-251370D01*
G01X-696460Y-168950D02*
X-731820Y-204310D01*
X-664640Y-271490D01*
X-629280Y-236130D01*
X-696460Y-168950D01*
G01X-787200Y-77040D02*
X-822560Y-112400D01*
X-755380Y-179580D01*
X-720020Y-144220D01*
X-787200Y-77040D01*
G01X-551760Y323230D02*
X-558110Y313580D01*
X-562340Y302330D01*
Y289460D01*
X-555990Y274980D01*
X-545410Y263730D01*
X-532710Y255680D01*
X-511540Y249250D01*
X-492490Y247640D01*
X-473440Y250860D01*
X-460740Y255680D01*
X-448040Y265330D01*
X-439570Y276590D01*
X-435340Y287850D01*
Y299110D01*
X-439570Y310370D01*
X-445920Y320020D01*
X-454390Y328060D01*
G01X-435340Y417350D02*
X-562340D01*
X-536940Y398050D01*
G01X-435340D02*
Y436650D01*
G01X-488250Y516290D02*
X-503070Y527550D01*
X-511540Y537200D01*
X-515770Y550070D01*
X-511540Y561330D01*
X-503070Y569370D01*
X-490370Y575800D01*
X-475560Y577410D01*
X-462850Y575800D01*
X-450150Y569370D01*
X-439570Y559720D01*
X-435340Y548460D01*
X-439570Y535590D01*
X-452270Y524330D01*
X-471320Y517900D01*
X-492490Y516290D01*
X-520000Y519510D01*
X-534830Y524330D01*
X-549640Y532370D01*
X-560220Y543630D01*
X-562340Y554890D01*
X-558110Y566150D01*
X-547520Y574190D01*
G01X-262130Y583100D02*
X-297490Y547740D01*
X-230310Y480560D01*
X-194950Y515920D01*
X-262130Y583100D01*
G01X-336600Y1127360D02*
X-209600D01*
Y1087150D01*
X-215950Y1074290D01*
X-224420Y1066250D01*
X-241350Y1063030D01*
X-258280Y1066250D01*
X-268870Y1075900D01*
X-275220Y1087150D01*
Y1127360D01*
G01Y1087150D02*
X-336600Y1063030D01*
G01Y946420D02*
X-209600D01*
X-300620Y1005920D01*
Y925510D01*
G01X-502740Y2415010D02*
X-375740D01*
Y2374800D01*
X-382090Y2361940D01*
X-390560Y2353900D01*
X-407490Y2350680D01*
X-424420Y2353900D01*
X-435010Y2363550D01*
X-441360Y2374800D01*
Y2415010D01*
G01Y2374800D02*
X-502740Y2350680D01*
G01Y2253370D02*
X-375740D01*
X-401140Y2272660D01*
G01X-502740D02*
Y2234070D01*
G01X-375740Y2123890D02*
X-379970Y2136750D01*
X-390560Y2146400D01*
X-403250Y2152830D01*
X-420190Y2157660D01*
X-439240Y2159260D01*
X-458290Y2157660D01*
X-475230Y2152830D01*
X-487930Y2146400D01*
X-498510Y2136750D01*
X-502740Y2123890D01*
X-498510Y2111020D01*
X-487930Y2101370D01*
X-475230Y2094940D01*
X-458290Y2090110D01*
X-439240Y2088510D01*
X-420190Y2090110D01*
X-403250Y2094940D01*
X-390560Y2101370D01*
X-379970Y2111020D01*
X-375740Y2123890D01*
G01X-91480Y-2284360D02*
X35520D01*
Y-2220030D01*
G01Y-2103420D02*
X-91480D01*
X-460Y-2162920D01*
Y-2082510D01*
G01X508980Y-2284360D02*
X381980D01*
Y-2244150D01*
X388330Y-2231290D01*
X396800Y-2223250D01*
X413730Y-2220030D01*
X430660Y-2223250D01*
X441250Y-2232900D01*
X447600Y-2244150D01*
Y-2284360D01*
G01Y-2244150D02*
X508980Y-2220030D01*
G01Y-2122720D02*
X381980D01*
X407380Y-2142010D01*
G01X508980D02*
Y-2103420D01*
G01Y-1993240D02*
X381980D01*
X407380Y-2012530D01*
G01X508980D02*
Y-1973940D01*
G01X775430Y-713100D02*
Y-840100D01*
X735220D01*
X722350Y-833750D01*
X714310Y-825280D01*
X711090Y-808350D01*
X714310Y-791420D01*
X723960Y-780830D01*
X735220Y-774480D01*
X775430D01*
G01X735220D02*
X711090Y-713100D01*
G01X644320Y-766010D02*
X633060Y-780830D01*
X623410Y-789300D01*
X610540Y-793530D01*
X599280Y-789300D01*
X591240Y-780830D01*
X584810Y-768130D01*
X583200Y-753320D01*
X584810Y-740610D01*
X591240Y-727910D01*
X600890Y-717330D01*
X612150Y-713100D01*
X625020Y-717330D01*
X636280Y-730030D01*
X642710Y-749080D01*
X644320Y-770250D01*
X641100Y-797760D01*
X636280Y-812590D01*
X628240Y-827400D01*
X616980Y-837980D01*
X605720Y-840100D01*
X594460Y-835870D01*
X586420Y-825280D01*
G01X539580Y-631460D02*
X574940Y-666820D01*
X642120Y-599640D01*
X606760Y-564280D01*
X539580Y-631460D01*
G01X377630Y664920D02*
X383980Y674570D01*
X388210Y685820D01*
Y698690D01*
X381860Y713170D01*
X371280Y724420D01*
X358580Y732470D01*
X337410Y738900D01*
X318360Y740510D01*
X299310Y737290D01*
X286610Y732470D01*
X273910Y722820D01*
X265440Y711560D01*
X261210Y700300D01*
Y689040D01*
X265440Y677780D01*
X271790Y668130D01*
X280260Y660090D01*
G01X261210Y570800D02*
X388210D01*
X362810Y590100D01*
G01X261210D02*
Y551500D01*
G01Y422000D02*
X388210D01*
X297190Y481510D01*
Y401090D01*
G01X169990Y678550D02*
X205350Y643190D01*
X272530Y710370D01*
X237170Y745730D01*
X169990Y678550D01*
G01X356010Y226180D02*
X365660Y219830D01*
X376910Y215600D01*
X389780D01*
X404260Y221950D01*
X415510Y232530D01*
X423560Y245230D01*
X429990Y266400D01*
X431600Y285450D01*
X428380Y304500D01*
X423560Y317200D01*
X413910Y329900D01*
X402650Y338370D01*
X391390Y342600D01*
X380130D01*
X368870Y338370D01*
X359220Y332020D01*
X351180Y323550D01*
G01X261890Y342600D02*
Y215600D01*
X281190Y241000D01*
G01Y342600D02*
X242590D01*
G01X167770Y323550D02*
X158130Y334140D01*
X146870Y340480D01*
X132390Y342600D01*
X117910Y338370D01*
X106660Y329900D01*
X98610Y315090D01*
X97010Y298150D01*
X100220Y281220D01*
X108270Y270630D01*
X119520Y262170D01*
X130780Y260050D01*
X142040Y262170D01*
X156510Y270630D01*
X151690Y215600D01*
X108270D01*
G01X96150Y604710D02*
X131510Y569350D01*
X198690Y636530D01*
X163330Y671890D01*
X96150Y604710D01*
G01X-56840Y351990D02*
X-63190Y342340D01*
X-67420Y331090D01*
Y318220D01*
X-61070Y303740D01*
X-50490Y292490D01*
X-37790Y284440D01*
X-16620Y278010D01*
X2430Y276400D01*
X21480Y279620D01*
X34180Y284440D01*
X46880Y294090D01*
X55350Y305350D01*
X59580Y316610D01*
Y327870D01*
X55350Y339130D01*
X49000Y348780D01*
X40530Y356820D01*
G01X59580Y446110D02*
X-67420D01*
X-42020Y426810D01*
G01X59580D02*
Y465410D01*
G01X34180Y540230D02*
X49000Y549870D01*
X57460Y562740D01*
X59580Y577220D01*
X57460Y590090D01*
X46880Y602950D01*
X34180Y610990D01*
X21480Y612600D01*
X6670Y609390D01*
X-3920Y598130D01*
X-8150Y586870D01*
Y572390D01*
G01Y586870D02*
X-14500Y596520D01*
X-25080Y604560D01*
X-37790Y607780D01*
X-50490Y604560D01*
X-61070Y596520D01*
X-67420Y582040D01*
X-65300Y567570D01*
X-56840Y553090D01*
G01X453880Y517060D02*
X418520Y552420D01*
X351340Y485240D01*
X386700Y449880D01*
X453880Y517060D01*
G01X843510Y238900D02*
X853160Y232550D01*
X864410Y228320D01*
X877280D01*
X891760Y234670D01*
X903010Y245250D01*
X911060Y257950D01*
X917490Y279120D01*
X919100Y298170D01*
X915880Y317220D01*
X911060Y329920D01*
X901410Y342620D01*
X890150Y351090D01*
X878890Y355320D01*
X867630D01*
X856370Y351090D01*
X846720Y344740D01*
X838680Y336270D01*
G01X749390Y355320D02*
Y228320D01*
X768690Y253720D01*
G01Y355320D02*
X730090D01*
G01X619890D02*
Y228320D01*
X639190Y253720D01*
G01Y355320D02*
X600590D01*
G01X583650Y528530D02*
X619010Y493170D01*
X686190Y560350D01*
X650830Y595710D01*
X583650Y528530D01*
G01X613840Y693130D02*
X620190Y702780D01*
X624420Y714030D01*
Y726900D01*
X618070Y741380D01*
X607490Y752630D01*
X594790Y760680D01*
X573620Y767110D01*
X554570Y768720D01*
X535520Y765500D01*
X522820Y760680D01*
X510120Y751030D01*
X501650Y739770D01*
X497420Y728510D01*
Y717250D01*
X501650Y705990D01*
X508000Y696340D01*
X516470Y688300D01*
G01X497420Y599010D02*
X624420D01*
X599020Y618310D01*
G01X497420D02*
Y579710D01*
G01X624420Y469510D02*
X620190Y482380D01*
X609600Y492030D01*
X596910Y498460D01*
X579970Y503290D01*
X560920Y504890D01*
X541870Y503290D01*
X524930Y498460D01*
X512230Y492030D01*
X501650Y482380D01*
X497420Y469510D01*
X501650Y456640D01*
X512230Y446990D01*
X524930Y440560D01*
X541870Y435730D01*
X560920Y434130D01*
X579970Y435730D01*
X596910Y440560D01*
X609600Y446990D01*
X620190Y456640D01*
X624420Y469510D01*
G01X133170Y1307490D02*
X168530Y1342850D01*
X101350Y1410030D01*
X65990Y1374670D01*
X133170Y1307490D01*
G01X406200Y706760D02*
X441560Y671400D01*
X508740Y738580D01*
X473380Y773940D01*
X406200Y706760D01*
G01X597320Y1770760D02*
X590970Y1761110D01*
X586740Y1749860D01*
Y1736990D01*
X593090Y1722510D01*
X603670Y1711260D01*
X616370Y1703210D01*
X637540Y1696780D01*
X656590Y1695170D01*
X675640Y1698390D01*
X688340Y1703210D01*
X701040Y1712860D01*
X709510Y1724120D01*
X713740Y1735380D01*
Y1746640D01*
X709510Y1757900D01*
X703160Y1767550D01*
X694690Y1775590D01*
G01X713740Y1864880D02*
X711620Y1876140D01*
X705280Y1889000D01*
X694690Y1897050D01*
X679870Y1900260D01*
X665060Y1897050D01*
X652360Y1887400D01*
X646010Y1872920D01*
Y1856840D01*
X641770Y1847190D01*
X631190Y1839140D01*
X616370Y1835930D01*
X601560Y1840760D01*
X590970Y1852010D01*
X586740Y1864880D01*
X590970Y1877750D01*
X601560Y1889000D01*
X616370Y1893830D01*
X631190Y1890610D01*
X641770Y1882570D01*
X646010Y1872920D01*
Y1856840D01*
X652360Y1842360D01*
X665060Y1832710D01*
X679870Y1829500D01*
X694690Y1832710D01*
X705280Y1840760D01*
X711620Y1853620D01*
X713740Y1864880D01*
G01X617580Y2205760D02*
X582220Y2170400D01*
X649400Y2103220D01*
X684760Y2138580D01*
X617580Y2205760D01*
G01X57000Y1637740D02*
X47350Y1644090D01*
X36100Y1648320D01*
X23230D01*
X8750Y1641970D01*
X-2500Y1631390D01*
X-10550Y1618690D01*
X-16980Y1597520D01*
X-18590Y1578470D01*
X-15370Y1559420D01*
X-10550Y1546720D01*
X-900Y1534020D01*
X10360Y1525550D01*
X21620Y1521320D01*
X32880D01*
X44140Y1525550D01*
X53790Y1531900D01*
X61830Y1540370D01*
G01X123780Y1536130D02*
X135040Y1525550D01*
X147900Y1521320D01*
X160770Y1525550D01*
X172030Y1538250D01*
X180070Y1557300D01*
X183290Y1576350D01*
Y1599640D01*
X180070Y1618690D01*
X172030Y1635620D01*
X162380Y1644090D01*
X151120Y1648320D01*
X138250Y1644090D01*
X128600Y1635620D01*
X122170Y1622920D01*
X118950Y1605980D01*
X122170Y1591170D01*
X130210Y1576350D01*
X139860Y1567880D01*
X151120Y1565770D01*
X163990Y1570000D01*
X173640Y1580590D01*
X183290Y1599640D01*
G01X97850Y2411760D02*
X-29150D01*
Y2347430D01*
G01X-3750Y2285490D02*
X-18570Y2275850D01*
X-27030Y2262980D01*
X-29150Y2248510D01*
X-27030Y2235640D01*
X-16450Y2222770D01*
X-3750Y2214740D01*
X8950Y2213130D01*
X23760Y2216340D01*
X34350Y2227600D01*
X38580Y2238860D01*
Y2253330D01*
G01Y2238860D02*
X44930Y2229210D01*
X55510Y2221170D01*
X68220Y2217950D01*
X80920Y2221170D01*
X91500Y2229210D01*
X97850Y2243680D01*
X95730Y2258160D01*
X87270Y2272630D01*
G01X943950Y-1559590D02*
Y-1686590D01*
X903740D01*
X890880Y-1680240D01*
X882840Y-1671770D01*
X879620Y-1654840D01*
X882840Y-1637910D01*
X892490Y-1627320D01*
X903740Y-1620970D01*
X943950D01*
G01X903740D02*
X879620Y-1559590D01*
G01X782310D02*
Y-1686590D01*
X801600Y-1661190D01*
G01Y-1559590D02*
X763010D01*
G01X1119440Y-1287150D02*
X992440D01*
Y-1351480D01*
G01X1011490Y-1413420D02*
X1000900Y-1423060D01*
X994560Y-1434320D01*
X992440Y-1448790D01*
X996670Y-1463270D01*
X1005140Y-1474520D01*
X1019950Y-1482570D01*
X1036890Y-1484170D01*
X1053820Y-1480960D01*
X1064410Y-1472920D01*
X1072870Y-1461660D01*
X1074990Y-1450400D01*
X1072870Y-1439150D01*
X1064410Y-1424670D01*
X1119440Y-1429500D01*
Y-1472920D01*
G01X819050Y2335670D02*
X946050D01*
Y2295460D01*
X939700Y2282590D01*
X931230Y2274550D01*
X914300Y2271330D01*
X897370Y2274550D01*
X886780Y2284200D01*
X880430Y2295460D01*
Y2335670D01*
G01Y2295460D02*
X819050Y2271330D01*
G01X844450Y2209380D02*
X829630Y2199740D01*
X821170Y2186870D01*
X819050Y2172390D01*
X821170Y2159520D01*
X831750Y2146660D01*
X844450Y2138620D01*
X857150Y2137010D01*
X871960Y2140220D01*
X882550Y2151480D01*
X886780Y2162740D01*
Y2177220D01*
G01Y2162740D02*
X893130Y2153090D01*
X903710Y2145050D01*
X916420Y2141830D01*
X929120Y2145050D01*
X939700Y2153090D01*
X946050Y2167570D01*
X943930Y2182040D01*
X935470Y2196520D01*
G01X737410Y2010920D02*
X772770Y2046280D01*
X705590Y2113460D01*
X670230Y2078100D01*
X737410Y2010920D01*
G01X2244540Y-2049230D02*
X2234890Y-2042880D01*
X2223640Y-2038650D01*
X2210770D01*
X2196300Y-2045000D01*
X2185040Y-2055580D01*
X2177000Y-2068280D01*
X2170570Y-2089450D01*
X2168960Y-2108500D01*
X2172180Y-2127550D01*
X2177000Y-2140250D01*
X2186650Y-2152950D01*
X2197910Y-2161420D01*
X2209160Y-2165650D01*
X2220420D01*
X2231680Y-2161420D01*
X2241330Y-2155070D01*
X2249370Y-2146600D01*
G01X2303270D02*
X2312910Y-2157190D01*
X2324170Y-2163530D01*
X2338640Y-2165650D01*
X2353120Y-2161420D01*
X2364370Y-2152950D01*
X2372420Y-2138140D01*
X2374020Y-2121200D01*
X2370810Y-2104270D01*
X2362770Y-2093680D01*
X2351510Y-2085220D01*
X2340250Y-2083100D01*
X2329000Y-2085220D01*
X2314520Y-2093680D01*
X2319350Y-2038650D01*
X2362770D01*
G01X2089650Y-1868770D02*
X2087530Y-1881640D01*
X2079070Y-1892900D01*
X2066370Y-1902550D01*
X2051550Y-1908990D01*
X2034620Y-1912210D01*
X2017680D01*
X2000750Y-1908990D01*
X1985930Y-1902550D01*
X1973230Y-1892900D01*
X1964770Y-1881640D01*
X1962650Y-1868770D01*
X1964770Y-1855900D01*
X1973230Y-1844640D01*
X1985930Y-1834990D01*
X2000750Y-1828550D01*
X2017680Y-1825330D01*
X2034620D01*
X2051550Y-1828550D01*
X2066370Y-1834990D01*
X2079070Y-1844640D01*
X2087530Y-1855900D01*
X2089650Y-1868770D01*
G01X2055780Y-1855900D02*
X2089650Y-1836600D01*
G01Y-1739230D02*
X1962650D01*
X1988050Y-1758530D01*
G01X2089650D02*
Y-1719930D01*
G01X2348910Y-1170090D02*
X2355260Y-1160440D01*
X2359490Y-1149190D01*
Y-1136320D01*
X2353140Y-1121850D01*
X2342560Y-1110590D01*
X2329860Y-1102550D01*
X2308690Y-1096120D01*
X2289640Y-1094510D01*
X2270590Y-1097730D01*
X2257890Y-1102550D01*
X2245190Y-1112200D01*
X2236720Y-1123460D01*
X2232490Y-1134710D01*
Y-1145970D01*
X2236720Y-1157230D01*
X2243070Y-1166880D01*
X2251540Y-1174920D01*
G01X2285400Y-1233640D02*
X2300220Y-1244900D01*
X2308690Y-1254550D01*
X2312920Y-1267410D01*
X2308690Y-1278670D01*
X2300220Y-1286710D01*
X2287520Y-1293140D01*
X2272710Y-1294750D01*
X2260000Y-1293140D01*
X2247300Y-1286710D01*
X2236720Y-1277060D01*
X2232490Y-1265800D01*
X2236720Y-1252940D01*
X2249420Y-1241680D01*
X2268470Y-1235250D01*
X2289640Y-1233640D01*
X2317150Y-1236850D01*
X2331980Y-1241680D01*
X2346790Y-1249720D01*
X2357370Y-1260980D01*
X2359490Y-1272240D01*
X2355260Y-1283490D01*
X2344670Y-1291540D01*
G01X2329340Y-193010D02*
Y-66010D01*
X2265010D01*
G01X2198250Y-171840D02*
X2188600Y-184540D01*
X2177340Y-190890D01*
X2164480Y-193010D01*
X2148400Y-188780D01*
X2137140Y-178190D01*
X2133920Y-165500D01*
X2135530Y-152790D01*
X2141970Y-142210D01*
X2174130Y-121040D01*
X2188600Y-106230D01*
X2198250Y-85060D01*
X2201470Y-66010D01*
X2133920D01*
G01X2328170Y406280D02*
Y279280D01*
X2287960D01*
X2275100Y285630D01*
X2267060Y294100D01*
X2263840Y311030D01*
X2267060Y327960D01*
X2276710Y338550D01*
X2287960Y344900D01*
X2328170D01*
G01X2287960D02*
X2263840Y406280D01*
G01X2193870Y391470D02*
X2182610Y402050D01*
X2169740Y406280D01*
X2156880Y402050D01*
X2145620Y389350D01*
X2137580Y370300D01*
X2134360Y351250D01*
Y327960D01*
X2137580Y308910D01*
X2145620Y291980D01*
X2155270Y283510D01*
X2166530Y279280D01*
X2179390Y283510D01*
X2189040Y291980D01*
X2195470Y304680D01*
X2198690Y321620D01*
X2195470Y336430D01*
X2187430Y351250D01*
X2177780Y359720D01*
X2166530Y361830D01*
X2153660Y357600D01*
X2144010Y347010D01*
X2134360Y327960D01*
G01X1566020Y572330D02*
X1556370Y578680D01*
X1545120Y582910D01*
X1532250D01*
X1517770Y576560D01*
X1506520Y565980D01*
X1498470Y553280D01*
X1492040Y532110D01*
X1490430Y513060D01*
X1493650Y494010D01*
X1498470Y481310D01*
X1508120Y468610D01*
X1519380Y460140D01*
X1530640Y455910D01*
X1541900D01*
X1553160Y460140D01*
X1562810Y466490D01*
X1570850Y474960D01*
G01X1660140Y455910D02*
Y582910D01*
X1640840Y557510D01*
G01Y455910D02*
X1679440D01*
G01X1759080Y561740D02*
X1768730Y574440D01*
X1779990Y580790D01*
X1792860Y582910D01*
X1808940Y578680D01*
X1820200Y568090D01*
X1823420Y555400D01*
X1821810Y542690D01*
X1815370Y532110D01*
X1783210Y510940D01*
X1768730Y496130D01*
X1759080Y474960D01*
X1755860Y455910D01*
X1823420D01*
G01X1553290Y239410D02*
X1588650Y274770D01*
X1521470Y341950D01*
X1486110Y306590D01*
X1553290Y239410D01*
G01X1706090Y2024220D02*
X1696440Y2030570D01*
X1685190Y2034800D01*
X1672320D01*
X1657840Y2028450D01*
X1646590Y2017870D01*
X1638540Y2005170D01*
X1632110Y1984000D01*
X1630500Y1964950D01*
X1633720Y1945900D01*
X1638540Y1933200D01*
X1648190Y1920500D01*
X1659450Y1912030D01*
X1670710Y1907800D01*
X1681970D01*
X1693230Y1912030D01*
X1702880Y1918380D01*
X1710920Y1926850D01*
G01X1796990Y1907800D02*
X1800210Y1935310D01*
X1805040Y1958600D01*
X1811470Y1979770D01*
X1819510Y2003050D01*
X1832380Y2034800D01*
X1768040D01*
G01X1874390Y1826160D02*
X1839030Y1861520D01*
X1771850Y1794340D01*
X1807210Y1758980D01*
X1874390Y1826160D01*
G01X2674580Y-2633450D02*
X2664930Y-2627100D01*
X2653680Y-2622870D01*
X2640810D01*
X2626340Y-2629220D01*
X2615080Y-2639800D01*
X2607040Y-2652500D01*
X2600610Y-2673670D01*
X2599000Y-2692720D01*
X2602220Y-2711770D01*
X2607040Y-2724470D01*
X2616690Y-2737170D01*
X2627950Y-2745640D01*
X2639200Y-2749870D01*
X2650460D01*
X2661720Y-2745640D01*
X2671370Y-2739290D01*
X2679410Y-2730820D01*
G01X2787980Y-2749870D02*
Y-2622870D01*
X2728480Y-2713890D01*
X2808890D01*
G01X2410050Y-1164360D02*
X2537050D01*
Y-1204570D01*
X2530700Y-1217430D01*
X2522230Y-1225470D01*
X2505300Y-1228690D01*
X2488370Y-1225470D01*
X2477780Y-1215820D01*
X2471430Y-1204570D01*
Y-1164360D01*
G01Y-1204570D02*
X2410050Y-1228690D01*
G01Y-1326000D02*
X2537050D01*
X2511650Y-1306710D01*
G01X2410050D02*
Y-1345300D01*
G01X2435450Y-1420110D02*
X2420630Y-1429750D01*
X2412170Y-1442620D01*
X2410050Y-1457090D01*
X2412170Y-1469960D01*
X2422750Y-1482830D01*
X2435450Y-1490860D01*
X2448150Y-1492470D01*
X2462960Y-1489260D01*
X2473550Y-1478000D01*
X2477780Y-1466740D01*
Y-1452270D01*
G01Y-1466740D02*
X2484130Y-1476390D01*
X2494710Y-1484430D01*
X2507420Y-1487650D01*
X2520120Y-1484430D01*
X2530700Y-1476390D01*
X2537050Y-1461920D01*
X2534930Y-1447440D01*
X2526470Y-1432970D01*
G01X2986380Y-1615200D02*
Y-1488200D01*
X2922050D01*
G01X2855290Y-1541110D02*
X2844030Y-1555930D01*
X2834380Y-1564400D01*
X2821520Y-1568630D01*
X2810260Y-1564400D01*
X2802220Y-1555930D01*
X2795790Y-1543230D01*
X2794180Y-1528420D01*
X2795790Y-1515710D01*
X2802220Y-1503010D01*
X2811870Y-1492430D01*
X2823130Y-1488200D01*
X2835990Y-1492430D01*
X2847250Y-1505130D01*
X2853680Y-1524180D01*
X2855290Y-1545350D01*
X2852080Y-1572860D01*
X2847250Y-1587690D01*
X2839210Y-1602500D01*
X2827950Y-1613080D01*
X2816690Y-1615200D01*
X2805440Y-1610970D01*
X2797390Y-1600380D01*
M02*
